<?xml version="1.0" encoding="UTF-8"?>
<svg id="Layer_2" data-name="Layer 2" xmlns="http://www.w3.org/2000/svg" viewBox="0 0 300 300">
  <defs>
    <style>
      .cls-1 {
        fill: none;
      }

      .cls-1, .cls-2 {
        stroke-width: 0px;
      }

      .cls-2 {
        fill: #e80a4d;
      }
    </style>
  </defs>
  <g id="_레이어_1" data-name="레이어 1">
    <g>
      <g>
        <circle class="cls-2" cx="25.1" cy="138.02" r="4.1"/>
        <circle class="cls-2" cx="74.96" cy="111.01" r="4.1"/>
        <path class="cls-2" d="M219.95,153.76c-12.65-5.1-6.1-26.03-3.37-31.12,0,0-18.29,21.39-36.77,21.39s-27.12-25.03-29.85-36.13c-2.73,11.1-11.28,36.13-29.85,36.13s-36.77-21.39-36.77-21.39c2.73,5.1,9.28,26.03-3.37,31.12-12.47,5.1-42.32-6.19-42.32-6.19,31.31,26.48,32.4,51.97,32.4,51.97,41.95-5.92,79.81-5.73,79.81-5.73,0,0,37.86-.18,79.81,5.73,0,0,1.09-25.48,32.4-51.97.09,0-29.76,11.28-42.14,6.19Z"/>
        <circle class="cls-2" cx="274.9" cy="138" r="4.1"/>
        <circle class="cls-2" cx="224.95" cy="111.03" r="4.1"/>
        <circle class="cls-2" cx="149.97" cy="93.9" r="4.1"/>
      </g>
      <rect class="cls-1" width="300" height="300"/>
    </g>
  </g>
</svg>