<?xml version="1.0" encoding="UTF-8"?>
<svg id="Layer_2" data-name="Layer 2" xmlns="http://www.w3.org/2000/svg" viewBox="0 0 227.9 145.31">
  <defs>
    <style>
      .cls-1 {
        fill: #ffc35a;
        stroke-width: 0px;
      }
    </style>
  </defs>
  <g id="Layer_1-2" data-name="Layer 1">
    <g>
      <path class="cls-1" d="M90.11,96.75c-3.4.75-6.89,1.03-10.36.82-9.03-.57-17.99,1.87-25.49,6.94-12.23,8.53-24.72,6.82-27.78-6.46-5.26-19.42,7.86-43.47,26.51-48.54,18.65-5.08,42.15,9,47.43,28.42,1.85,6.8,1.57,15.59-10.32,18.82ZM86.73,13.92c-5.78.86-9.42,7.54-7.69,17.36,4.38,23.1,24.65,20.75,20.95-3.1-1.73-9.81-7.48-15.11-13.26-14.25ZM1.66,54.93c8.91,22.44,27.55,14.18,19.63-7.94-3.49-9.34-10-13.26-15.42-11.06C.45,38.12-1.82,45.6,1.66,54.93ZM20.5,27.75c8.91,22.45,27.56,14.18,19.63-7.94-3.5-9.33-10-13.26-15.44-11.06-5.44,2.2-7.68,9.67-4.19,19h0ZM56.5.09c-5.78.86-9.42,7.54-7.69,17.36,4.38,23.1,24.65,20.75,20.95-3.1C68.03,4.53,62.28-.77,56.5.09Z"/>
      <path class="cls-1" d="M187.51,144.87c-3.38-.83-6.63-2.13-9.65-3.86-7.84-4.52-16.95-6.31-25.92-5.1-14.75,2.22-25.18-4.86-22.03-18.12,3.91-19.74,26.34-35.46,45.31-31.73,18.97,3.73,33.77,26.78,29.89,46.52-1.36,6.92-5.52,14.67-17.6,12.29ZM221.24,69.15c-5.56-1.8-11.78,2.57-14.59,12.14-6.33,22.65,12.87,29.54,20.15,6.52,2.8-9.56,0-16.86-5.56-18.66ZM126.81,68.14c-1.98,24.06,18.39,24.94,21.12,1.6,1.02-9.91-3.08-16.32-8.91-16.76-5.83-.44-11.18,5.25-12.21,15.16ZM155.76,52.14c-1.98,24.07,18.41,24.94,21.11,1.6,1.01-9.92-3.08-16.32-8.92-16.76-5.85-.44-11.17,5.25-12.19,15.17h0ZM200.29,43.34c-5.56-1.8-11.78,2.57-14.59,12.14-6.33,22.65,12.87,29.54,20.15,6.52,2.8-9.56,0-16.86-5.56-18.66Z"/>
    </g>
  </g>
</svg>