<?xml version="1.0" encoding="UTF-8"?>
<svg id="Layer_2" data-name="Layer 2" xmlns="http://www.w3.org/2000/svg" viewBox="0 0 192.17 192.17">
  <defs>
    <style>
      .cls-1 {
        fill: #64b5ff;
        stroke-width: 0px;
      }
    </style>
  </defs>
  <g id="Layer_1-2" data-name="Layer 1">
    <path class="cls-1" d="M72.06,0h-32.03C17.92,0,0,17.92,0,40.03v112.1c0,22.11,17.92,40.03,40.03,40.03h72.06V40.03C112.1,17.92,94.17,0,72.06,0ZM40.03,152.13h-8.01c-4.42,0-8.01-3.58-8.01-8.01s3.58-8.01,8.01-8.01h8.01c4.42,0,8.01,3.58,8.01,8.01s-3.58,8.01-8.01,8.01ZM40.03,120.1h-8.01c-4.42,0-8.01-3.58-8.01-8.01s3.58-8.01,8.01-8.01h8.01c4.42,0,8.01,3.58,8.01,8.01s-3.58,8.01-8.01,8.01ZM40.03,88.08h-8.01c-4.42,0-8.01-3.58-8.01-8.01s3.58-8.01,8.01-8.01h8.01c4.42,0,8.01,3.58,8.01,8.01s-3.58,8.01-8.01,8.01ZM40.03,56.05h-8.01c-4.42,0-8.01-3.58-8.01-8.01s3.58-8.01,8.01-8.01h8.01c4.42,0,8.01,3.58,8.01,8.01s-3.58,8.01-8.01,8.01ZM80.07,152.13h-8.01c-4.42,0-8.01-3.58-8.01-8.01s3.58-8.01,8.01-8.01h8.01c4.42,0,8.01,3.58,8.01,8.01s-3.58,8.01-8.01,8.01ZM80.07,120.1h-8.01c-4.42,0-8.01-3.58-8.01-8.01s3.58-8.01,8.01-8.01h8.01c4.42,0,8.01,3.58,8.01,8.01s-3.58,8.01-8.01,8.01ZM80.07,88.08h-8.01c-4.42,0-8.01-3.58-8.01-8.01s3.58-8.01,8.01-8.01h8.01c4.42,0,8.01,3.58,8.01,8.01s-3.58,8.01-8.01,8.01ZM80.07,56.05h-8.01c-4.42,0-8.01-3.58-8.01-8.01s3.58-8.01,8.01-8.01h8.01c4.42,0,8.01,3.58,8.01,8.01s-3.58,8.01-8.01,8.01ZM152.13,40.03h-24.02v152.13h24.02c22.1-.03,40.01-17.94,40.03-40.03v-72.06c-.03-22.1-17.94-40.01-40.03-40.03ZM160.14,152.13c-4.42,0-8.01-3.58-8.01-8.01s3.58-8.01,8.01-8.01,8.01,3.58,8.01,8.01-3.58,8.01-8.01,8.01ZM160.14,120.1c-4.42,0-8.01-3.58-8.01-8.01s3.58-8.01,8.01-8.01,8.01,3.58,8.01,8.01-3.58,8.01-8.01,8.01ZM160.14,88.08c-4.42,0-8.01-3.58-8.01-8.01s3.58-8.01,8.01-8.01,8.01,3.58,8.01,8.01-3.58,8.01-8.01,8.01Z"/>
  </g>
</svg>