<?xml version="1.0" encoding="UTF-8"?>
<svg id="Layer_1" data-name="Layer 1" xmlns="http://www.w3.org/2000/svg" version="1.1" viewBox="0 0 78.08 56.4">
  <defs>
    <style>
      .cls-1 {
        fill: #e8e8cd;
      }

      .cls-1, .cls-2, .cls-3, .cls-4, .cls-5 {
        stroke-width: 0px;
      }

      .cls-2 {
        fill: #ff6555;
      }

      .cls-3 {
        fill: #3d312c;
      }

      .cls-4 {
        fill: #fe7c5c;
      }

      .cls-5 {
        fill: #fff;
      }
    </style>
  </defs>
  <rect class="cls-2" x="5.99" y="4.75" width="22.51" height="16.76" rx="7.51" ry="7.51"/>
  <rect class="cls-2" x="18.44" y="4.75" width="38.31" height="8.62"/>
  <rect class="cls-2" x="48.14" y="4.75" width="22.51" height="16.76" rx="7.51" ry="7.51"/>
  <path class="cls-2" d="M70.28,53.12H6.47c0-17.62,14.28-31.91,31.91-31.91s31.91,14.28,31.91,31.91Z"/>
  <path class="cls-2" d="M33.97,17.2h.09c1.17,0,2.11.95,2.11,2.11v8.23c0,1.17-.95,2.11-2.11,2.11h-.09c-1.17,0-2.11-.95-2.11-2.11v-8.23c0-1.17.95-2.11,2.11-2.11Z"/>
  <path class="cls-2" d="M42.59,17.2h.09c1.17,0,2.11.95,2.11,2.11v8.23c0,1.17-.95,2.11-2.11,2.11h-.09c-1.17,0-2.11-.95-2.11-2.11v-8.23c0-1.17.95-2.11,2.11-2.11Z"/>
  <path class="cls-5" d="M53.73,37.17c0,8.22-6.67,14.89-14.89,14.89s-14.89-6.67-14.89-14.89,6.67-14.89,14.89-14.89,14.89,6.67,14.89,14.89Z"/>
  <path class="cls-3" d="M38.85,50.31h0ZM36.93,48.4c0-1.06.86-1.92,1.92-1.92h0c1.06,0,1.92.86,1.92,1.92h0c0,1.06-.86,1.92-1.92,1.92h0c-1.06,0-1.92-.86-1.92-1.92ZM29.56,46.47c-.75-.75-.75-1.96,0-2.71h0c.75-.75,1.96-.75,2.71,0h0c.75.75.75,1.96,0,2.71h0c-.37.37-.87.56-1.36.56h0c-.49,0-.98-.19-1.35-.56ZM45.43,46.46c-.75-.75-.75-1.96,0-2.71h0c.75-.75,1.96-.75,2.71,0h0c.75.75.75,1.96,0,2.71h0c-.37.37-.87.56-1.36.56h0c-.49,0-.98-.19-1.36-.56ZM29.56,46.47h0,0ZM25.7,37.18c0-1.06.86-1.92,1.92-1.92h0c1.06,0,1.92.86,1.92,1.92h0c0,1.06-.86,1.92-1.92,1.92h0c-1.06,0-1.92-.86-1.92-1.92ZM48.16,37.18v-.03h0c0-1.06.85-1.92,1.91-1.92h0c1.06,0,1.92.85,1.92,1.91h0v.02h0c0,1.07-.86,1.93-1.92,1.93h0c-1.06,0-1.91-.85-1.92-1.91ZM29.54,37.18h0s0,0,0,0h0ZM51.99,37.14h0ZM29.54,30.6c-.75-.75-.75-1.96,0-2.71h0c.75-.75,1.96-.75,2.71,0h0c.75.75.75,1.96,0,2.71h0c-.37.38-.87.56-1.36.56h0c-.49,0-.98-.19-1.35-.56ZM45.42,30.57c-.75-.75-.75-1.96,0-2.71h0c.75-.75,1.96-.75,2.71,0h0c.75.75.75,1.96,0,2.71h0c-.37.38-.87.57-1.36.56h0c-.49,0-.98-.19-1.35-.56ZM36.91,25.94c0-1.06.86-1.92,1.92-1.92h0c1.06,0,1.92.86,1.92,1.92h0c0,1.06-.86,1.92-1.91,1.92h0c-1.06,0-1.92-.86-1.92-1.92Z"/>
  <path class="cls-4" d="M45.05,36.91c0,3.43-2.78,6.2-6.2,6.2s-6.2-2.78-6.2-6.2,2.78-6.2,6.2-6.2,6.2,2.78,6.2,6.2Z"/>
  <path class="cls-1" d="M27.88,40.23h-7.85c-1.52,0-2.77-1.25-2.77-2.77h0c0-1.52,1.25-2.77,2.77-2.77h7.85c1.52,0,2.77,1.25,2.77,2.77h0c0,1.52-1.25,2.77-2.77,2.77Z"/>
</svg>