<?xml version="1.0" encoding="UTF-8"?>
<svg id="Layer_1" data-name="Layer 1" xmlns="http://www.w3.org/2000/svg" version="1.1" xmlns:xlink="http://www.w3.org/1999/xlink" viewBox="0 0 151.3 72.97">
  <defs>
    <style>
      .cls-1, .cls-2, .cls-3, .cls-4, .cls-5 {
        stroke-width: 0px;
      }

      .cls-1, .cls-6 {
        fill: #c1bbb4;
      }

      .cls-2 {
        fill: #e8b483;
      }

      .cls-3 {
        fill: #89827d;
      }

      .cls-7 {
        clip-path: url(#clippath);
      }

      .cls-4 {
        fill: #391b0f;
      }

      .cls-5 {
        fill: #3a241b;
      }
    </style>
    <clipPath id="clippath">
      <path class="cls-1" d="M135.96,59.58c1.96-1.3,3.61-2.94,4.57-5.06,1.55-3.4,1.05-7.38-.01-10.97-2.41-8.15-7.5-15.5-8.61-23.93-.16-1.24-.25-2.52-.75-3.67-.5-1.15-1.55-2.16-2.8-2.19-1.24-.03-2.29.87-3.14,1.77-2.1,2.22-3.85,4.76-5.17,7.52-7.42-1.88-15.41-1.46-22.59,1.2-1.3-1.82-2.77-3.53-4.38-5.08-.77-.74-1.62-1.48-2.66-1.74-3-.75-3.06,2.43-3.23,4.48-.3,3.45.11,6.81.13,10.25.05,7.33-3.22,14.53-2.02,21.86,1.84,11.29,15.47,11.78,24.46,11.45,5.58-.21,11.34-.62,16.81-2.07,3.05-.81,6.56-1.96,9.4-3.84Z"/>
    </clipPath>
  </defs>
  <g>
    <path class="cls-2" d="M52.69,10.94c-9.97-2.21-20.31-1.07-28.28,5.75-7.7,6.59-12.23,16.31-14.13,26.27-.6,3.13-.91,6.55.65,9.32,1.62,2.87,5.06,4.42,8.36,4.32,3.29-.1,6.62-2.23,9.17-4.32,1.16,1.11,1.86,1.86,2.87,2.39,5.77,2.98,13.01,2.64,19.13.95,1.99-.55,3.95-1.31,5.68-2.45-.79,7.78,4.55,12.21,11.61,12.29,11.75.13,14.42-12.27,13.16-21.33-1.46-10.52-7.1-20.63-15.5-27.18-4.01-3.13-8.26-5.01-12.72-6Z"/>
    <g>
      <path class="cls-4" d="M56.91,51.66c.29,0,.54-.22.57-.5.63-5.17,1.86-10.6,3.66-14.96.73-1.76,1.55-3.48,2.46-5.16.13-.24-.03-.56-.26-.66-.27-.12-.53.02-.66.26-3.23,5.96-5.34,12.52-6.21,19.24-.04.34-.09.72-.13,1.15-.04.34.23.64.57.64,0,0,0,0,.01,0Z"/>
      <path class="cls-4" d="M28.45,52.28c-2.23-2.34-3.82-5.3-4.53-8.46-.87-3.86-.38-7.9,1.31-11.47.95-2.02,2.28-3.86,3.92-5.39.2-.19.27-.47.1-.71-.15-.2-.51-.28-.71-.1-3.1,2.89-5.18,6.8-5.84,10.99-.63,4.02.13,8.21,2.08,11.78.79,1.45,1.75,2.78,2.88,3.98.29-.18.56-.37.79-.63Z"/>
      <path class="cls-4" d="M36.89,15.63c-3.01,1.5-5.47,3.95-7.01,6.93-.43.84-1.2,2.75-1.47,3.65-.08.26,0,.55.26.66.23.1.58,0,.66-.26,1.15-3.87,4.32-8.24,7.94-10.05.58-.29.2-1.22-.39-.93Z"/>
    </g>
    <g>
      <g>
        <path class="cls-4" d="M38.87,27.42c-.83-2.63-3.57-1.4-3.47.98.15,3.55,4.53,2.36,3.47-.98Z"/>
        <path class="cls-4" d="M49.43,30.16c1.51-2.31,3.82-.38,3.08,1.88-1.11,3.37-5,1.05-3.08-1.88Z"/>
      </g>
      <path class="cls-4" d="M46.46,40.23c-.27-.12-.53.02-.66.26-.82,1.54-2.91,2.05-4.4,1.29,0-.04-.02-.08-.03-.12-.38-.92-.35-1.97.04-2.87.04,0,.07,0,.11.01,1.45.13,3.54.35,4.17-1.36.29-.8,0-1.71-.63-2.25-.29-.24-.6-.4-.93-.48-.23-.15-.52-.23-.87-.2-.84.07-1.62-.36-2.48-.22-.8.13-1.52.59-1.88,1.33-.34.72-.33,1.58.16,2.24.34.45.81.67,1.32.79-.38,1.03-.39,2.17-.02,3.22-.03,0-.07,0-.1,0-.01,0-.02,0-.03,0,0,0,0,0,0,0-.17,0-.34-.03-.51-.07,0,0-.01,0-.02,0-.05-.02-.09-.03-.14-.05-.08-.03-.15-.06-.22-.1,0,0-.05-.03-.07-.04-.02-.01-.06-.04-.07-.04-.07-.05-.14-.11-.21-.17,0,0-.04-.03-.05-.04-.02-.02-.04-.04-.06-.07-.05-.06-.1-.12-.14-.19-.02-.03-.04-.07-.06-.1,0-.01-.01-.02-.01-.02,0,0,0-.02-.01-.03-.03-.07-.07-.14-.1-.21-.03-.07-.05-.13-.07-.2,0-.02-.01-.05-.01-.06,0-.04-.02-.08-.02-.12-.01-.09-.01-.17-.02-.26,0,0,0,0,0-.01,0,0,0,0,0-.02,0-.05,0-.09,0-.14.02-.26-.15-.54-.43-.57-.26-.02-.54.15-.57.43-.08.89.25,1.75.9,2.36.64.6,1.61.85,2.45.66.08-.02.15-.05.22-.1,2,1.04,4.66.15,5.72-1.82.13-.24-.03-.56-.26-.66Z"/>
    </g>
  </g>
  <g>
    <g>
      <path class="cls-6" d="M135.96,59.58c1.96-1.3,3.61-2.94,4.57-5.06,1.55-3.4,1.05-7.38-.01-10.97-2.41-8.15-7.5-15.5-8.61-23.93-.16-1.24-.25-2.52-.75-3.67-.5-1.15-1.55-2.16-2.8-2.19-1.24-.03-2.29.87-3.14,1.77-2.1,2.22-3.85,4.76-5.17,7.52-7.42-1.88-15.41-1.46-22.59,1.2-1.3-1.82-2.77-3.53-4.38-5.08-.77-.74-1.62-1.48-2.66-1.74-3-.75-3.06,2.43-3.23,4.48-.3,3.45.11,6.81.13,10.25.05,7.33-3.22,14.53-2.02,21.86,1.84,11.29,15.47,11.78,24.46,11.45,5.58-.21,11.34-.62,16.81-2.07,3.05-.81,6.56-1.96,9.4-3.84Z"/>
      <g class="cls-7">
        <path class="cls-3" d="M111.5,21.72c-.31-1.76-2.1-2.33-3.38-1.87-1.36-.21-2.94.65-2.8,2.43.2,2.6.4,5.21.67,7.81.2,1.94,1.08,4.26,3.49,4.03,2.61-.25,2.81-2.98,2.77-5-.04-2.49-.31-4.95-.74-7.4Z"/>
        <path class="cls-3" d="M99.2,21.59c-1.01.25-1.9,1.07-1.87,2.39.06,2.51-.34,7.15,2.52,8.33,1.27.52,2.42.01,3.12-1.11,1.71-2.77.69-5.85.64-8.87-.04-2.57-3.45-2.64-4.41-.74Z"/>
        <path class="cls-3" d="M119.94,21.74c-.27-2.05-2.56-2.5-3.84-1.61-1,.25-1.88,1.07-1.84,2.39.05,1.81.08,3.62.16,5.42.07,1.61.59,3.01,2.12,3.74.91.43,2.16.2,2.79-.61,1.01-1.3.96-2.73.95-4.32,0-1.68-.14-3.35-.36-5.01Z"/>
        <path class="cls-3" d="M92.94,42.86c-.33-1.08-1.4-1.47-2.4-1.52-2.38-.1-4.75.69-6.64,2.14-.83.42-1.38,1.44-1.3,2.33.12,1.36,1.26,2.12,2.53,2.13,2.77.03,9.02-1.09,7.81-5.08Z"/>
        <path class="cls-3" d="M141.01,38.1c-.24.04-.48.07-.72.11-2.53-1.31-5.64-.83-7.6,1.41-1.4,1.59.04,3.92,1.99,3.84,2.26-.09,4.5-.32,6.73-.69,2.95-.49,2.57-5.16-.4-4.66Z"/>
        <path class="cls-3" d="M144.6,47.81c-.2-.76-.75-1.43-1.71-1.69-3.41-.9-7.05-.56-10.23.98-1.67.81-2.21,3.47-.19,4.31,3.11,1.29,7.13.35,10.38,0,1.96-.21,2.46-2.29,1.74-3.6Z"/>
        <path class="cls-3" d="M92.18,50.02c-1.48-.37-3-.19-4.49.08-1.42.26-2.86.46-4.03,1.39-.44.28-.71.67-.84,1.09-.04.09-.07.19-.1.29-.33,1.28.49,2.42,1.71,2.76,2.32.65,5.69-.04,7.9-.79,2.57-.87,2.53-4.16-.16-4.82Z"/>
      </g>
    </g>
    <g>
      <g>
        <path class="cls-5" d="M104.5,36.64c-.81.11-1.44.79-1.37,1.63l.13,1.47c.07.78.82,1.48,1.63,1.37.81-.11,1.44-.79,1.37-1.63l-.13-1.47c-.07-.78-.82-1.48-1.63-1.37Z"/>
        <path class="cls-5" d="M118.68,35.41c-.81.11-1.44.79-1.37,1.63l.13,1.47c.07.78.82,1.48,1.63,1.37.81-.11,1.44-.79,1.37-1.63l-.13-1.47c-.07-.78-.82-1.48-1.63-1.37Z"/>
      </g>
      <g>
        <g>
          <path class="cls-5" d="M128.78,38.26c-.1-.28-.38-.36-.64-.3-2.16.52-4.24,1.28-6.22,2.29-.24.12-.4.37-.3.64.09.23.4.42.64.3,1.98-1,4.06-1.77,6.22-2.29.26-.06.38-.41.3-.64Z"/>
          <path class="cls-5" d="M128.49,42.29c-1.81-.44-3.71-.52-5.56-.25-.64.09-.55,1.09.09,1,1.77-.26,3.55-.18,5.29.24.63.15.81-.84.18-.99Z"/>
        </g>
        <g>
          <path class="cls-5" d="M103.79,42.72c-2.48-.75-5.03-1.19-7.61-1.32-.27-.01-.53.11-.58.4-.05.24.13.57.4.58,2.58.13,5.14.58,7.61,1.32.62.19.79-.8.18-.99Z"/>
          <path class="cls-5" d="M102.86,44.2c-1.54.18-3.08.37-4.62.55-.64.08-.56,1.08.09,1,1.54-.18,3.08-.37,4.62-.55.64-.08.56-1.08-.09-1Z"/>
        </g>
      </g>
      <g>
        <path class="cls-5" d="M115.83,47.89c-.35-.05-.47.18-.59.44-.21.43-.67.57-1.09.38-.52-.22-.81-.79-.93-1.31-.11-.46-.11-1.01-.12-1.51,0-.04,0-.08-.02-.12.73-.46,1.29-1.48,1.65-2.24.2-.43.19-.94-.18-1.28-.33-.3-.77-.33-1.19-.28-1.01.12-2.02.26-3.04.39-.38.05-.68.59-.57.95.13.41.35.79.59,1.15.48.7.95,1.24,1.77,1.52.05.02.14,1.03.16,1.16.07.73.07,1.77-.83,1.97-.39.09-.71-.07-1-.32,0,0-.02-.01-.02-.02,0,0,0,0-.01-.02-.03-.03-.05-.07-.08-.1s-.05-.07-.07-.11c0,0,0,0-.01-.02-.03-.09-.07-.17-.09-.27-.07-.25-.41-.39-.64-.3-.27.11-.37.37-.3.64.25.96,1.3,1.66,2.29,1.51.64-.1,1.18-.51,1.49-1.05.09.09.18.18.28.26.48.37,1.1.53,1.7.4.65-.15,1.12-.64,1.28-1.28.06-.25-.15-.55-.4-.58Z"/>
        <g>
          <path class="cls-5" d="M93.92,24.36c-.31-.89-.84-1.8-1.85-1.99-.89-.17-1.65.42-1.97,1.22-.32.82-.32,1.74-.3,2.61.03,1.16.21,2.31.49,3.43.09.35.55.51.86.39.37-.14.48-.51.39-.86-.25-.99-.39-2-.41-3.02-.02-.69-.07-1.65.28-2.23.01-.02.08-.1.11-.14,0,0,.1-.07.04-.04.12-.06.21-.07.34-.02.33.12.51.51.63.82.36.92.58,1.89.7,2.87.11.85,1.44.74,1.33-.12-.12-.99-.34-1.97-.67-2.92Z"/>
          <path class="cls-5" d="M129.37,19.92c-.3-.75-.95-1.28-1.78-1.24-.8.04-1.44.57-1.83,1.23-.46.77-.6,1.74-.82,2.6-.09.35.2.72.54.78.38.07.69-.19.78-.54.19-.74.3-1.58.7-2.23.15-.24.31-.38.55-.46.02,0,.05-.02.07-.02,0,0,.03,0,.07,0,.02,0,.02,0,.04,0,0,0,.03,0,.07,0,.06.02.08.02.07.01.02,0,.05.02.07.03.02.01.05.03.1.08-.02-.01.07.1.08.11.04.07.04.06.08.18.05.14.08.25.1.33.08.42.11.85.12,1.27.01.82-.13,1.64-.37,2.42-.11.35.21.72.54.78.39.07.67-.19.78-.54.24-.8.36-1.62.38-2.45.02-.76-.03-1.61-.31-2.32Z"/>
        </g>
      </g>
    </g>
  </g>
</svg>