<?xml version="1.0" encoding="UTF-8"?>
<svg id="Layer_2" data-name="Layer 2" xmlns="http://www.w3.org/2000/svg" viewBox="0 0 121.62 121.74">
  <defs>
    <style>
      .cls-1 {
        fill: #7ae25d;
        stroke-width: 0px;
      }
    </style>
  </defs>
  <g id="Layer_1-2" data-name="Layer 1">
    <path class="cls-1" d="M121.61,11.78c.09-3.29-1.28-6.48-3.74-8.73-2.49-2.27-5.82-3.36-9.14-2.97-28.69,3.32-41.88,22.5-47.92,38.4C54.76,22.57,41.57,3.4,12.88.08c-3.3-.39-6.65.7-9.14,2.97C1.28,5.31-.08,8.49,0,11.78c.44,16.59,5.86,29.76,16.12,39.16,13.22,12.11,30.85,14.52,39.61,14.93v50.79c0,2.8,2.27,5.07,5.07,5.07s5.07-2.27,5.07-5.07v-50.79c8.76-.41,26.39-2.82,39.61-14.93,10.26-9.4,15.68-22.57,16.12-39.16h-.01Z"/>
  </g>
</svg>