<?xml version="1.0" encoding="UTF-8"?>
<svg id="Layer_1" data-name="Layer 1" xmlns="http://www.w3.org/2000/svg" version="1.1" viewBox="0 0 109.27 75.05">
  <defs>
    <style>
      .cls-1 {
        fill: #97bc31;
      }

      .cls-1, .cls-2, .cls-3, .cls-4 {
        stroke-width: 0px;
      }

      .cls-2 {
        fill: #9e7430;
      }

      .cls-3 {
        fill: #7b961a;
      }

      .cls-4 {
        fill: #845c21;
      }
    </style>
  </defs>
  <rect class="cls-4" x="48.59" y="61.15" width="5.21" height="5.16"/>
  <path class="cls-3" d="M89.62,40.33c-3.87,0-7.4-2-9.42-4.83v-.33h0v-12.82c2.02-3,5.55-4.83,9.42-4.83,6.39,0,11.6,5.16,11.6,11.49s-5.21,11.32-11.6,11.32Z"/>
  <path class="cls-1" d="M71.8,42.33c-4.71,0-8.41-3.66-8.41-8.32V14.36c0-4.66,3.7-8.32,8.41-8.32,2.35,0,4.37,1,5.89,2.5,1.51,1.5,2.52,3.66,2.52,5.83v20.64c-.67,4.16-4.2,7.33-8.41,7.33Z"/>
  <polygon class="cls-2" points="60.2 51.82 60.2 61.15 53.81 61.15 48.59 61.15 19.17 61.15 13.96 61.15 7.57 61.15 7.57 51.82 12.95 51.82 54.98 51.82 60.2 51.82"/>
  <rect class="cls-4" x="12.95" y="39.34" width="42.04" height="6.33"/>
  <rect class="cls-2" x="12.95" y="33.01" width="42.04" height="6.33"/>
  <rect class="cls-4" x="13.96" y="61.15" width="5.21" height="5.16"/>
  <path class="cls-2" d="M12.95,52.82c-.5,0-1.01-.5-1.01-1v-21.98c0-.5.5-1,1.01-1s1.01.5,1.01,1v21.81c0,.67-.51,1.17-1.01,1.17Z"/>
  <path class="cls-2" d="M54.98,52.82c-.5,0-1.01-.5-1.01-1v-21.98c0-.5.5-1,1.01-1s1.01.5,1.01,1v21.81c0,.67-.51,1.17-1.01,1.17Z"/>
  <path class="cls-4" d="M75.33,25.85c-.5-.33-1.18-.17-1.51.33l-1.18,2v-10.82c0-.5-.5-1-1.01-1s-1.01.5-1.01,1v6.16l-2.35-3c-.34-.5-1.01-.5-1.51-.17-.51.33-.51,1-.17,1.5l4.04,5.33v3.83l-1.34-1.66c-.34-.5-1.01-.5-1.51-.17-.5.33-.5,1-.17,1.5l3.03,3.83v31.97c0,.5.5,1,1.01,1s1.01-.5,1.01-1v-34.13l3.03-4.99c.33-.5.17-1.17-.34-1.5Z"/>
  <path class="cls-4" d="M93.32,30.18c-.5-.33-1.18-.33-1.51.17l-1.35,1.66v-3.16c0-.5-.5-1-1.01-1s-1.01.5-1.01,1v5.16l-1.34-1.66c-.34-.5-1.01-.5-1.51-.17-.5.33-.5,1-.17,1.5l3.03,3.83v28.81c0,.5.51,1,1.01,1s1.01-.5,1.01-1v-30.8l3.03-3.83c.5-.5.34-1.16-.17-1.5Z"/>
  <path class="cls-1" d="M78.86,62.65c-.51,0-1.01.17-1.35.17-.17-2.33-2.19-4.33-4.71-4.33-.34,0-.67.17-1.01.17v.17c-2.19.33-3.7,2.33-3.7,4.66v.17c-.5-.5-1.18-.83-2.02-.83-1.51,0-2.69,1.17-2.69,2.66s1.18,2.66,2.69,2.66h5.72v-.17h7.06c1.51,0,2.69-1.17,2.69-2.66s-1.18-2.66-2.69-2.66Z"/>
</svg>