<?xml version="1.0" encoding="UTF-8"?>
<svg id="Layer_2" data-name="Layer 2" xmlns="http://www.w3.org/2000/svg" viewBox="0 0 149.56 149.56">
  <defs>
    <style>
      .cls-1 {
        fill: #ff6c6c;
        stroke-width: 0px;
      }
    </style>
  </defs>
  <g id="Layer_1-2" data-name="Layer 1">
    <g>
      <path class="cls-1" d="M106.07,149.56c-9.7,0-21.18-3.26-33.21-9.44-12.54-6.44-25.12-15.79-36.37-27.04-14.92-14.92-26.36-32.03-32.23-48.18-5.63-15.49-5.68-28.7-.15-37.21,1.14-1.75,2.74-3.2,4.65-4.21l12.45-6.55c.55-.29,1.14-.44,1.76-.44,1.14,0,2.2.5,2.93,1.38l19.37,23.41c1.25,1.52,1.15,3.71-.24,5.1l-7.47,7.47c-2.45,2.45-3.11,6.2-1.64,9.33,2.56,5.48,8.74,16.55,21.34,29.14,12.6,12.59,23.67,18.78,29.14,21.34,1.1.52,2.28.78,3.49.78,2.2,0,4.28-.86,5.84-2.42l7.47-7.47c.72-.72,1.67-1.11,2.68-1.11.89,0,1.73.3,2.42.87l23.41,19.37c1.37,1.14,1.77,3.11.94,4.69l-6.55,12.45c-1,1.9-2.46,3.51-4.21,4.65-4.18,2.72-9.5,4.1-15.81,4.1Z"/>
      <g>
        <path class="cls-1" d="M146.68,74.55c-1.59,0-2.87-1.29-2.87-2.87,0-8.9-1.74-17.54-5.18-25.66-3.32-7.85-8.07-14.9-14.13-20.96-6.06-6.06-13.11-10.81-20.96-14.13-8.13-3.44-16.76-5.18-25.66-5.18-1.59,0-2.87-1.29-2.87-2.87s1.29-2.87,2.87-2.87c9.67,0,19.06,1.9,27.9,5.63,8.54,3.61,16.2,8.78,22.78,15.36,6.58,6.58,11.75,14.25,15.36,22.78,3.74,8.84,5.63,18.23,5.63,27.9,0,1.59-1.29,2.87-2.87,2.87Z"/>
        <path class="cls-1" d="M124.3,74.55c-1.59,0-2.87-1.29-2.87-2.87,0-11.63-4.53-22.57-12.75-30.79-8.22-8.22-19.16-12.75-30.79-12.75-1.59,0-2.87-1.29-2.87-2.87s1.29-2.87,2.87-2.87c13.17,0,25.54,5.13,34.85,14.44,9.31,9.31,14.44,21.69,14.44,34.85,0,1.59-1.29,2.87-2.87,2.87Z"/>
        <path class="cls-1" d="M101.92,74.55c-1.59,0-2.87-1.29-2.87-2.87,0-11.67-9.49-21.16-21.16-21.16-1.59,0-2.87-1.29-2.87-2.87s1.29-2.87,2.87-2.87c14.84,0,26.91,12.07,26.91,26.91,0,1.59-1.29,2.87-2.87,2.87Z"/>
      </g>
    </g>
  </g>
</svg>