<svg xmlns="http://www.w3.org/2000/svg" width="181" height="40.533" viewBox="0 0 181 40.533">
  <g id="logo_w" transform="translate(-9.5 -10.993)">
    <g id="그룹_1" data-name="그룹 1" transform="translate(9.5 10.993)">
      <path id="패스_1" data-name="패스 1" d="M32.474,51.522a1.66,1.66,0,0,1-.71-.16c-4.525-2.134-8.1-5.982-8.893-9.57a6.07,6.07,0,0,1,1.22-5.382c2.634-3.161,4.7-2.724,6.886-2.261A15.07,15.07,0,0,0,35,34.573c2.924-.113,4.281-3.535,4.782-5.265l-4.862-3.471a1.663,1.663,0,0,1-.69-1.5c.017-.227.343-5.879-6.622-8.84-3.174-1.347-6.025-1.531-8.473-.54A10.816,10.816,0,0,0,13.5,21c-1.37,3.244-.56,8.266,1.667,10.334a3.1,3.1,0,0,0,3.871.327c5.392-2.778,1.924-12.061,1.887-12.154a1.666,1.666,0,0,1,3.111-1.194c.19.494,4.572,12.171-3.475,16.316a6.423,6.423,0,0,1-7.666-.844C9.67,30.8,8.516,24.22,10.423,19.711a14.1,14.1,0,0,1,7.459-7.843c3.3-1.334,7.009-1.144,11.027.564a16.7,16.7,0,0,1,4.021,2.377c3.078-2.571,10.177-5.982,16.382-1.471,6.876,5,7.963,13.168,2.841,21.317-4.682,7.446-18.2,16.232-18.777,16.6a1.67,1.67,0,0,1-.9.267ZM28.723,37.167c-.734,0-1.2.337-2.074,1.377a2.775,2.775,0,0,0-.527,2.528c.52,2.351,3.081,5.132,6.239,6.856,2.948-1.984,13.291-9.2,16.969-15.052,4.161-6.622,3.421-12.918-1.981-16.849-5.105-3.711-10.7.11-12.108,1.2a12.025,12.025,0,0,1,2.307,6.4l5.082,3.631a1.674,1.674,0,0,1,.677,1.631c-.06.357-1.537,8.77-8.183,9.023a18.513,18.513,0,0,1-4.845-.494,8.175,8.175,0,0,0-1.561-.243Z" transform="translate(-9.5 -10.993)" fill="#fff"/>
      <circle id="타원_1" data-name="타원 1" cx="1.754" cy="1.754" r="1.754" transform="translate(18.03 12.49)" fill="#fff"/>
    </g>
    <g id="그룹_2" data-name="그룹 2" transform="translate(60.301 13.533)">
      <path id="패스_2" data-name="패스 2" d="M179.226,23.518a.7.7,0,0,1-.777.777c-2.327-.127-4.482-.277-6.509-.277-3.831,0-4.882.227-4.882,1.1s.8,1.1,4.231,1.1c1.654,0,4.555-.15,7.359-.45.477-.05.727.2.777.777l.127,1.527c.05.477-.2.727-.777.777-1.754.15-3.631.327-5.282.4v.627c0,.477.3.75.9.777,1.227.05,4.3-.05,6.259-.2a.7.7,0,0,1,.85.75v1.477c0,.45-.25.75-.827.8-1.551.15-5.105.2-9.013.2-3.5,0-6.809-.027-8.986-.2-.577-.05-.827-.327-.827-.8V31.2a.678.678,0,0,1,.827-.75c1.877.15,5.032.2,7.736.227a.912.912,0,0,1-.55-.877v-.55c-4.682-.2-6.432-1.377-6.432-4.131,0-3.078,2.3-4.181,8.586-4.181,1.827,0,3.7.027,6.432.277.55.05.777.277.777.777v1.527Zm1.2,15.345c0,3.1-2.478,4.355-8.56,4.355s-8.563-1.25-8.563-4.355,2.478-4.355,8.563-4.355S180.43,35.759,180.43,38.863Zm-8.563,1.35c3.955,0,4.932-.277,4.932-1.35s-.977-1.35-4.932-1.35-4.932.277-4.932,1.35S167.912,40.213,171.867,40.213Z" transform="translate(-161.85 -20.163)" fill="#fff"/>
      <path id="패스_3" data-name="패스 3" d="M234.005,39.97c0,.55.777.6,5.709.6a47.918,47.918,0,0,0,6.832-.45.535.535,0,0,1,.7.527l.127,1.451a.6.6,0,0,1-.577.65,62.831,62.831,0,0,1-7.059.45c-7.236,0-9.363-.627-9.363-3.278s2.454-3.254,7.909-3.254c1.377,0,2.954-.027,4.055-.027.65,0,.927-.15.927-.5,0-.377-.25-.527-.877-.527-2.378,0-7.91.177-10.864.427a.556.556,0,0,1-.65-.6V33.988c0-.377.2-.577.65-.6,1.551-.1,3.328-.2,5.158-.277v-.327a.8.8,0,0,1,.45-.75c-2.954.027-5.659-.023-7.686-.177-.577-.05-.777-.277-.777-.75V29.78c0-.527.25-.75.777-.7,2.154.177,5.509.2,9.013.2,3.9,0,7.509-.05,9.063-.2.527-.05.8.177.8.7v1.327c0,.45-.2.7-.777.75-1.227.127-4.155.2-6.459.2-.55,0-.777.227-.777.65v.327c1.427,0,2.8,0,4.055.05,1.6.05,2.5.627,2.5,1.827a1.991,1.991,0,0,1-1.451,1.977h.6a.587.587,0,0,1,.65.577v1.3a.592.592,0,0,1-.65.6c-1.827,0-3.1-.077-7.686-.077-3.681,0-4.332.15-4.332.677Zm12.164-14.192a.6.6,0,0,1,.677.677v1.277a.609.609,0,0,1-.677.677H233.552c-1.854,0-2.8-.827-2.8-2.428V22.227A1.122,1.122,0,0,1,232,20.95h11.917c1.751,0,2.628.727,2.628,2.227a2.871,2.871,0,0,1-1.9,2.6h1.527Zm-3.3-1.277c0-.527-.277-.8-.877-.8h-7.009c-.427,0-.6.177-.6.6v.55c0,.527.327.8.95.8h6.182a1.25,1.25,0,0,0,1.351-1.15Z" transform="translate(-206.389 -20.17)" fill="#fff"/>
      <path id="패스_4" data-name="패스 4" d="M295.483,41.186V39.332a.678.678,0,0,1,.827-.75c1.877.177,5.155.377,7.959.45a1.4,1.4,0,0,1-.777-1.327V35.751h-2.528c-2.054,0-3.278-1.1-3.355-2.954l-.377-8.736a.732.732,0,0,1,.827-.8h1.977c.577,0,.827.2.85.727l.077,2.154h8.663l.077-2.154c.027-.5.277-.727.85-.727h1.977c.55,0,.85.3.827.8l-.377,8.736c-.077,1.854-1.3,2.954-3.354,2.954h-2.5v2.154c0,1.05.777,1.05,1.577,1.05a51.4,51.4,0,0,0,5.582-.377.686.686,0,0,1,.85.75v1.854c0,.45-.25.7-.827.8a67.381,67.381,0,0,1-9.013.427,73.56,73.56,0,0,1-8.986-.427c-.577-.077-.827-.327-.827-.8Zm5.709-9.64c.023.577.3.827.927.827h6.359c.627,0,.9-.25.927-.827l.077-2.027h-8.36l.077,2.027Z" transform="translate(-250.921 -21.709)" fill="#fff"/>
      <path id="패스_5" data-name="패스 5" d="M380.243,29.224c0,2.728-1.527,4.055-6.309,4.281v1.427c0,.65.25.9.95.927a50.117,50.117,0,0,0,6.209-.377.686.686,0,0,1,.85.75v1.854c0,.45-.25.7-.827.8a67.381,67.381,0,0,1-9.013.427,73.558,73.558,0,0,1-8.986-.427c-.577-.077-.827-.327-.827-.8V36.233a.678.678,0,0,1,.827-.75c1.877.177,4.932.4,7.709.45a1.063,1.063,0,0,1-.527-1.05v-1.4c-4.5-.277-5.932-1.577-5.932-4.255,0-2.954,1.854-4.231,7.936-4.231s7.936,1.277,7.936,4.231ZM371.38,18.61h2.077a.68.68,0,0,1,.777.777v.727c0,.327.227.55.677.55h5.232a.7.7,0,0,1,.777.777v1.651a.7.7,0,0,1-.777.777H364.471a.7.7,0,0,1-.777-.777V21.441a.7.7,0,0,1,.777-.777h6.509a.768.768,0,0,1-.377-.727v-.55A.68.68,0,0,1,371.38,18.61Zm5.285,10.614c0-.8-.4-1.227-4.355-1.227s-4.355.427-4.355,1.227c0,.877.4,1.3,4.355,1.3S376.665,30.1,376.665,29.224Z" transform="translate(-295.453 -18.61)" fill="#fff"/>
      <path id="패스_6" data-name="패스 6" d="M437,28.42c.527,0,.777.25.777.727v1.877c0,.477-.227.777-.727.777a4.779,4.779,0,0,1-4.455-3.3,5.093,5.093,0,0,1-4.732,3.3.712.712,0,0,1-.777-.777V29.147c0-.477.277-.727.827-.727,1.877,0,2.954-1.551,2.954-3.355V20.634a.68.68,0,0,1,.777-.777H433.5c.527,0,.777.25.777.9v4.3c0,1.877.927,3.355,2.728,3.355Zm-6.509,8.71a16.723,16.723,0,0,1,.15-2.428c.077-.527.3-.827.827-.827h1.977c.527,0,.9.3.827.827a12.88,12.88,0,0,0-.15,1.877c0,1.427.927,2.127,2.828,2.127,3.631,0,7.736-.2,10.39-.45.5-.05.75.277.777.777l.127,1.827c.027.5-.277.727-.777.777a107.759,107.759,0,0,1-10.964.45c-3.831,0-6.009-1.8-6.009-4.955Zm8.286-10.837H437.1a.7.7,0,0,1-.777-.777V23.688a.7.7,0,0,1,.777-.777h1.727c.5,0,.777-.25.777-.727V20.307a.68.68,0,0,1,.777-.777h1.827a.68.68,0,0,1,.777.777V34.175a.68.68,0,0,1-.777.777h-1.827a.68.68,0,0,1-.777-.777v-8.26A1.039,1.039,0,0,1,438.781,26.292Zm6.232-7.009h1.827a.68.68,0,0,1,.777.777V34.179a.68.68,0,0,1-.777.777h-1.827a.68.68,0,0,1-.777-.777V20.057a.68.68,0,0,1,.777-.777Z" transform="translate(-338.646 -19.057)" fill="#fff"/>
      <path id="패스_7" data-name="패스 7" d="M505.269,35.179a11.263,11.263,0,0,0,3.7-.777,1.258,1.258,0,0,1,.4-.077.666.666,0,0,1,.677.55l.477,1.7c.15.527,0,.8-.527,1.027a13.517,13.517,0,0,1-5.082.95c-4.131,0-6.659-2.478-6.659-6.382,0-4.255,2.4-6.432,6.932-6.432a23.913,23.913,0,0,1,3.278.2c.527.077.7.377.7.877V28.67a.638.638,0,0,1-.827.7,19.085,19.085,0,0,0-2.754-.227c-2.528,0-3.7.977-3.7,3.078,0,1.8,1.227,2.954,3.378,2.954Zm4.6-13.495v1.727a.752.752,0,0,1-.827.827H499.36a.752.752,0,0,1-.827-.827V21.684a.752.752,0,0,1,.827-.827h9.687A.752.752,0,0,1,509.874,21.684Zm3.6-2.4h1.977a.752.752,0,0,1,.827.827V40.888a.752.752,0,0,1-.827.827h-1.977a.752.752,0,0,1-.827-.827V32.5a1.687,1.687,0,0,1-1.5.7h-.877a.7.7,0,0,1-.777-.777V30.471a.7.7,0,0,1,.777-.777h.977a1.282,1.282,0,0,0,1.4-1.327v-8.26a.752.752,0,0,1,.827-.827Z" transform="translate(-386.084 -19.057)" fill="#fff"/>
    </g>
    <g id="그룹_3" data-name="그룹 3" transform="translate(62.131 40.172)">
      <path id="패스_8" data-name="패스 8" d="M172.311,104.8h-3.284l-.484,1.427c-.05.147-.117.237-.277.237h-.717c-.157,0-.247-.09-.2-.237l2.468-7.119a.356.356,0,0,1,.383-.277h.924a.356.356,0,0,1,.383.277l2.468,7.119c.05.147-.04.237-.2.237h-.717c-.157,0-.227-.09-.277-.237L172.3,104.8Zm-.373-1.08L170.67,99.99l-1.27,3.728Z" transform="translate(-167.338 -98.72)" fill="#fff"/>
      <path id="패스_9" data-name="패스 9" d="M192.071,105.034c-.827,0-1.357.454-1.357,1.16v3.411a.241.241,0,0,1-.257.267h-.62a.241.241,0,0,1-.257-.267v-5.292a.241.241,0,0,1,.257-.267h.62a.241.241,0,0,1,.257.267v.343a2.407,2.407,0,0,1,1.671-.707,1.977,1.977,0,0,1,2.114,2.194v3.461a.241.241,0,0,1-.257.267h-.62a.241.241,0,0,1-.257-.267v-3.274a1.14,1.14,0,0,0-1.3-1.3Z" transform="translate(-182.164 -102.133)" fill="#fff"/>
      <path id="패스_10" data-name="패스 10" d="M208.17,99.087a.241.241,0,0,1,.257-.267h.62a.243.243,0,0,1,.257.267v.884a.241.241,0,0,1-.257.267h-.62a.241.241,0,0,1-.257-.267Zm0,1.911a.241.241,0,0,1,.257-.267h.62a.241.241,0,0,1,.257.267v5.192a.241.241,0,0,1-.257.267h-.62a.241.241,0,0,1-.257-.267Z" transform="translate(-194.555 -98.713)" fill="#fff"/>
      <path id="패스_11" data-name="패스 11" d="M218.174,103.96a1.546,1.546,0,0,1,1.427.757,1.849,1.849,0,0,1,1.544-.757,1.6,1.6,0,0,1,1.661,1.791v3.865a.241.241,0,0,1-.257.267h-.62a.241.241,0,0,1-.257-.267v-3.668a.81.81,0,0,0-.914-.924c-.61,0-.954.333-.954.837v3.758a.241.241,0,0,1-.257.267h-.62a.241.241,0,0,1-.257-.267v-3.668a.81.81,0,0,0-.914-.924c-.61,0-.954.333-.954.837v3.758a.241.241,0,0,1-.257.267h-.62a.241.241,0,0,1-.257-.267V104.33a.241.241,0,0,1,.257-.267h.62a.241.241,0,0,1,.257.267v.237a1.856,1.856,0,0,1,1.367-.6Z" transform="translate(-199.554 -102.139)" fill="#fff"/>
      <path id="패스_12" data-name="패스 12" d="M244.095,109.319a3.858,3.858,0,0,1-2.047.64c-1.25,0-2.037-.67-2.037-1.751,0-1.464,1.044-2,4.081-2.064v-.177c0-.67-.463-1.054-1.267-1.054-.67,0-1.12.257-1.22.727-.03.127-.107.177-.277.177h-.737c-.157,0-.257-.09-.237-.227.147-1.054,1.044-1.661,2.5-1.661,1.574,0,2.371.707,2.371,2.114V109.6a.241.241,0,0,1-.257.267h-.62a.241.241,0,0,1-.257-.267v-.277Zm.02-2.184c-2.164.05-2.991.333-2.991,1.07,0,.463.443.747,1.15.747a4.046,4.046,0,0,0,1.841-.53Z" transform="translate(-215.778 -102.119)" fill="#fff"/>
      <path id="패스_13" data-name="패스 13" d="M259.46,99.087a.241.241,0,0,1,.257-.267h.62a.243.243,0,0,1,.257.267v7.1a.241.241,0,0,1-.257.267h-.62a.241.241,0,0,1-.257-.267Z" transform="translate(-228.742 -98.713)" fill="#fff"/>
      <path id="패스_14" data-name="패스 14" d="M276.354,104.025v2.164a.241.241,0,0,1-.257.267h-.62a.241.241,0,0,1-.257-.267V99.284a.413.413,0,0,1,.454-.463h2.871a2.606,2.606,0,0,1,0,5.205H276.35Zm0-4.121v3.038h2.134c.924,0,1.407-.53,1.407-1.514s-.483-1.524-1.407-1.524Z" transform="translate(-239.247 -98.713)" fill="#fff"/>
      <path id="패스_15" data-name="패스 15" d="M297.834,105.014c-.707,0-1.12.343-1.12.924v3.668a.241.241,0,0,1-.257.267h-.62a.241.241,0,0,1-.257-.267v-5.292a.241.241,0,0,1,.257-.267h.62a.241.241,0,0,1,.257.267v.187a1.969,1.969,0,0,1,1.437-.55,2.386,2.386,0,0,1,.817.147.243.243,0,0,1,.147.323l-.147.56a.209.209,0,0,1-.293.157,3.316,3.316,0,0,0-.837-.127Z" transform="translate(-252.818 -102.133)" fill="#fff"/>
      <path id="패스_16" data-name="패스 16" d="M309.784,103.96c1.661,0,2.694,1.024,2.694,3.011s-1.034,3.011-2.694,3.011-2.694-1.024-2.694-3.011S308.124,103.96,309.784,103.96Zm0,4.975c1.09,0,1.584-.64,1.584-1.967s-.49-1.967-1.584-1.967-1.584.64-1.584,1.967S308.694,108.935,309.784,108.935Z" transform="translate(-260.49 -102.139)" fill="#fff"/>
      <path id="패스_17" data-name="패스 17" d="M327.011,100.694V98.8a.241.241,0,0,1,.257-.267h.62a.241.241,0,0,1,.257.267v1.9h1.741a.216.216,0,0,1,.247.247v.59a.216.216,0,0,1-.247.247h-1.741v2.754c0,.413.277.65.767.65a5.657,5.657,0,0,0,.767-.04c.157-.03.257.05.257.187v.59a.252.252,0,0,1-.227.267,4.746,4.746,0,0,1-.994.08,1.489,1.489,0,0,1-1.7-1.564v-2.921h-1.457a.216.216,0,0,1-.247-.247v-.59a.216.216,0,0,1,.247-.247h1.457Z" transform="translate(-272.634 -98.52)" fill="#fff"/>
      <path id="패스_18" data-name="패스 18" d="M344.584,109.982c-1.821,0-2.764-1.034-2.764-3.011s.924-3.021,2.674-3.021,2.628,1.054,2.628,2.9a.592.592,0,0,1-.63.67H342.98a1.43,1.43,0,0,0,1.661,1.417,1.371,1.371,0,0,0,1.337-.65c.05-.107.127-.147.277-.147h.62c.167,0,.247.08.217.227C346.885,109.382,345.941,109.982,344.584,109.982Zm1.4-3.441c-.03-1.07-.49-1.554-1.464-1.554s-1.457.474-1.544,1.554h3.011Z" transform="translate(-283.639 -102.133)" fill="#fff"/>
      <path id="패스_19" data-name="패스 19" d="M363.534,109.982c-1.771,0-2.714-1.044-2.714-3.011s.924-3.021,2.628-3.021a2.174,2.174,0,0,1,2.448,1.781.2.2,0,0,1-.177.257l-.63.117c-.157.03-.237-.01-.287-.147a1.243,1.243,0,0,0-1.327-.914c-1.08,0-1.534.56-1.534,1.917s.443,1.927,1.634,1.927a1.276,1.276,0,0,0,1.377-1.044c.04-.127.117-.177.287-.147l.63.1c.147.02.2.1.167.257a2.315,2.315,0,0,1-2.5,1.927Z" transform="translate(-296.304 -102.133)" fill="#fff"/>
      <path id="패스_20" data-name="패스 20" d="M380.041,100.694V98.8a.241.241,0,0,1,.257-.267h.62a.241.241,0,0,1,.257.267v1.9h1.741a.216.216,0,0,1,.247.247v.59a.216.216,0,0,1-.247.247h-1.741v2.754c0,.413.277.65.767.65a5.654,5.654,0,0,0,.767-.04c.157-.03.257.05.257.187v.59a.252.252,0,0,1-.227.267,4.746,4.746,0,0,1-.994.08,1.489,1.489,0,0,1-1.7-1.564v-2.921h-1.457a.216.216,0,0,1-.247-.247v-.59a.216.216,0,0,1,.247-.247h1.457Z" transform="translate(-307.982 -98.52)" fill="#fff"/>
      <path id="패스_21" data-name="패스 21" d="M396.32,99.087a.241.241,0,0,1,.257-.267h.62a.243.243,0,0,1,.257.267v.884a.241.241,0,0,1-.257.267h-.62a.241.241,0,0,1-.257-.267Zm0,1.911a.241.241,0,0,1,.257-.267h.62a.241.241,0,0,1,.257.267v5.192a.241.241,0,0,1-.257.267h-.62a.241.241,0,0,1-.257-.267Z" transform="translate(-319.966 -98.713)" fill="#fff"/>
      <path id="패스_22" data-name="패스 22" d="M406.244,103.96c1.661,0,2.694,1.024,2.694,3.011s-1.034,3.011-2.694,3.011-2.694-1.024-2.694-3.011S404.584,103.96,406.244,103.96Zm0,4.975c1.09,0,1.584-.64,1.584-1.967s-.49-1.967-1.584-1.967-1.584.64-1.584,1.967S405.154,108.935,406.244,108.935Z" transform="translate(-324.785 -102.139)" fill="#fff"/>
      <path id="패스_23" data-name="패스 23" d="M425.431,105.034c-.827,0-1.357.454-1.357,1.16v3.411a.241.241,0,0,1-.257.267h-.62a.241.241,0,0,1-.257-.267v-5.292a.241.241,0,0,1,.257-.267h.62a.241.241,0,0,1,.257.267v.343a2.406,2.406,0,0,1,1.671-.707,1.977,1.977,0,0,1,2.114,2.194v3.461a.241.241,0,0,1-.257.267h-.62a.241.241,0,0,1-.257-.267v-3.274a1.139,1.139,0,0,0-1.3-1.3Z" transform="translate(-337.71 -102.133)" fill="#fff"/>
      <path id="패스_24" data-name="패스 24" d="M452.215,106.349c-2.2,0-3.315-1.317-3.315-3.925S450,98.5,452.164,98.5a2.747,2.747,0,0,1,2.881,2.144c.03.137-.02.217-.187.257l-.64.157a.209.209,0,0,1-.287-.157,1.633,1.633,0,0,0-1.751-1.307c-1.474,0-2.154.894-2.154,2.831s.687,2.831,2.214,2.831a1.834,1.834,0,0,0,1.841-1.524c.04-.137.127-.177.3-.137l.64.157c.157.04.217.117.177.267A2.836,2.836,0,0,1,452.215,106.349Z" transform="translate(-355.013 -98.5)" fill="#fff"/>
      <path id="패스_25" data-name="패스 25" d="M472.544,109.982c-1.821,0-2.764-1.034-2.764-3.011s.924-3.021,2.674-3.021,2.628,1.054,2.628,2.9a.592.592,0,0,1-.63.67H470.94a1.43,1.43,0,0,0,1.66,1.417,1.371,1.371,0,0,0,1.337-.65c.05-.107.127-.147.277-.147h.62c.167,0,.247.08.217.227C474.845,109.382,473.9,109.982,472.544,109.982Zm1.4-3.441c-.03-1.07-.49-1.554-1.464-1.554s-1.457.474-1.544,1.554h3.011Z" transform="translate(-368.931 -102.133)" fill="#fff"/>
      <path id="패스_26" data-name="패스 26" d="M491.551,105.034c-.827,0-1.357.454-1.357,1.16v3.411a.241.241,0,0,1-.257.267h-.62a.241.241,0,0,1-.257-.267v-5.292a.241.241,0,0,1,.257-.267h.62a.241.241,0,0,1,.257.267v.343a2.407,2.407,0,0,1,1.671-.707,1.977,1.977,0,0,1,2.114,2.194v3.461a.243.243,0,0,1-.257.267h-.62a.241.241,0,0,1-.257-.267v-3.274a1.14,1.14,0,0,0-1.3-1.3Z" transform="translate(-381.782 -102.133)" fill="#fff"/>
      <path id="패스_27" data-name="패스 27" d="M507.581,100.694V98.8a.241.241,0,0,1,.257-.267h.62a.241.241,0,0,1,.257.267v1.9h1.741a.216.216,0,0,1,.247.247v.59a.216.216,0,0,1-.247.247h-1.741v2.754c0,.413.277.65.767.65a5.655,5.655,0,0,0,.767-.04c.157-.03.257.05.257.187v.59a.252.252,0,0,1-.227.267,4.745,4.745,0,0,1-.994.08,1.488,1.488,0,0,1-1.7-1.564v-2.921h-1.457a.216.216,0,0,1-.247-.247v-.59a.216.216,0,0,1,.247-.247h1.457Z" transform="translate(-392.993 -98.52)" fill="#fff"/>
      <path id="패스_28" data-name="패스 28" d="M525.154,109.982c-1.821,0-2.764-1.034-2.764-3.011s.924-3.021,2.674-3.021,2.627,1.054,2.627,2.9a.592.592,0,0,1-.63.67H523.55a1.43,1.43,0,0,0,1.66,1.417,1.371,1.371,0,0,0,1.337-.65c.05-.107.127-.147.277-.147h.62c.167,0,.247.08.217.227C527.455,109.382,526.511,109.982,525.154,109.982Zm1.4-3.441c-.03-1.07-.49-1.554-1.464-1.554s-1.457.474-1.544,1.554h3.011Z" transform="translate(-403.998 -102.133)" fill="#fff"/>
      <path id="패스_29" data-name="패스 29" d="M543.924,105.014c-.707,0-1.12.343-1.12.924v3.668a.241.241,0,0,1-.257.267h-.62a.241.241,0,0,1-.257-.267v-5.292a.241.241,0,0,1,.257-.267h.62a.241.241,0,0,1,.257.267v.187a1.968,1.968,0,0,1,1.437-.55,2.387,2.387,0,0,1,.817.147.243.243,0,0,1,.147.323l-.147.56c-.04.147-.137.2-.294.157a3.338,3.338,0,0,0-.837-.127Z" transform="translate(-416.849 -102.133)" fill="#fff"/>
    </g>
  </g>
</svg>
