<?xml version="1.0" encoding="UTF-8"?>
<svg id="Layer_1" data-name="Layer 1" xmlns="http://www.w3.org/2000/svg" version="1.1" viewBox="0 0 632.2 629.56">
  <defs>
    <style>
      .cls-1 {
        fill: #fff;
        stroke-width: 0px;
      }
    </style>
  </defs>
  <g>
    <path class="cls-1" d="M536.73,433.79c-7.75,14.4-15.06,19.38-22.62,15.31-7.56-4.07-7.49-12.94.26-27.34,7.75-14.4,15.12-19.34,22.68-15.28,7.56,4.07,7.43,12.91-.33,27.31ZM521.09,425.37c-5.26,9.77-6.13,14.52-2.94,16.24,3.19,1.72,6.54-1.52,11.87-11.43s6.2-14.48,3.01-16.2c-3.19-1.72-6.67,1.62-11.93,11.39ZM564.07,450.45c6.24-11.6,7.22-15.44,4.29-17.02-3.13-1.68-5.48.66-11.13,11.15-2.81,5.21-5.72,11.72-8.12,17.9-.43,1.11-1.27,1.42-2.48.85l-3.72-1.67c-1.01-.46-1.25-1.26-.79-2.44,2.44-6.25,4.5-11.02,6.47-14.84l-2.54-1.37c-1.04-.56-1.84-.32-2.51.75-2.93,4.98-6.78,12.74-8.88,17.75-.47,1.18-1.4,1.51-2.51.92l-3.52-1.89c-1.11-.6-1.38-1.33-.88-2.58,2-4.97,6.86-14.3,11.83-23.38,6.48-11.89,10.4-18.86,12.96-22.52.73-1.04,1.53-1.28,2.64-.68l3.52,1.89c1.11.6,1.28,1.53.62,2.6-2.99,4.78-7.88,13.24-11.46,19.72.64-.41,1.44-.48,2.29-.03l2.54,1.37c7.15-11.87,12.67-14.78,19.7-10.99,7.88,4.24,7.46,11.58-1.59,28.39-1.93,3.58-3.77,6.54-8.65,14.51-.66,1.07-1.53,1.28-2.57.72l-3.52-1.89c-1.04-.56-1.31-1.46-.65-2.54,4.59-7.44,6.79-11.22,8.65-14.67Z"/>
    <path class="cls-1" d="M478.65,471.37c14.51-15.91,19.21-18.43,24.85-13.3,5.25,4.79,3.53,9.63-8.29,22.59-2.69,2.95-5.69,6.03-8.18,8.97-1.79,2.07-2.06,3.13-.91,4.18,1.2,1.1,2.29.89,4.04-1.02,5.04-5.52,15.33-17.57,20.48-23.99.69-.87,1.48-.85,2.35-.05l2.46,2.24c.82.75.9,1.42.16,2.35-2.92,3.64-6.4,7.79-9.92,11.98l1.48,1.35c.6.55.89,1.22.77,1.9,4.99-5.47,11.78-12.59,15.96-16.4.8-.77,1.64-.81,2.46-.06l2.68,2.44c.88.8.81,1.64-.04,2.46-3.42,3.19-8.87,8.74-18.05,18.69-7.04,7.6-14.01,15.47-17.16,19.8-.69.97-1.58,1.07-2.45.27l-2.62-2.39c-.87-.8-.91-1.53-.22-2.5,3.26-4.34,9.18-11.05,13.07-15.32.85-.93.75-1.82-.12-2.61l-1.37-1.25c-3.09,3.49-6.08,6.77-8.48,9.29-3.45,3.56-5.9,3.83-8.58,1.39-2.19-2-2.69-4.96-1.41-7.79l-1.8,1.97c-.75.82-1.43.8-2.25.05l-2.24-2.04c-.87-.8-.91-1.53-.16-2.25,3.26-3.24,8.25-8.6,15.03-16.04,8.33-9.13,9.1-10.53,7.46-12.02-1.91-1.75-3.91.44-14.03,11.54-3.69,4.05-9.04,10.69-12.24,15.28-.64.92-1.42,1.01-2.29.31l-2.61-2.08c-.92-.74-1.01-1.42-.37-2.34,3.09-4.49,8.75-11.45,12.54-15.61ZM503.61,518.78c-.8.88-1.53.91-2.41.11l-2.68-2.44c-.82-.75-.91-1.53-.11-2.41l24.83-27.23c2.89-3.17,6.12-3.63,8.85-1.14l9.51,8.68c1.48,1.35,1.59,2.75.25,4.23l-23.04,25.26c-2.99,3.28-6.64,3.66-9.54,1.01-2.57-2.34-3.37-6.08-2.63-9.41l-3.04,3.33ZM512.45,516.22c1.42,1.3,2.98,1.12,4.43-.47l15.11-16.57c.7-.77.66-1.5-.1-2.2l-3.23-2.94c-.98-.9-2.07-.69-3.17.51l-13.37,14.65c-1.89,2.08-1.76,5.11.32,7Z"/>
    <path class="cls-1" d="M465.95,499.51l2.25,3.39c.69,1.05.44,2.01-.69,2.58-4.77,2.45-13.47,7.4-20.4,11.82,1.21-.18,2.48.4,3.3,1.63l4.82,7.28,6.91-4.57c4.57-3.02,9-2.5,11.88,1.46l15.59,21.54c.71.95.51,1.97-.54,2.67l-3.89,2.57c-.99.65-1.91.46-2.67-.54l-4.25-5.88-23.26,15.4,3.82,6.17c.63,1.09.45,2.01-.54,2.67l-3.89,2.57c-1.05.69-2.07.49-2.67-.54l-13.74-22.77c-2.51-4.19-1.26-8.48,3.3-11.5l6.85-4.53-5.19-7.84c-.9-1.36-1.94-1.46-3.43-.49-5.31,3.51-11.48,8.13-15.31,11.46-.97.82-1.95.67-2.65-.38l-2.25-3.39c-.69-1.05-.55-1.77.44-2.69,3.75-3.46,11.71-9.26,21.15-15.5,9.81-6.5,17.28-10.9,22.4-13.23,1.23-.55,1.99-.34,2.65.64ZM468.86,530.33c-1.16-1.63-2.66-1.88-4.45-.69l-16.66,11.03c-1.79,1.18-2.21,2.7-1.16,4.41l4.29,7.01,22.77-15.07-4.78-6.69Z"/>
    <path class="cls-1" d="M414.82,532.59l1.34,3.84c.42,1.19-.06,2.06-1.3,2.34-5.22,1.2-14.87,3.87-22.68,6.44,1.22.12,2.31,1,2.8,2.39l2.08,5.94c11.84-3.35,18.09-1.39,20.61,5.81,2.83,8.1-2.18,13.93-16.99,19.11-14.81,5.18-22.37,3.74-25.2-4.36-2.59-7.4,1.43-12.96,13.53-17.82l-2.27-6.5c-.54-1.54-1.52-1.9-3.2-1.31-6.01,2.1-13.13,5.06-17.66,7.35-1.14.55-2.06.17-2.47-1.02l-1.34-3.84c-.42-1.19-.1-1.85,1.09-2.5,4.48-2.43,13.62-6.1,24.31-9.83,11.11-3.88,19.43-6.32,24.96-7.31,1.33-.23,2.02.16,2.41,1.28ZM383.54,597.61c-1.19.42-1.94.05-2.36-1.14l-1.46-4.19c-.42-1.19-.05-1.94,1.14-2.36l42.47-14.85c1.19-.41,1.94-.05,2.36,1.14l1.46,4.19c.42,1.19.05,1.94-1.14,2.36l-18.72,6.54c.91.15,1.63.84,2.04,2.03l.54,1.54c.42,1.19.05,1.94-1.14,2.36l-4.54,1.59c-1.19.41-1.94.05-2.36-1.14l-.93-2.66c-.32-.91-.95-1.16-2-.79l-15.37,5.37ZM395.04,562.32c-9.92,3.47-12.65,5.75-11.52,8.97,1.12,3.21,4.68,3.3,14.6-.17,9.92-3.47,12.65-5.75,11.52-8.97-1.12-3.21-4.68-3.3-14.6.17Z"/>
    <path class="cls-1" d="M347.72,566.75l-4.42.38c-1.25.11-2.13-.63-2.09-1.83.07-1.79.06-4.46-.18-7.34-.38-4.42-3.46-6.54-7.96-6.15-13.79,1.19-23.26,2.45-31.89,4-1.17.25-1.88-.28-2.07-1.6l-.64-4.03c-.17-1.1.37-1.74,1.61-1.99,7.24-1.37,19.06-2.98,31.96-4.08,10.25-.88,16.67,3.77,17.4,12.32.27,3.1.4,6.35.26,8.22-.11,1.27-.72,1.99-1.97,2.1ZM302,569.71c-.11-1.25.43-1.89,1.68-2l4.42-.38c1.25-.11,1.89.43,2,1.69l3.59,41.73c.11,1.25-.43,1.89-1.68,2l-4.42.38c-1.25.11-1.89-.43-2-1.68l-3.59-41.73ZM327.62,599.89c-1.7.15-2.17.71-2.04,2.18l.59,6.86c.11,1.25-.43,1.89-1.69,2l-4.42.38c-1.25.11-1.89-.43-2-1.69l-3.52-40.99c-.11-1.25.43-1.89,1.69-2l4.42-.38c1.25-.11,1.89.43,2,1.68l2.18,25.36c.37-.85,1.36-1.45,2.39-1.54l6.42-.55c1.25-.11,1.89.43,2,1.68l.38,4.42c.11,1.25-.43,1.89-1.68,2l-6.71.58ZM359.19,572.3c1.18-.1,1.75.52,1.85,1.7l.35,4.05c.11,1.25-.43,1.89-1.69,2-5.6.48-8.98,6.12-8.37,13.27l1.07,12.39c.11,1.25-.43,1.89-1.69,2l-4.42.38c-1.25.11-1.89-.43-2-1.69l-1.06-12.39c-.62-7.15-4.91-12.13-10.51-11.65-1.25.11-1.89-.43-2-1.68l-.35-4.06c-.1-1.18.36-1.89,1.54-1.99,5.9-.51,11.91,2.91,14.46,8.34,1.58-5.78,6.92-10.18,12.82-10.68Z"/>
    <path class="cls-1" d="M241.2,605.37l-4.6-.74c-1.17-.19-1.78-1.04-1.58-2.28l9.83-60.77c.2-1.24,1.05-1.85,2.22-1.66l4.6.74c1.17.19,1.78,1.04,1.58,2.28l-4.11,25.42c.67-.87,1.77-1.21,3.23-.98l4.75.77c1.24.2,1.73.88,1.53,2.12l-.71,4.38c-.2,1.24-.88,1.73-2.12,1.53l-5.19-.84c-1.75-.28-2.67.32-2.93,1.92l-4.28,26.44c-.2,1.24-1.05,1.85-2.22,1.66ZM286.04,601.53l-.71,4.38c-.2,1.24-.88,1.73-2.12,1.53l-27.98-4.53c-1.24-.2-1.73-.88-1.53-2.12l.71-4.38c.2-1.24.88-1.73,2.12-1.53l27.98,4.53c1.24.2,1.73.88,1.53,2.12ZM275.74,553.99c11.4,1.84,17.2,9.98,15.39,21.15-1.98,12.27-9.56,17.42-22.86,15.27-3.73-.6-6.83-1.33-9.39-2.19-1.21-.42-1.61-1.16-1.41-2.4l.67-4.16c.21-1.31.96-1.79,2.11-1.46,3.01.86,6.04,1.58,8.16,1.92,8.76,1.42,13.19-1.39,14.34-8.47,1-6.21-2.32-10.64-9.34-11.78-2.85-.46-7.01-.23-11.86.55-.39.09-.68.04-.97,0-.8-.13-1.24-.65-1.39-1.57l-.46-4.12c-.16-1.3.31-1.9,1.63-2.21,4.68-1.12,10.48-1.3,15.37-.51Z"/>
    <path class="cls-1" d="M96.12,449.84l14.68,19.89,10.79-3.45c1.11-.36,1.96-.34,2.66.61l3.21,4.35c.7.95.56,1.88-.55,2.25l-54.14,16.87c-1.5.46-2.46.16-3.38-1.09l-4.13-5.6c-.92-1.25-.93-2.26-.05-3.55l32.08-46.76c.67-.96,1.61-.82,2.31.14l3.21,4.35c.7.95.47,1.76-.2,2.72l-6.48,9.29ZM91.24,456.94l-16.9,24.33,28.24-8.97-11.34-15.36Z"/>
    <path class="cls-1" d="M57.23,428.99c2.69,5.61,7.49,7.74,12.29,5.43l23.16-11.11c1.13-.54,2.12-.2,2.63.87l2.02,4.2c.51,1.07.17,2.05-.97,2.6l-35.9,17.22c-1.13.54-2.12.2-2.63-.87l-2.02-4.2c-.51-1.07-.16-2.06.97-2.6l2.33-1.12c-4.18-1.36-8.23-4.84-10.24-9.04-4.29-8.94-1.41-16.97,8-21.48l23.49-11.26c1.13-.54,2.12-.2,2.63.87l2.02,4.2c.51,1.07.16,2.05-.97,2.6l-22.22,10.66c-5.94,2.85-7.43,7.09-4.58,13.03Z"/>
    <path class="cls-1" d="M27.76,407.32c-1.19.4-2.13-.07-2.5-1.2l-1.47-4.42c-.37-1.12.1-2.06,1.29-2.45l6.32-2.1c1.19-.4,2.13.07,2.5,1.2l1.47,4.42c.37,1.12-.1,2.06-1.29,2.46l-6.32,2.1ZM41.39,402.8c-1.19.4-2.13-.07-2.5-1.2l-1.47-4.42c-.37-1.12.1-2.06,1.29-2.46l37.08-12.31c1.19-.4,2.13.07,2.5,1.2l1.47,4.42c.37,1.12-.1,2.06-1.29,2.46l-37.08,12.31Z"/>
    <path class="cls-1" d="M27.25,363.9c-.79-4.82.46-8.55,3.88-11.52-3.81-1.7-6.73-5.79-7.51-10.54-1.25-7.59,3.08-13.18,11.25-14.53l28.7-4.74c1.24-.2,2.09.41,2.28,1.57l.76,4.6c.19,1.17-.42,2.02-1.66,2.22l-27.24,4.49c-4.6.76-6.49,3.39-5.74,7.92.71,4.31,3.65,6.67,7.38,6.06l27.89-4.6c1.24-.21,2.09.41,2.29,1.57l.76,4.6c.19,1.17-.42,2.02-1.66,2.22l-27.24,4.49c-4.6.76-6.49,3.4-5.74,7.92.71,4.31,3.65,6.67,7.38,6.06l27.89-4.6c1.24-.21,2.09.41,2.29,1.57l.76,4.6c.19,1.17-.42,2.02-1.66,2.22l-39.28,6.48c-1.24.21-2.09-.41-2.28-1.57l-.76-4.6c-.19-1.17.42-2.02,1.66-2.22l1.75-.29c-3.28-2.16-5.49-5.54-6.13-9.42Z"/>
    <path class="cls-1" d="M63.32,287.98c2.51,3.59,4.37,10.41,4.15,15.58-.4,9.39-5.68,15.09-13.81,14.75-11.02-.47-14.68-8.47-14.23-31.34l-1.33-.06c-5.03-.21-8.06,3.14-8.32,9.2-.21,5.03,1.57,8.51,5.08,9.4.95.26,1.3.87,1.24,2.13l-.24,5.55c-.05,1.18-.75,1.89-1.78,1.7-7.87-1.44-12.16-8.37-11.7-19.31.5-11.83,6.08-17.59,16.65-17.15l26.69,1.13c1.26.05,1.96.82,1.92,2.01l-.2,4.66c-.05,1.18-.82,1.89-2.08,1.84l-2.07-.09ZM46.92,287.14c-.32,16.28,1.56,22.58,7.11,22.82,3.47.15,5.76-3.09,5.98-8.41.18-4.14-1.02-9.08-3.41-14l-9.69-.41Z"/>
    <path class="cls-1" d="M14.86,263.39c-1.24-.21-1.84-1.07-1.64-2.24l.79-4.59c.2-1.17,1.06-1.77,2.3-1.56l52.65,9.11c1.24.21,1.84,1.07,1.64,2.24l-.79,4.59c-.2,1.17-1.06,1.77-2.3,1.56l-52.65-9.11Z"/>
    <path class="cls-1" d="M62.87,223.49l15.07,6.17c1.17.48,1.57,1.44,1.12,2.54l-1.77,4.31c-.45,1.1-1.41,1.5-2.58,1.02l-48.07-19.7c-2.05-.84-2.77-2.41-1.93-4.47l8.2-20c4.43-10.82,13.24-14.73,25.15-9.85,11.92,4.88,15.51,13.88,11.07,24.69l-6.26,15.27ZM34.18,211.73l21.16,8.67,6.09-14.86c2.64-6.44.32-11.31-6.53-14.11-6.92-2.84-11.99-1-14.63,5.44l-6.09,14.86Z"/>
    <path class="cls-1" d="M73.42,161.02c-2.77,4.55-2.17,8.55,1.56,10.82l23.58,14.34c1.08.65,1.32,1.67.71,2.68l-2.42,3.98c-.62,1.01-1.63,1.26-2.71.61l-34.02-20.69c-1.07-.65-1.32-1.67-.71-2.68l2.42-3.98c.62-1.01,1.63-1.26,2.71-.61l1.2.73c-.94-3.43-.23-7.59,2.07-11.38,1.08-1.77,2.47-3.35,4.14-4.67.85-.69,1.81-.55,2.66.32l3.03,3.14c.79.83.73,1.65-.14,2.51-1.7,1.65-3.09,3.23-4.09,4.88Z"/>
    <path class="cls-1" d="M87.65,128.03c7.97-9.63,18.86-10.71,30.38-1.18,11.52,9.53,12.49,20.43,4.51,30.06-7.98,9.63-18.86,10.71-30.38,1.18-11.52-9.53-12.49-20.43-4.51-30.06ZM116.49,151.91c5.24-6.33,3.89-12.25-3.8-18.62-7.7-6.37-13.76-6.59-19-.26-5.24,6.33-3.89,12.25,3.8,18.62,7.7,6.37,13.76,6.59,19,.26Z"/>
    <path class="cls-1" d="M118.66,99.49l-9.31-10.83c-.82-.95-.74-2,.16-2.77l3.54-3.04c.9-.77,1.94-.69,2.76.26l9.31,10.83,9.93-8.54c.95-.82,1.79-.76,2.61.2l2.89,3.37c.82.95.76,1.79-.2,2.61l-9.93,8.54,13.51,15.71c2.03,2.36,4.75,2.35,7.56-.06,2.08-1.78,3.61-3.3,4.19-3.99.75-.94,1.7-.97,2.38-.19l2.89,3.37c.72.84.72,1.63.01,2.63-.88,1.24-2.87,3.25-5.28,5.32-6.17,5.31-12.51,5.09-17.38-.58l-14.33-16.67-8.3,7.14c-.95.82-1.79.76-2.61-.2l-2.89-3.37c-.82-.95-.76-1.79.2-2.61l8.31-7.14Z"/>
    <path class="cls-1" d="M183.37,104.54c-11.7,7.11-21.8,4.16-29.53-8.55-7.73-12.71-5.86-23.02,5.4-29.87,10.75-6.53,21-3.5,28.22,8.39,1.58,2.59,1.29,5.11-1.43,6.76l-22.57,13.72c4.74,5.95,9.58,6.65,16.22,2.61,4.05-2.46,6.4-5.71,6.06-9.4-.11-.89.25-1.45,1.19-2.02l3.98-2.42c1.08-.65,1.89-.46,2.28.61,2.63,7.32-1.09,14.87-9.82,20.17ZM178.89,76.95c-4.38-6.78-9.23-8.07-15.49-4.26-6.2,3.77-7.51,8.72-3.85,16.02l19.35-11.76Z"/>
    <path class="cls-1" d="M222.42,85.58c-12.44,4.75-21.88-.04-27.16-13.87-5.26-13.76-1.61-23.71,10.35-28.27,9.68-3.7,16.97-1.81,21.99,5.94.58.89.4,1.67-.56,2.27l-4.11,2.52c-1.03.63-1.69.57-2.4-.27-3.4-3.93-6.95-4.71-11.79-2.86-7.6,2.9-9.28,8.06-5.64,17.6,3.75,9.82,8.29,12.36,16.65,9.17,5.39-2.06,7.26-5.47,6.88-11.02-.07-1.01.35-1.56,1.61-1.8l4.69-1c1.09-.26,1.65.16,1.86,1.35,1.6,9.37-2.91,16.64-12.38,20.26Z"/>
    <path class="cls-1" d="M245.38,34.22l-2.81-14c-.25-1.23.33-2.1,1.49-2.34l4.57-.92c1.16-.23,2.03.35,2.28,1.58l2.81,14,12.84-2.58c1.23-.25,1.93.22,2.18,1.45l.87,4.35c.25,1.23-.22,1.93-1.45,2.18l-12.84,2.58,4.08,20.31c.61,3.05,2.99,4.38,6.62,3.65,2.68-.54,4.76-1.11,5.6-1.43,1.12-.45,1.96-.02,2.16,1l.87,4.35c.22,1.09-.17,1.77-1.28,2.29-1.38.65-4.09,1.42-7.21,2.05-7.98,1.6-13.39-1.69-14.86-9.02l-4.32-21.55-10.74,2.16c-1.23.25-1.93-.22-2.18-1.45l-.87-4.35c-.25-1.23.22-1.93,1.45-2.18l10.74-2.16Z"/>
    <path class="cls-1" d="M278.66,15.27c-.1-1.25.57-2.05,1.75-2.15l4.65-.38c1.18-.1,1.98.58,2.08,1.83l.55,6.64c.1,1.25-.57,2.05-1.75,2.15l-4.65.38c-1.18.1-1.98-.58-2.08-1.83l-.55-6.64ZM279.85,29.58c-.1-1.25.57-2.05,1.75-2.15l4.64-.38c1.18-.1,1.98.58,2.08,1.83l3.22,38.94c.1,1.25-.57,2.05-1.75,2.15l-4.65.38c-1.18.1-1.98-.58-2.08-1.83l-3.22-38.94Z"/>
    <path class="cls-1" d="M321.08,25.11c12.49.6,19.88,8.66,19.17,23.59-.72,14.93-8.85,22.24-21.34,21.64-12.49-.6-19.88-8.66-19.17-23.59.72-14.93,8.85-22.24,21.34-21.64ZM319.29,62.51c8.2.39,12.13-4.23,12.61-14.21.48-9.98-2.99-14.96-11.19-15.35-8.2-.39-12.13,4.23-12.61,14.21-.48,9.98,2.99,14.96,11.19,15.35Z"/>
    <path class="cls-1" d="M370.18,40.14c-6.06-1.4-10.72,1.01-11.92,6.2l-5.79,25.02c-.28,1.23-1.17,1.78-2.33,1.51l-4.54-1.05c-1.15-.27-1.71-1.16-1.42-2.38l8.98-38.79c.28-1.23,1.17-1.78,2.33-1.51l4.54,1.05c1.15.27,1.71,1.15,1.42,2.38l-.58,2.52c3.67-2.42,8.92-3.4,13.46-2.35,9.66,2.24,14.13,9.5,11.78,19.66l-5.87,25.38c-.28,1.23-1.17,1.78-2.33,1.51l-4.54-1.05c-1.15-.27-1.71-1.15-1.42-2.38l5.56-24.01c1.49-6.42-.9-10.23-7.31-11.72Z"/>
    <path class="cls-1" d="M422.89,99.94c-14.59-7.87-17.24-20.57-7.92-37.83,9.28-17.19,21.32-22.05,35.64-14.32,10.75,5.8,13.83,15.37,11.42,24.49-.3,1.02-.9,1.36-2.15,1.03l-4.8-1.24c-1.12-.27-1.53-.91-1.33-2.06,1.29-7.21-.73-11.58-6.92-14.92-9.77-5.27-17.46-1.77-24.38,11.06-6.96,12.89-5.56,21.22,4.53,26.66,6.06,3.27,11.75,2.22,17.63-3.52.75-.77,1.48-.72,2.45.14l3.67,3.33c.9.82,1.01,1.55.22,2.39-8.09,8.75-17.71,10.37-28.06,4.79Z"/>
    <path class="cls-1" d="M459.41,124.76c-10.59-8.67-11.17-19.18-1.75-30.69,9.42-11.51,19.77-13.18,29.96-4.83,9.73,7.97,10.28,18.64,1.47,29.4-1.92,2.35-4.39,2.91-6.85.9l-20.44-16.73c-4.03,6.45-3.08,11.24,2.93,16.17,3.67,3,7.51,4.14,10.88,2.59.8-.4,1.45-.25,2.31.45l3.61,2.95c.97.8,1.06,1.63.18,2.35-6.03,4.91-14.38,3.91-22.29-2.56ZM483.94,111.37c4.93-6.38,4.54-11.39-1.13-16.03-5.61-4.59-10.72-4.19-16.39,1.69l17.52,14.34Z"/>
    <path class="cls-1" d="M518,130.36c-4.04-4.72-9.23-5.54-13.28-2.08l-19.51,16.7c-.96.82-2,.74-2.77-.16l-3.03-3.54c-.77-.9-.69-1.94.27-2.76l30.25-25.89c.96-.82,2-.74,2.77.16l3.03,3.54c.77.9.69,1.94-.27,2.76l-1.97,1.68c4.39.24,9.2,2.55,12.23,6.09,6.45,7.53,5.74,16.04-2.19,22.82l-19.79,16.94c-.96.82-2,.74-2.77-.16l-3.03-3.54c-.77-.9-.69-1.94.27-2.76l18.72-16.03c5-4.28,5.35-8.77,1.07-13.77Z"/>
    <path class="cls-1" d="M545.84,158.81l12.23-7.38c1.08-.65,2.09-.4,2.71.61l2.41,3.99c.61,1.01.36,2.03-.72,2.68l-12.23,7.38,6.77,11.21c.65,1.08.45,1.89-.63,2.54l-3.8,2.29c-1.08.65-1.89.45-2.54-.63l-6.77-11.22-17.74,10.71c-2.66,1.61-3.11,4.3-1.2,7.47,1.42,2.35,2.65,4.11,3.24,4.79.8.9.68,1.84-.21,2.37l-3.8,2.29c-.95.57-1.72.44-2.59-.43-1.08-1.08-2.72-3.37-4.37-6.09-4.21-6.97-2.94-13.18,3.46-17.04l18.82-11.36-5.66-9.38c-.65-1.08-.45-1.89.63-2.54l3.8-2.29c1.08-.65,1.89-.45,2.54.63l5.66,9.38Z"/>
    <path class="cls-1" d="M530.06,221.76c-5.05-12.72-.46-22.19,13.37-27.68,13.82-5.49,23.68-1.92,28.54,10.32,4.64,11.69-.06,21.28-12.99,26.42-2.82,1.12-5.25.41-6.43-2.54l-9.75-24.55c-6.66,3.68-8.15,8.33-5.29,15.56,1.75,4.4,4.56,7.27,8.25,7.55.89.04,1.39.48,1.8,1.52l1.72,4.33c.46,1.17.13,1.94-.98,2.14-7.66,1.37-14.47-3.57-18.24-13.06ZM558.01,221.96c7.41-3.18,9.5-7.75,6.79-14.56-2.68-6.74-7.34-8.87-15.16-6.48l8.36,21.04Z"/>
    <path class="cls-1" d="M578.3,252.92c-1.2-5.19-4.42-7.64-8.67-6.66l-26.9,6.2c-1.23.28-2.11-.27-2.38-1.43l-1.05-4.54c-.27-1.15.29-2.04,1.51-2.32l38.8-8.95c1.23-.28,2.11.27,2.38,1.43l1.05,4.54c.27,1.15-.29,2.04-1.52,2.32l-1.37.32c3.07,1.8,5.47,5.27,6.47,9.6.47,2.02.57,4.12.3,6.23-.13,1.09-.91,1.65-2.13,1.63l-4.36-.13c-1.15-.04-1.68-.68-1.65-1.9.06-2.37-.04-4.47-.48-6.35Z"/>
  </g>
  <g>
    <path class="cls-1" d="M159.82,561.12c.25-.49.49-.97.7-1.47.44-1.04.73-2.12.86-3.24.17-1.52.12-3.01-.34-4.48-.23-.74-.53-1.44-.97-2.09-.19-.28-.4-.54-.61-.8-.22-.26-.26-.61-.43-.91-.55-.93-1.25-1.68-2.22-2.2-1.1-.58-2.24-.74-3.45-.53-.71.12-1.35.41-1.97.75-1.52.82-2.74,2-3.82,3.32-.6.73-1.09,1.55-1.51,2.4-.03.05-.03.12-.04.18-.14.22-.31.41-.34.68h0c-.07.11-.15.21-.19.33-.21.53-.44,1.06-.62,1.61-.16.51-.37,1.02-.42,1.57-.05.09-.11.17-.07.28,0,0,0,0,0,0-.08.11-.1.24-.12.36-.1.49-.2.98-.3,1.46-.14.61-.21,1.24-.19,1.86,0,.35.01.71.05,1.06.07.61.17,1.21.38,1.79.3.79.74,1.49,1.29,2.13.19.22.37.44.64.58h0c.02.08.07.14.14.19.6.42,1.18.88,1.87,1.17.96.4,1.95.61,3,.58.77-.02,1.54-.13,2.27-.37.53-.18,1.06-.37,1.5-.73.69-.34,1.27-.83,1.83-1.34.19-.17.39-.32.52-.55.23-.09.31-.32.45-.49,0,0,0,0,0,0,.14-.04.2-.15.27-.26.64-.92,1.32-1.81,1.83-2.82ZM148.75,557.96s0,0,.01,0c0,0-.02,0-.02,0,0,0,0,0,.01-.01ZM152.26,557.64s.03.02.05.02c-.03,0-.05.01-.08.02,0-.02.02-.03.03-.05ZM149.46,559.69s-.02,0-.03-.01c.01,0,.02,0,.03.01Z"/>
    <path class="cls-1" d="M145.49,506.31c-.32,1.39-.59,2.79-.8,4.21-.23,1.54-.42,3.08-.55,4.64-.1,1.17-.18,2.34-.22,3.51-.06,1.78-.06,3.56.05,5.34.03.51.02,1.03.14,1.53,0,.06-.03.13-.02.19.09.76.18,1.53.28,2.29.01.11.05.22.08.32-.01.23.03.44.11.65,0,0,0,0,0,0,.09.49.16.97.26,1.46.05.23.06.48.18.69h0s.02.09.03.13h0c-.02.13.01.24.11.33,0,0,0,0,0,0h0s0,0,0,0c0,0,0,0,0,0h0s-.01.09.03.13c-.02.05,0,.1.03.14h0s0,0,0,0c0,0,0,0,0,0h0s0,0,0,0c0,0,0,0,0,0h0s-.02-.08-.03-.13c0,0,0,0,0,0,.02.04.03.09.03.13.02.04.02.09.03.14,0,.08,0,.16.03.24.23.73.46,1.47.75,2.18.6,1.5,1.34,2.91,2.36,4.16.26.32.48.68.84.91,0,0,0,0,0,0,.01.03.01.07.03.09.26.23.49.5.78.7.14.1.29.2.41.33.16.16.34.3.54.4.49.23.92.57,1.43.76.43.16.84.39,1.3.44.02.02.04.03.07.04.07.05.14.08.22.05,0,0,0,0,0,0,.02.02.04.03.07.03h0c.2.1.42.14.64.18,1.01.18,2.03.28,3.06.23.38-.02.77,0,1.14-.12.08,0,.16.03.23.02.52-.07,1.05-.13,1.56-.23.69-.13,1.37-.29,2.06-.46.28-.07.55-.17.82-.25.04,0,.08,0,.11-.02.03,0,.05-.02.07-.04,0,0,0,0,0,0,.14-.03.29-.04.42-.09,1.39-.44,2.76-.94,4.1-1.51,1.55-.65,3.07-1.38,4.57-2.14,1.3-.66,2.57-1.37,3.84-2.09.08-.05.16-.11.23-.17.43-.17.8-.43,1.18-.69,0,0,0,0,0,0,.11-.06.23-.1.34-.17.39-.23.77-.46,1.16-.69.74-.44,1.45-.95,2.14-1.47.7-.53,1.37-1.11,1.99-1.73.61-.61,1.21-1.23,1.71-1.94.15-.21.3-.42.44-.63.24-.36.5-.71.7-1.09.25-.48.46-.98.68-1.48.07-.16.14-.32.13-.5.14-.2.18-.42.2-.66h0c.02-.06.05-.12.07-.18.22-.89.3-1.8.23-2.72-.03-.36,0-.74-.15-1.09h0s0,0,0,0c0-.04-.02-.09-.03-.13h0c0-.31-.08-.6-.21-.87,0,0,0,0,0,0-.01-.21-.04-.41-.18-.58,0,0,0,0,0,0-.07-.4-.25-.75-.42-1.11-.21-.46-.43-.91-.74-1.32,0,0,0,0,0,0-.26-.53-.6-.99-1.03-1.39-.03-.15-.15-.22-.26-.3,0,0,0,0,0,0-.02-.08-.07-.14-.13-.2-.34-.32-.66-.65-1.01-.95-.6-.51-1.19-1.02-1.85-1.46-.99-.66-1.97-1.32-2.98-1.95-1.57-.99-3.1-2.07-4.64-3.11-.2-.14-.4-.26-.64-.34,0,0,0,0,0,0-.05-.04-.11-.07-.16-.11,0,0,0,0,0,0,0,0,0,0,0,0-.21-.14-.43-.29-.64-.43,0,0,0,0,0,0-.16-.11-.32-.21-.48-.32,0,0,0,0,0,0-.2-.14-.39-.28-.59-.42-1.66-1.13-3.33-2.24-5.02-3.31-.43-.28-.86-.56-1.29-.85-.09-.06-.18-.13-.31-.12-.1-.07-.21-.13-.31-.2,0,0,0,0,0,0h0c-.32-.27-.71-.43-1.07-.63-.36-.2-.72-.41-1.09-.59-.63-.3-1.27-.59-1.92-.86-.3-.13-.61-.28-.94-.32,0,0,0,0,0,0-.03-.01-.06-.03-.09-.04-.06-.05-.14-.08-.22-.05,0,0,0,0,0,0l-.03-.02h-.04c-.09-.07-.18-.13-.29-.1,0,0,0,0,0,0-.27-.15-.57-.21-.88-.25-.3-.12-.61-.2-.93-.18,0,0,0,0,0,0h0s0,0,0,0c0,0,0,0,0,0-.07-.05-.14-.07-.23-.04,0,0,0,0,0,0-.02-.02-.04-.03-.07-.02,0,0,0,0,0,0-.41-.09-.82-.12-1.24-.14-.99-.04-1.96.06-2.9.35-1.88.57-3.35,1.71-4.53,3.26-.27.36-.53.72-.84,1.05-.41.45-.78.92-1.1,1.44-.45.72-.74,1.5-.93,2.31ZM169.08,506.48s-.01.07-.02.11c-.01-.04,0-.07.02-.11ZM171.06,512.72s0,0,0,0h0s0,0,0,0ZM162.9,532.53s0,0,.01,0c0,0,0,0-.01,0ZM161.05,515.43c-.04.06-.08.11-.15.14-.16.09-.32.06-.39-.11-.01-.02-.02-.05-.03-.07.19.02.4.03.57.03ZM152.98,526.72s0,0,0,0c0,0,0,0,0,0,0,0,0,0,0,0ZM159.99,510.23c-.07,0-.14-.01-.2-.05.07.01.13.03.2.05ZM177.08,518s.04.01.05.02c-.02,0-.04-.01-.05-.02ZM151.84,526.22s0,0,0,0c0,0,0,0,0,0,0,0,0,0,0,0ZM161.44,505.82s-.01,0,0,0c0,0,0,0,0,0ZM153.83,511.74s-.02,0-.02,0c-.04,0-.07-.01-.08-.04.04,0,.07.02.11.03ZM156.52,503.08s-.06-.02-.08-.04c.03.01.05.03.08.04ZM147.83,511.63s-.02-.02-.03-.03c.03,0,.05,0,.09,0-.02.01-.04.02-.06.03ZM173.59,516.54s0,0,0,0c0,0,0,0,0,0h0s0,0,.01,0ZM157.54,503.75s.01,0,.02-.01c.02,0,.05,0,.07,0,0,.01,0,.02.01.03-.03,0-.07-.02-.1-.02ZM148.56,527.39s.02,0,.03.01c-.03.02-.05.03-.08.04.02-.01.03-.03.05-.05ZM158.05,537.87s0,0,0,.01c-.02-.02-.04-.04-.06-.06.02,0,.04.02.06.05ZM158.43,538.23s-.06-.04-.08-.06c.04,0,.06.02.08.06ZM152.63,502.99s0,0,0,0c0,0,0,0,0,0,0,0,0,0,0,0ZM146.89,508.66s.08-.06.12-.07c.07-.02.14,0,.15.07.02.08.03.16.04.23-.1-.06-.24-.13-.36-.19.01-.02.03-.03.04-.04ZM163.9,505.67s.04-.01.06-.01c-.02,0-.04,0-.06.01ZM150.76,503.11s0,0,0,0c0,0,0,0,0,0,0,0-.01,0-.02,0ZM154.28,541.13s.03.04.03.06c0-.02-.02-.04-.03-.06ZM166.62,504.96s.08.05.12.07c-.05,0-.1-.02-.12-.07ZM164.54,501.9s.01-.01.02-.02c0,0,0,0,0,0,0,0-.02,0-.03.01Z"/>
    <polygon class="cls-1" points="135.35 535.18 135.35 535.18 135.35 535.18 135.35 535.18"/>
    <path class="cls-1" d="M141.36,546.08c.51-1.11.87-2.26.91-3.5.02-.66-.04-1.31-.25-1.94.01-.1-.01-.19-.07-.27h0c-.15-.58-.41-1.11-.77-1.58-.23-.78-.65-1.45-1.2-2.05-.79-.86-1.76-1.42-2.92-1.63-.52-.09-1.05-.13-1.57.03,0,0,0,0,0,0h0s0,0,0,0c0,0,0,0,0,0-.04.02-.09.03-.13.02-.04.02-.09.03-.13.03,0,0,0,0,0,0-.18,0-.36.02-.53.12h0s0,0,0,0c-.17-.03-.31.06-.46.1-1.53.39-2.98.98-4.37,1.74-1.27.69-2.46,1.51-3.53,2.48-.65.59-1.27,1.22-1.84,1.89-.58.68-1.15,1.37-1.64,2.13-.2.31-.36.64-.56.95-.22.36-.4.73-.57,1.11-.07.16-.21.3-.18.49,0,0,0,0,0,0-.21.34-.35.71-.41,1.1,0,0,0,0,0,0-.02.02-.03.05-.03.08-.06.09-.12.18-.09.29-.33.91-.43,1.85-.39,2.81.02.33,0,.67.14.98,0,.31.13.58.23.86,0,.08.03.14.09.19-.01.05,0,.09.03.13.35,1.08,1.03,1.95,1.88,2.67.87.73,1.87,1.23,2.99,1.45.53.11,1.07.17,1.62.08.12.02.23.04.35-.02h0s0,0,0,0c.14.03.28,0,.4-.06.14-.02.28-.02.42-.05.98-.16,1.89-.53,2.79-.93.08-.04.16-.1.23-.16.04-.02.08-.03.13-.05.03-.01.05-.03.06-.05.04-.03.09-.04.13-.05.02-.01.04-.03.05-.05.04-.02.09-.04.13-.05,0,0,0,0,0,0h0s.04-.03.06-.05c0,0,0,0,0,0,.07-.03.15-.05.22-.09,1.34-.73,2.57-1.6,3.71-2.6.2-.18.43-.33.59-.56.04-.05.09-.09.13-.14,0,0,0,0,0,0,.12-.02.17-.11.22-.2,0,0,0,0,0,0,.21-.11.33-.3.46-.49.1-.02.16-.09.22-.17.23-.3.49-.58.74-.86.43-.48.77-1,1.12-1.53,0,0,0,0,0,0,.61-.83,1.14-1.69,1.57-2.63ZM131.15,543.56s0-.01,0-.02c0,0,0,0,.01,0,0,0-.01.01-.02.02ZM127.54,547.55s.05.01.07.02c-.03,0-.05,0-.07-.02ZM125.46,551.3s.06,0,.09,0c0,0,0,0,0,.01-.04.01-.08.03-.11.05-.02-.04-.04-.08-.07-.11.03.01.06.03.1.04ZM121.34,551.08s-.04.03-.06.05c.02-.02.04-.03.06-.05ZM139.17,537.08s0-.01,0-.01c0,0,0,0,.01,0,0,0,0,0-.01,0ZM121.08,552.54s0,0,0,0c.02.04.03.08.03.13,0,0,0,0,0,0-.01-.04-.02-.09-.03-.13Z"/>
    <polygon class="cls-1" points="182.78 548.11 182.78 548.12 182.78 548.11 182.78 548.11"/>
    <polygon class="cls-1" points="182.81 548.25 182.8 548.25 182.81 548.25 182.81 548.25"/>
    <path class="cls-1" d="M176.05,541.57c-.38-.17-.8-.24-1.21-.27-.63-.03-1.25.02-1.86.18-.75.2-1.44.53-1.99,1.1-.3.31-.64.59-.91.92-.29.36-.66.66-.88,1.08h0c-.06.08-.11.16-.17.24h0c-.04.05-.07.1-.11.15h0c-.17.05-.25.2-.31.34-.2.43-.48.82-.73,1.22-.05.08-.1.16-.08.26,0,0,0,0,0,0-.23.28-.36.6-.51.92-.29.64-.57,1.28-.71,1.98-.06.3-.13.59-.19.89-.25,1.35-.32,2.7.03,4.05.15.59.34,1.17.6,1.72.07.16.11.34.25.46,0,0,0,0,0,0,0,.08.04.14.1.19h0c.18.42.43.78.76,1.1,0,0,0,0,0,0,.03.05.05.12.09.16.72.85,1.62,1.46,2.64,1.88,1.6.67,3.25.69,4.9.21,1-.29,1.9-.77,2.73-1.38.42-.31.84-.64,1.13-1.1,0,0,0,0,0,0,.02-.02.04-.04.05-.07.02,0,.03-.02.05-.03.2-.11.28-.32.41-.49.04-.05.07-.1.11-.14,0,0,0,0,0,0,.08-.02.14-.07.19-.14.63-.82,1.13-1.71,1.53-2.66.07-.16.2-.3.16-.49.07-.12.17-.22.14-.38,0,0,0,0,0,0,.02-.02.03-.05.04-.08,0,0,0,0,0,0,.26-.67.41-1.36.5-2.07.04-.31.1-.62.05-.94.04-.07.05-.14.02-.21,0,0,0,0,0,0h0s0,0,0,0c0-.04-.02-.09-.01-.13,0,0,0,0,0,0,0,.04,0,.09.01.13.02-.05.02-.09-.01-.13.06-.12.06-.23,0-.35,0,0,0,0,0,0h0s0,0,0,0c0,0,0,0,0,0,0-.05,0-.1,0-.15,0,0,0,0,0,0,.02-.02.02-.05.02-.07,0-.04,0-.08-.01-.12.02-.05.01-.09-.02-.13.07-.16.05-.32-.02-.48.04-.07.05-.14,0-.21,0,0,0,0,0,0,0,0,0,0,0,0h0c0-.05,0-.1-.02-.14h0s-.02-.09-.02-.14c-.02-.04-.03-.09-.02-.14-.02-.04-.03-.09-.02-.14,0,0,0,0,0,0,0,.05.02.09.03.14.02-.05.01-.1-.02-.14,0,0,0,0,0,0h0s0,0,0,0c0,0,0,0,0,0-.05-.65-.21-1.27-.5-1.85,0,0,0,0,0,0,0-.08-.03-.14-.1-.19.01-.05,0-.09-.04-.13,0-.08-.04-.14-.1-.19.01-.05,0-.09-.04-.12.01.04.02.08.04.12h0s-.03-.08-.04-.12c-.01-.03-.03-.04-.05-.06-.03-.04-.04-.09-.05-.13-.2-.4-.4-.8-.74-1.11,0,0,0,0,0,0-.31-.56-.82-.93-1.3-1.33-.3-.24-.64-.41-.99-.58-.67-.33-1.37-.54-2.12-.57-.24-.01-.47-.05-.7-.15ZM171.23,556s0,0,0,0c.04,0,.08.01.12.03-.04,0-.08-.02-.12-.03ZM177.08,556.49s0-.02,0-.03c0,0,0,0,0,0,0,.01,0,.02,0,.04,0,0,0,0,0,0ZM171.83,549.5s-.04-.02-.05-.03c.02.01.03.02.05.03ZM180.51,547.66s.04,0,.06.02c0,0,0,0,0,0-.02,0-.04-.01-.06-.02ZM173.68,543.6s-.06.05-.08.08c0-.05.03-.07.08-.08ZM182.87,549.35s-.02-.09-.02-.14c0,0,0,0,0,0,0,.04.01.09.02.13ZM182.16,545.94s0,0,0,0c-.02-.04-.03-.09-.03-.13,0,0,0,0,0,0,.01.04.02.09.03.13Z"/>
    <path class="cls-1" d="M120.5,521.72c-.5.64-.92,1.33-1.24,2.09-.06.14-.19.27-.15.44h0c-.22.46-.32.94-.29,1.45-.05.23-.07.46,0,.69,0,0,0,0,0,0-.03.21-.04.42.05.62.09.83.39,1.59.83,2.29.39.62.91,1.11,1.47,1.58.09.07.18.15.28.18.38.13.7.38,1.07.55.59.27,1.2.46,1.84.52,1.32.13,2.63.05,3.93-.18,1.08-.19,2.11-.56,3.12-.98.29-.12.6-.22.84-.45h0c.07-.03.15-.05.22-.09.35-.22.7-.45,1.05-.68.61-.42,1.19-.87,1.7-1.4.29-.3.59-.58.94-.81.61-.41,1.08-.96,1.41-1.61.11-.22.28-.43.28-.7,0,0,0,0,0,0,.25-.51.39-1.04.38-1.61h0c.04-.14.03-.28.03-.43,0-.56-.16-1.07-.35-1.59-.14-.36-.26-.73-.52-1.02-.02-.13-.1-.24-.18-.34-.48-.61-1.02-1.16-1.76-1.44-.12-.08-.23-.17-.36-.24-.28-.14-.55-.32-.86-.37,0,0,0,0,0,0l-.04-.03s-.04-.02-.04-.02c0,0,0,0,0,0-.05-.03-.11-.08-.17-.1-1.48-.51-2.99-.85-4.57-.75-.59.04-1.18.06-1.77.17-1.13.2-2.19.61-3.23,1.09-.27.13-.56.25-.78.47-.09,0-.14.04-.19.11-.12,0-.18.09-.26.17,0,0,0,0,0,0-.27.09-.47.27-.66.48-.12.01-.19.1-.25.19-.12.01-.18.1-.24.19,0,0,0,0,0,0h0s-.04.04-.05.06c-.12.02-.18.11-.24.2,0,0,0,0,0,0-.04.05-.07.09-.11.14-.03.01-.07.01-.09.04-.29.31-.61.61-.84.98,0,0,0,0,0,0-.08.02-.14.07-.19.14ZM127.66,525.28s-.02-.01-.02-.02c.02,0,.03,0,.05-.01,0,0-.02.02-.03.03ZM121.99,522.59s0,0,0,0c0,0,0,0,0,0,0,0,0,0,0,0ZM135.24,524.73s0,0,0,0c0,0,0,0,0,.01,0,0,0,0,0,0ZM136.02,520.09s-.06-.04-.09-.06c.04,0,.08.02.09.06ZM134.26,518.25s-.03-.04-.05-.06c0,0,0,0,0,0,.02.02.04.04.05.06Z"/>
    <path class="cls-1" d="M145.02,531.26s-.02-.09-.03-.13c-.02.05,0,.09.03.13Z"/>
    <path class="cls-1" d="M182.83,548.38s.01.09.02.13c.02-.05.01-.09-.02-.13Z"/>
    <path class="cls-1" d="M187.73,520.46s.02.09.03.13c.02-.05,0-.09-.03-.13Z"/>
  </g>
  <g>
    <path class="cls-1" d="M602.56,325.08c-.54.02-1.09.05-1.63.1-1.12.12-2.21.39-3.25.83-1.41.59-2.69,1.37-3.74,2.48-.53.56-1,1.17-1.35,1.86-.15.3-.28.61-.4.93-.12.32-.41.53-.58.82-.55.93-.86,1.91-.84,3.01.03,1.24.44,2.31,1.21,3.27.45.56,1.02.98,1.61,1.36,1.46.93,3.08,1.42,4.76,1.72.93.17,1.88.2,2.83.15.06,0,.12-.04.18-.06.26.01.51.07.76-.04h0c.13,0,.26.03.38,0,.57-.07,1.14-.13,1.7-.25.53-.11,1.07-.17,1.57-.4.1,0,.2.01.28-.07,0,0,0,0,0,0,.13.01.25-.03.38-.07.47-.15.95-.31,1.42-.45.6-.18,1.18-.42,1.72-.74.3-.18.61-.36.9-.56.5-.36.97-.73,1.37-1.21.55-.65.94-1.38,1.23-2.17.1-.27.2-.54.2-.84h0c.06-.06.09-.13.1-.21.07-.73.19-1.46.11-2.21-.12-1.03-.42-2-.95-2.9-.4-.67-.86-1.28-1.43-1.8-.41-.38-.84-.74-1.37-.96-.63-.44-1.35-.7-2.07-.95-.24-.08-.48-.19-.74-.18-.19-.15-.43-.12-.65-.15,0,0,0,0,0,0-.1-.1-.23-.1-.36-.11-1.12-.11-2.23-.27-3.36-.22ZM605.2,336.28s0,0,0-.01c0,0,.01.01.02.02,0,0-.01,0-.02,0ZM603.21,333.38s0-.04,0-.05c.02.02.04.04.06.06-.02,0-.04,0-.05,0ZM606.36,334.83s0,.02,0,.04c0-.01,0-.02,0-.04Z"/>
    <path class="cls-1" d="M561.71,364.33c1.37-.39,2.73-.85,4.06-1.36,1.46-.55,2.9-1.14,4.32-1.78,1.07-.48,2.12-.99,3.17-1.52,1.58-.81,3.14-1.69,4.64-2.64.43-.28.88-.52,1.27-.87.06-.02.13-.04.18-.07.62-.45,1.24-.9,1.86-1.36.09-.07.16-.15.24-.23.2-.1.37-.25.52-.42,0,0,0,0,0,0,.38-.31.77-.62,1.15-.94.18-.15.38-.29.52-.49h0s.07-.06.1-.09h0c.12-.05.2-.13.23-.26,0,0,0,0,0,0h0s0,0,0,0c0,0,0,0,0,0h0c.05,0,.09-.04.11-.09.05-.01.09-.04.1-.09h0s0,0,0,0c0,0,0,0,0,0h0s0,0,0,0c0,0,0,0,0,0h0s-.07.06-.1.09c0,0,0,0,0,0,.03-.04.06-.07.1-.09.03-.04.07-.06.11-.09.06-.05.14-.08.19-.14.53-.56,1.06-1.12,1.54-1.72,1.01-1.25,1.89-2.59,2.48-4.09.15-.38.36-.75.38-1.18,0,0,0,0,0,0,.02-.02.05-.05.06-.07.08-.34.2-.67.23-1.02.02-.17.04-.35.09-.52.07-.22.1-.44.09-.66-.03-.54.05-1.08-.03-1.62-.07-.45-.07-.92-.26-1.35,0-.03,0-.05,0-.08.01-.08,0-.16-.07-.22,0,0,0,0,0,0,0-.03,0-.05,0-.08h0c-.01-.23-.09-.44-.16-.65-.34-.97-.75-1.91-1.29-2.78-.2-.32-.37-.68-.66-.94-.03-.07-.05-.15-.1-.21-.32-.42-.62-.85-.96-1.25-.45-.54-.93-1.06-1.4-1.57-.19-.21-.41-.4-.62-.59-.02-.03-.04-.06-.08-.09-.02-.02-.05-.03-.07-.04,0,0,0,0,0,0-.09-.11-.18-.23-.28-.33-1.06-1-2.17-1.95-3.32-2.85-1.33-1.04-2.7-2.01-4.1-2.95-1.21-.82-2.45-1.58-3.7-2.33-.08-.05-.17-.08-.26-.12-.35-.3-.77-.49-1.18-.69,0,0,0,0,0,0-.1-.07-.2-.15-.31-.22-.39-.23-.78-.45-1.17-.67-.75-.43-1.53-.8-2.33-1.15-.81-.35-1.63-.65-2.48-.89-.83-.23-1.67-.46-2.53-.55-.26-.03-.51-.06-.77-.07-.43-.03-.86-.09-1.3-.08-.54.01-1.08.08-1.62.13-.17.02-.35.03-.51.13-.24-.02-.46.05-.67.15h0c-.06,0-.13,0-.19.03-.89.24-1.72.62-2.49,1.12-.3.2-.65.36-.87.67h0s0,0,0,0c-.03.03-.07.06-.1.09h0c-.27.15-.48.36-.65.61,0,0,0,0,0,0-.17.11-.34.24-.42.44,0,0,0,0,0,0-.31.25-.53.59-.76.9-.3.41-.59.83-.79,1.29,0,0,0,0,0,0-.34.48-.57,1.01-.71,1.58-.12.1-.11.24-.13.38,0,0,0,0,0,0-.07.05-.09.13-.11.21-.11.45-.25.89-.34,1.35-.15.77-.31,1.54-.37,2.32-.09,1.18-.19,2.37-.25,3.55-.1,1.86-.29,3.71-.45,5.57-.02.24-.03.48.02.72,0,0,0,0,0,0,0,.06-.01.13-.02.19,0,0,0,0,0,0,0,0,0,0,0,0-.02.26-.04.51-.07.77,0,0,0,0,0,0-.01.19-.03.39-.04.58,0,0,0,0,0,0-.02.24-.05.48-.07.72-.18,2-.33,4-.44,6-.03.51-.07,1.02-.11,1.54,0,.11-.03.22.05.32,0,.12-.01.25-.02.37,0,0,0,0,0,0h0c-.07.41-.03.83-.02,1.24,0,.41,0,.83.02,1.24.05.7.11,1.4.19,2.09.04.33.05.67.18.98,0,0,0,0,0,0,0,.03,0,.06,0,.1-.02.08,0,.16.06.22,0,0,0,0,0,0v.04s0,.04,0,.04c-.01.11-.02.21.07.3,0,0,0,0,0,0,0,.31.1.6.21.89.04.32.12.63.3.9,0,0,0,0,0,0h0s0,0,0,0c0,0,0,0,0,0,0,.08,0,.16.08.22,0,0,0,0,0,0,0,.03,0,.05.01.07,0,0,0,0,0,0,.12.4.3.78.49,1.15.44.88,1.01,1.68,1.72,2.37,1.41,1.36,3.13,2.09,5.05,2.37.44.06.89.11,1.33.22.59.14,1.18.23,1.79.26.85.04,1.66-.09,2.47-.32ZM550.34,343.65s.07-.02.1-.04c-.03.03-.06.04-.1.04ZM554.83,338.88s0,0,0,0h0s0,0,0,0ZM576.1,336.34s0,0,0-.01c0,0,0,0,0,.01ZM562.07,346.29c.07,0,.14.02.2.06.15.1.21.25.1.39-.02.02-.03.04-.04.06-.07-.17-.17-.36-.25-.51ZM575.87,347.83s0,0,0,0c0,0,0,0,0,0,0,0,0,0,0,0ZM558.05,349.76c.03.07.06.13.05.2-.02-.07-.04-.13-.05-.2ZM556.5,331.05s0-.04,0-.06c0,.02,0,.04,0,.06ZM575.99,349.07s0,0,0,0c0,0,0,0,0,0,0,0,0,0,0,0ZM553.5,350.64s0,0,0,0c0,0,0,0,0,0ZM562.38,354.4s.01.01.02.02c.03.03.02.06,0,.09,0-.04-.02-.07-.03-.11ZM553.5,356.27s.01.06,0,.09c0-.03,0-.06,0-.09ZM565.21,359.69s0,.03-.01.04c0-.02-.02-.05-.04-.08.02,0,.04.03.06.04ZM556.93,334.8s0,0,0,0c0,0,0,0,0,0h0s0,0,0,0ZM553.59,355.06s-.01,0-.02,0c-.01-.02-.02-.04-.03-.07,0,0,.02-.02.02-.02,0,.03.02.07.03.1ZM578.61,351.37s0-.02,0-.03c.03.01.05.03.07.05-.02,0-.04-.01-.07-.02ZM583.13,337.97s0,0,0-.01c0,.03-.02.06-.02.08,0-.02,0-.05.01-.07ZM583.26,337.47s0,.07-.01.1c-.01-.03,0-.07.01-.1ZM555.32,359.72s0,0,0,0c0,0,0,0,0,0,0,0,0,0,0,0ZM563.07,361.96s-.09-.04-.12-.07c-.05-.05-.08-.12-.02-.17.06-.05.12-.1.19-.15,0,.12,0,.27,0,.4-.02,0-.04,0-.06-.02ZM552.16,348.57s-.03-.03-.04-.05c.01.02.03.03.04.05ZM556.34,361.29s0,0,0,0c0,0,0,0,0,0,0,0,0,0,0,.01ZM587.81,339.67s.02-.05.04-.06c-.01.02-.03.04-.04.06ZM550.22,346.54c0-.05,0-.1,0-.13.02.05.03.09,0,.13ZM548.56,349.85s-.02,0-.03,0c0,0,0,0,0-.01,0,0,.02.01.02.02Z"/>
    <polygon class="cls-1" points="591.85 359.1 591.85 359.1 591.85 359.1 591.85 359.1"/>
    <path class="cls-1" d="M598.44,348.53c-1.22.1-2.4.34-3.5.91-.58.31-1.12.67-1.57,1.17-.09.04-.16.1-.2.19h0c-.44.41-.77.89-1,1.44-.57.59-.95,1.28-1.2,2.05-.37,1.11-.38,2.23,0,3.34.18.5.4.98.79,1.35,0,0,0,0,0,0h0s0,0,0,0c0,0,0,0,0,0,.04.03.06.06.09.1.04.03.07.06.09.1,0,0,0,0,0,0,.09.16.2.31.36.41h0s0,0,0,0c.05.16.21.24.32.35,1.09,1.15,2.31,2.13,3.65,2.97,1.23.77,2.52,1.41,3.89,1.87.83.28,1.68.52,2.55.69.88.17,1.76.34,2.66.4.37.02.74,0,1.1.02.42.02.83,0,1.25-.05.17-.02.36.04.51-.08,0,0,0,0,0,0,.4.02.79-.04,1.16-.18,0,0,0,0,0,0,.03,0,.06,0,.09-.01.11.01.21.02.3-.07.95-.16,1.83-.53,2.64-1.03.28-.17.59-.32.79-.6.28-.14.44-.4.64-.62.08-.03.11-.09.12-.17.05-.01.08-.04.1-.09.77-.84,1.2-1.85,1.41-2.94.21-1.12.16-2.23-.19-3.32-.17-.52-.38-1.02-.72-1.45-.04-.11-.08-.22-.18-.29h0s0,0,0,0c-.04-.14-.13-.24-.25-.32-.08-.12-.16-.24-.25-.35-.62-.78-1.38-1.39-2.17-1.98-.07-.06-.17-.09-.25-.13-.04-.02-.07-.06-.1-.09-.02-.02-.05-.03-.08-.03-.04-.02-.08-.06-.11-.09-.02-.02-.04-.02-.07-.02-.04-.03-.07-.06-.11-.09,0,0,0,0,0,0h0s-.05-.03-.07-.03c0,0,0,0,0,0-.06-.05-.12-.1-.19-.15-1.29-.81-2.65-1.47-4.08-1.97-.25-.09-.5-.22-.77-.24-.06-.01-.12-.03-.18-.04,0,0,0,0,0,0-.07-.09-.18-.09-.28-.1,0,0,0,0,0,0-.2-.13-.43-.15-.65-.16-.07-.08-.16-.1-.25-.11-.38-.06-.75-.15-1.12-.23-.62-.14-1.25-.18-1.88-.24,0,0,0,0,0,0-1.02-.13-2.03-.17-3.06-.09ZM601.21,358.68s-.02,0-.02,0c0,0,0,0,0-.01,0,0,.02,0,.02.01ZM606.46,359.89s-.01-.05-.02-.07c.02.02.02.05.02.07ZM610.74,359.87s-.02-.06-.04-.08c0,0,0,0,.01,0,.03.03.07.05.1.07-.03.04-.05.07-.07.11,0-.04,0-.07,0-.11ZM612.57,363.57s.05.01.07.03c-.02,0-.05-.02-.07-.03ZM591.65,354.84s0,0-.01,0c0,0,0,0,0-.01,0,0,0,0,.01,0ZM613.97,363.09s0,0,0,0c.03-.04.06-.07.1-.09,0,0,0,0,0,0-.03.03-.06.06-.1.09Z"/>
    <polygon class="cls-1" points="580.01 311.38 580.01 311.38 580 311.38 580.01 311.38"/>
    <polygon class="cls-1" points="580.12 311.3 580.11 311.3 580.11 311.3 580.12 311.3"/>
    <path class="cls-1" d="M577.58,320.45c.04.42.18.81.36,1.19.28.57.63,1.08,1.06,1.53.54.56,1.17,1,1.94,1.2.42.11.82.27,1.25.35.46.08.9.25,1.37.24h0c.1,0,.19.02.29.03h0c.06,0,.12.01.19.02h0c.13.13.3.12.45.11.48-.04.95.02,1.42.04.1,0,.19,0,.27-.06,0,0,0,0,0,0,.35.06.7.02,1.05,0,.7-.06,1.4-.13,2.07-.35.29-.09.58-.18.87-.27,1.3-.44,2.51-1.04,3.52-2,.44-.42.85-.87,1.2-1.37.1-.14.24-.26.28-.44,0,0,0,0,0,0,.08-.04.11-.1.12-.18h0c.27-.36.48-.76.59-1.2,0,0,0,0,0,0,.03-.05.08-.1.1-.16.39-1.04.48-2.13.35-3.22-.2-1.72-.98-3.17-2.21-4.38-.74-.73-1.6-1.28-2.54-1.71-.48-.22-.97-.42-1.51-.45,0,0,0,0,0,0-.03-.01-.05-.02-.08-.01-.01-.01-.03-.02-.05-.03-.19-.12-.42-.09-.63-.12-.06,0-.12-.02-.18-.02,0,0,0,0,0,0-.06-.06-.13-.08-.21-.1-1.02-.15-2.04-.15-3.07-.04-.17.02-.36-.03-.51.09-.14,0-.28-.04-.4.06,0,0,0,0,0,0-.03,0-.06,0-.09,0,0,0,0,0,0,0-.71.1-1.39.31-2.05.57-.29.12-.6.21-.85.42-.08,0-.15.02-.19.09,0,0,0,0,0,0h0s0,0,0,0c-.04.03-.07.06-.11.08,0,0,0,0,0,0,.04-.03.07-.05.11-.08-.05,0-.09.03-.11.08-.13,0-.23.06-.31.17,0,0,0,0,0,0h0s0,0,0,0c0,0,0,0,0,0-.04.03-.08.05-.13.08,0,0,0,0,0,0-.03,0-.05,0-.07.02-.03.02-.07.05-.1.07-.05,0-.09.03-.11.08-.18.02-.31.12-.41.25-.08,0-.14.02-.19.09,0,0,0,0,0,0,0,0,0,0,0,0h0s-.07.05-.11.08h0s-.07.06-.11.08c-.03.04-.06.07-.11.09-.03.04-.06.07-.11.09,0,0,0,0,0,0,.04-.03.07-.06.11-.09-.05,0-.09.04-.11.09,0,0,0,0,0,0h0s0,0,0,0c0,0,0,0,0,0-.54.36-1,.8-1.37,1.34,0,0,0,0,0,0-.08.03-.11.1-.12.18-.05.01-.08.05-.1.09-.08.04-.11.1-.12.18-.05.01-.08.04-.09.09.03-.03.06-.06.09-.09h0s-.06.06-.09.09c-.02.02-.03.05-.02.07-.02.05-.05.08-.09.11-.25.37-.5.74-.61,1.18,0,0,0,0,0,0-.34.54-.42,1.17-.52,1.78-.07.38-.05.76-.03,1.15.04.75.2,1.46.53,2.13.11.22.19.44.21.68ZM592.53,317.62s0,0,0,0c-.01-.04-.03-.08-.03-.11.01.04.02.08.04.11ZM590.1,312.28s-.02.01-.03.02c0,0,0,0,0,0,0,0,.02-.02.03-.02,0,0,0,0,0,0ZM586.56,320.27s0,.04,0,.06c0-.02,0-.04,0-.06ZM580.72,313.59s-.01-.04-.01-.06c0,0,0,0,0,0,0,.02,0,.04,0,.06ZM580.51,321.53s.07.02.11.03c-.04.02-.08.01-.11-.03ZM581.04,310.7s-.07.06-.11.08c0,0,0,0,0,0,.04-.03.07-.05.11-.08ZM578.41,312.98s0,0,0,0c-.02.04-.06.07-.1.09,0,0,0,0,0,0,.03-.03.06-.06.1-.09Z"/>
    <path class="cls-1" d="M587.34,378.63c.81.12,1.61.15,2.43.06.15-.02.32.03.46-.08h0c.51-.04.98-.18,1.41-.45.23-.06.43-.16.6-.33,0,0,0,0,0,0,.2-.08.39-.17.52-.34.68-.48,1.2-1.11,1.59-1.84.35-.64.53-1.34.66-2.05.02-.11.04-.23.02-.34-.07-.4-.01-.8-.04-1.2-.05-.65-.19-1.27-.44-1.86-.53-1.21-1.24-2.32-2.07-3.34-.69-.85-1.51-1.57-2.38-2.24-.25-.19-.49-.42-.81-.52h0c-.06-.05-.12-.11-.18-.15-.37-.2-.73-.4-1.1-.58-.66-.33-1.34-.62-2.05-.8-.41-.1-.79-.23-1.17-.42-.66-.33-1.36-.47-2.09-.44-.25.01-.51-.03-.75.09,0,0,0,0,0,0-.56.03-1.1.16-1.58.46h0c-.14.03-.26.11-.39.18-.48.27-.86.67-1.21,1.08-.25.29-.51.58-.64.95-.11.08-.16.2-.21.32-.3.72-.51,1.45-.4,2.24-.01.14-.04.29-.03.43.02.31-.01.63.1.94,0,0,0,0,0,0v.05s0,.05,0,.05c0,0,0,0,0,0,0,.06-.02.13,0,.19.28,1.54.72,3.03,1.58,4.36.32.5.63,1,1.01,1.46.73.89,1.6,1.62,2.52,2.29.24.18.49.36.79.45.04.08.11.1.19.11.06.11.17.12.27.14,0,0,0,0,0,0,.21.19.47.28.74.34.07.1.18.11.29.12.07.1.17.11.28.11,0,0,0,0,0,0h0s.05.02.08.02c.07.1.18.11.29.11,0,0,0,0,0,0,.06,0,.12.02.17.03.02.02.05.05.07.06.42.1.83.24,1.26.25,0,0,0,0,0,0,.06.06.13.08.21.1ZM586.96,370.64s0,.02,0,.03c-.01-.01-.02-.02-.03-.04.01,0,.02,0,.04.01ZM587.38,376.9s0,0,0,0c0,0,0,0,0,0,0,0,0,0,0,0ZM582.78,364.29s0,0,0,0c0,0,0,0,0,0,0,0,0,0,0,.01ZM578.35,365.88s0,.07-.01.11c-.03-.03-.02-.08.01-.11ZM577.6,368.31s-.02.05-.03.08c0,0,0,0,0,0,0-.03.02-.06.03-.08Z"/>
    <path class="cls-1" d="M583.72,352.57s-.07.06-.1.09c.05,0,.08-.04.1-.09Z"/>
    <path class="cls-1" d="M580.22,311.21s.07-.05.11-.08c-.05,0-.09.03-.11.08Z"/>
    <path class="cls-1" d="M553.45,320.56s.07-.06.1-.09c-.05,0-.09.04-.1.09Z"/>
  </g>
</svg>