<svg xmlns="http://www.w3.org/2000/svg" width="178.194" height="178" viewBox="0 0 178.194 178">
  <g id="slogan" transform="translate(-11.584 0.741)">
    <g id="그룹_9" data-name="그룹 9" transform="translate(11.584 -0.741)">
      <path id="패스_80" data-name="패스 80" d="M516.868,413.614c-2.3,4.269-4.465,5.745-6.706,4.539s-2.221-3.836.077-8.105,4.483-5.734,6.724-4.53,2.2,3.827-.1,8.1Zm-4.637-2.5c-1.559,2.9-1.817,4.3-.872,4.815s1.939-.451,3.519-3.389,1.838-4.293.892-4.8-1.977.48-3.537,3.377Zm12.742,7.435c1.85-3.439,2.14-4.577,1.272-5.046-.928-.5-1.625.2-3.3,3.306a49.342,49.342,0,0,0-2.407,5.307c-.127.329-.376.421-.735.252l-1.1-.5c-.3-.136-.371-.374-.234-.723a47.379,47.379,0,0,1,1.918-4.4l-.753-.406a.5.5,0,0,0-.744.222,51.539,51.539,0,0,0-2.633,5.262.48.48,0,0,1-.744.273l-1.044-.56a.52.52,0,0,1-.261-.765c.593-1.473,2.034-4.239,3.507-6.931,1.921-3.525,3.083-5.591,3.842-6.676a.53.53,0,0,1,.783-.2l1.044.56a.487.487,0,0,1,.184.771c-.886,1.417-2.336,3.925-3.4,5.846a.647.647,0,0,1,.679-.009l.753.406c2.12-3.519,3.756-4.382,5.84-3.258,2.336,1.257,2.212,3.433-.471,8.417-.572,1.061-1.118,1.939-2.564,4.3a.514.514,0,0,1-.762.213l-1.044-.56a.481.481,0,0,1-.193-.753c1.361-2.206,2.013-3.326,2.564-4.349Z" transform="translate(-361.656 -288.785)" fill="#1679e1"/>
      <path id="패스_81" data-name="패스 81" d="M469.537,460.327c4.3-4.717,5.7-5.464,7.367-3.943,1.556,1.42,1.047,2.855-2.458,6.7-.8.875-1.687,1.788-2.425,2.659-.531.614-.611.928-.27,1.239s.679.264,1.2-.3c1.494-1.636,4.545-5.209,6.072-7.112.2-.258.439-.252.7-.015l.729.664a.437.437,0,0,1,.047.7c-.866,1.079-1.9,2.309-2.941,3.552l.439.4a.618.618,0,0,1,.228.563c1.479-1.622,3.492-3.732,4.732-4.862a.478.478,0,0,1,.729-.018l.794.723a.442.442,0,0,1-.012.729c-1.014.946-2.63,2.591-5.351,5.541-2.087,2.253-4.153,4.586-5.087,5.87a.436.436,0,0,1-.726.08l-.777-.709a.484.484,0,0,1-.065-.741c.966-1.287,2.721-3.276,3.875-4.542a.487.487,0,0,0-.036-.774l-.406-.371c-.916,1.035-1.8,2.007-2.514,2.754-1.023,1.055-1.749,1.135-2.544.412a1.936,1.936,0,0,1-.418-2.309l-.534.584a.406.406,0,0,1-.667.015l-.664-.6c-.258-.237-.27-.454-.047-.667.966-.961,2.446-2.55,4.456-4.755,2.469-2.707,2.7-3.122,2.212-3.563-.566-.519-1.159.13-4.159,3.421a52.644,52.644,0,0,0-3.629,4.53.413.413,0,0,1-.679.092l-.774-.617a.441.441,0,0,1-.11-.694,52.688,52.688,0,0,1,3.718-4.628Zm7.4,14.055a.435.435,0,0,1-.714.033l-.794-.723a.444.444,0,0,1-.033-.714l7.361-8.073c.857-.94,1.814-1.076,2.624-.338l2.819,2.573a.785.785,0,0,1,.074,1.254l-6.831,7.489a1.869,1.869,0,0,1-2.828.3,2.923,2.923,0,0,1-.78-2.79l-.9.987Zm2.621-.759a.841.841,0,0,0,1.313-.139l4.48-4.912a.409.409,0,0,0-.03-.652l-.958-.872c-.291-.267-.614-.2-.94.151l-3.964,4.343a1.442,1.442,0,0,0,.095,2.075Z" transform="translate(-331.544 -324.357)" fill="#1679e1"/>
      <path id="패스_82" data-name="패스 82" d="M432.828,498.85l.667,1.005a.479.479,0,0,1-.2.765c-1.414.726-3.993,2.194-6.048,3.5a1.009,1.009,0,0,1,.978.483l1.429,2.158,2.049-1.355c1.355-.9,2.668-.741,3.522.433l4.622,6.386a.512.512,0,0,1-.16.792l-1.153.762a.533.533,0,0,1-.792-.16l-1.26-1.743-6.9,4.566,1.133,1.829a.531.531,0,0,1-.16.792l-1.153.762a.512.512,0,0,1-.792-.16l-4.073-6.75a2.379,2.379,0,0,1,.978-3.409l2.031-1.343-1.539-2.324c-.267-.4-.575-.433-1.017-.145a48.567,48.567,0,0,0-4.539,3.4.48.48,0,0,1-.786-.113L419,507.975c-.2-.311-.163-.525.13-.8a58.744,58.744,0,0,1,6.27-4.6,53.8,53.8,0,0,1,6.641-3.922.542.542,0,0,1,.786.19Zm.863,9.137a.855.855,0,0,0-1.319-.2l-4.939,3.27a.873.873,0,0,0-.344,1.307l1.272,2.078,6.75-4.468-1.417-1.983Z" transform="translate(-298.6 -354.538)" fill="#1679e1"/>
      <path id="패스_83" data-name="패스 83" d="M377.585,531.652l.4,1.138a.479.479,0,0,1-.385.694c-1.548.356-4.408,1.147-6.724,1.909a1.008,1.008,0,0,1,.83.709l.617,1.761c3.51-.993,5.363-.412,6.11,1.722.839,2.4-.646,4.13-5.037,5.665s-6.632,1.109-7.471-1.293c-.768-2.194.424-3.842,4.011-5.283l-.673-1.927c-.16-.457-.451-.563-.949-.388a48.519,48.519,0,0,0-5.236,2.179.479.479,0,0,1-.732-.3l-.4-1.138c-.125-.353-.03-.548.323-.741a58.66,58.66,0,0,1,7.207-2.914,53.775,53.775,0,0,1,7.4-2.167c.394-.068.6.047.714.379Zm-9.273,19.276a.48.48,0,0,1-.7-.338l-.433-1.242a.48.48,0,0,1,.338-.7l12.591-4.4a.481.481,0,0,1,.7.338l.433,1.242a.479.479,0,0,1-.338.7l-5.55,1.939a.805.805,0,0,1,.6.6l.16.456a.48.48,0,0,1-.338.7l-1.346.471a.481.481,0,0,1-.7-.338l-.276-.789c-.095-.27-.282-.344-.593-.234l-4.557,1.592Zm3.409-10.462c-2.941,1.029-3.75,1.7-3.415,2.659s1.387.978,4.328-.05,3.75-1.7,3.415-2.659S374.661,539.437,371.721,540.466Z" transform="translate(-258.514 -377.533)" fill="#1679e1"/>
      <path id="패스_84" data-name="패스 84" d="M313.049,550.747l-1.31.113a.517.517,0,0,1-.62-.543,18.6,18.6,0,0,0-.053-2.176,1.932,1.932,0,0,0-2.36-1.823c-4.088.353-6.9.726-9.454,1.186-.347.074-.557-.083-.614-.474l-.19-1.195c-.05-.326.11-.516.477-.59,2.146-.406,5.651-.883,9.475-1.21,3.039-.261,4.942,1.118,5.158,3.652a17.815,17.815,0,0,1,.077,2.437.594.594,0,0,1-.584.623Zm-13.554.878a.479.479,0,0,1,.5-.593l1.31-.113a.479.479,0,0,1,.593.5l1.064,12.371a.479.479,0,0,1-.5.593l-1.31.113a.479.479,0,0,1-.593-.5l-1.064-12.371Zm7.6,8.947c-.5.044-.643.21-.6.646l.175,2.034a.479.479,0,0,1-.5.593l-1.31.113a.479.479,0,0,1-.593-.5L303.213,551.3a.479.479,0,0,1,.5-.593l1.31-.113a.479.479,0,0,1,.593.5l.646,7.518a.856.856,0,0,1,.709-.457l1.9-.163a.479.479,0,0,1,.593.5l.113,1.31a.479.479,0,0,1-.5.593l-1.989.172Zm9.359-8.179c.35-.03.519.154.548.5l.1,1.2a.479.479,0,0,1-.5.593c-1.66.142-2.662,1.814-2.481,3.934l.317,3.673a.479.479,0,0,1-.5.593l-1.31.113a.479.479,0,0,1-.593-.5l-.314-3.673c-.184-2.12-1.456-3.6-3.116-3.454a.479.479,0,0,1-.593-.5l-.1-1.2c-.03-.35.107-.56.457-.59a4.417,4.417,0,0,1,4.287,2.472,4.412,4.412,0,0,1,3.8-3.166Z" transform="translate(-213.871 -386.501)" fill="#1679e1"/>
      <path id="패스_85" data-name="패스 85" d="M236.826,559.3l-1.364-.219a.537.537,0,0,1-.468-.676l2.914-18.016a.536.536,0,0,1,.658-.492l1.364.219a.537.537,0,0,1,.468.676l-1.218,7.536a.942.942,0,0,1,.958-.291l1.408.228a.479.479,0,0,1,.454.629l-.21,1.3a.479.479,0,0,1-.629.454l-1.539-.249c-.519-.083-.792.095-.869.569l-1.269,7.839a.536.536,0,0,1-.658.492Zm13.293-1.138-.211,1.3a.479.479,0,0,1-.628.454l-8.3-1.343a.479.479,0,0,1-.454-.629l.211-1.3a.479.479,0,0,1,.629-.454l8.3,1.343A.479.479,0,0,1,250.119,558.161Zm-3.054-14.094c3.38.546,5.1,2.959,4.563,6.27-.587,3.638-2.834,5.164-6.777,4.527a17.606,17.606,0,0,1-2.784-.649.56.56,0,0,1-.418-.711l.2-1.233c.062-.388.285-.531.626-.433a22.806,22.806,0,0,0,2.419.569c2.6.421,3.91-.412,4.251-2.511.3-1.841-.688-3.154-2.769-3.492a12.014,12.014,0,0,0-3.516.163.719.719,0,0,1-.288,0,.485.485,0,0,1-.412-.465l-.136-1.221c-.047-.385.092-.563.483-.655a12.3,12.3,0,0,1,4.557-.151Z" transform="translate(-169.227 -383.604)" fill="#1679e1"/>
      <path id="패스_86" data-name="패스 86" d="M73.916,437.786l4.352,5.9,3.2-1.023a.613.613,0,0,1,.789.181l.952,1.29c.208.282.166.557-.163.667l-16.05,5a.791.791,0,0,1-1-.323l-1.224-1.66a.792.792,0,0,1-.015-1.052L74.263,432.9c.2-.285.477-.243.685.042l.952,1.29a.614.614,0,0,1-.059.806l-1.921,2.754Zm-1.447,2.1-5.01,7.213,8.372-2.659Z" transform="translate(-49.328 -308.199)" fill="#1679e1"/>
      <path id="패스_87" data-name="패스 87" d="M49.982,406.749c.8,1.663,2.221,2.295,3.644,1.61l6.866-3.294a.536.536,0,0,1,.78.258l.6,1.245a.536.536,0,0,1-.288.771l-10.643,5.105a.536.536,0,0,1-.78-.258l-.6-1.245a.538.538,0,0,1,.288-.771l.691-.332a5.369,5.369,0,0,1-3.036-2.68c-1.272-2.65-.418-5.031,2.372-6.368l6.964-3.338a.536.536,0,0,1,.78.258l.6,1.245a.538.538,0,0,1-.288.771l-6.587,3.16c-1.761.845-2.2,2.1-1.358,3.863Z" transform="translate(-36.923 -283.344)" fill="#1679e1"/>
      <path id="패스_88" data-name="패스 88" d="M24.88,389.7a.534.534,0,0,1-.741-.356l-.436-1.31a.536.536,0,0,1,.382-.726l1.874-.623a.535.535,0,0,1,.741.356l.436,1.31a.54.54,0,0,1-.382.729l-1.874.623Zm4.041-1.34A.534.534,0,0,1,28.18,388l-.436-1.31a.54.54,0,0,1,.382-.729l10.993-3.649a.535.535,0,0,1,.741.356l.436,1.31a.54.54,0,0,1-.382.729Z" transform="translate(-20.558 -272.715)" fill="#1679e1"/>
      <path id="패스_89" data-name="패스 89" d="M24.547,334.8a3.441,3.441,0,0,1,1.15-3.415,4.136,4.136,0,0,1-2.226-3.125c-.371-2.25.913-3.907,3.335-4.308l8.508-1.405a.537.537,0,0,1,.676.465l.225,1.364a.536.536,0,0,1-.492.658l-8.076,1.331a1.808,1.808,0,0,0-1.7,2.348,1.89,1.89,0,0,0,2.188,1.8l8.268-1.364a.539.539,0,0,1,.679.465l.225,1.364a.536.536,0,0,1-.492.658l-8.076,1.331a1.809,1.809,0,0,0-1.7,2.348,1.89,1.89,0,0,0,2.188,1.8l8.268-1.364a.539.539,0,0,1,.679.465l.225,1.364a.536.536,0,0,1-.492.658L26.26,340.151a.535.535,0,0,1-.676-.465l-.225-1.364a.536.536,0,0,1,.492-.658l.519-.086a4.137,4.137,0,0,1-1.817-2.793Z" transform="translate(-20.376 -230.688)" fill="#1679e1"/>
      <path id="패스_90" data-name="패스 90" d="M34.494,281.245a8.6,8.6,0,0,1,1.23,4.619c-.119,2.784-1.684,4.474-4.094,4.373-3.267-.139-4.352-2.511-4.219-9.291l-.394-.018c-1.491-.062-2.389.931-2.467,2.727-.062,1.491.465,2.523,1.506,2.787.282.077.385.258.368.631l-.071,1.645c-.015.35-.222.56-.528.5-2.333-.427-3.6-2.481-3.469-5.725.148-3.507,1.8-5.215,4.936-5.084l7.913.335a.538.538,0,0,1,.569.6l-.059,1.382a.538.538,0,0,1-.617.546l-.614-.027ZM29.632,281c-.095,4.826.462,6.694,2.108,6.765,1.029.044,1.708-.916,1.773-2.493a8.958,8.958,0,0,0-1.011-4.15L29.629,281Z" transform="translate(-19.63 -199.644)" fill="#1679e1"/>
      <path id="패스_91" data-name="패스 91" d="M13.68,257.458a.536.536,0,0,1-.486-.664l.234-1.361a.538.538,0,0,1,.682-.462l15.609,2.7a.536.536,0,0,1,.486.664L29.97,259.7a.538.538,0,0,1-.682.462l-15.609-2.7Z" transform="translate(-13.182 -183.147)" fill="#1679e1"/>
      <path id="패스_92" data-name="패스 92" d="M35.781,193.9l4.468,1.829a.536.536,0,0,1,.332.753l-.525,1.278a.535.535,0,0,1-.765.3l-14.251-5.84a.921.921,0,0,1-.572-1.325l2.431-5.929c1.313-3.208,3.925-4.367,7.456-2.92s4.6,4.115,3.282,7.32L35.781,193.9Zm-8.506-3.486,6.273,2.57,1.805-4.405c.783-1.909.095-3.353-1.936-4.183-2.052-.842-3.555-.3-4.337,1.613Z" transform="translate(-21.051 -131.421)" fill="#1679e1"/>
      <path id="패스_93" data-name="패스 93" d="M63.334,153.079c-.821,1.349-.643,2.535.462,3.208l6.991,4.251a.536.536,0,0,1,.21.795l-.717,1.18a.539.539,0,0,1-.8.181l-10.086-6.134a.538.538,0,0,1-.21-.795l.717-1.18a.539.539,0,0,1,.8-.181l.356.216a4.392,4.392,0,0,1,.614-3.374,5.242,5.242,0,0,1,1.227-1.384.543.543,0,0,1,.789.095l.9.931a.469.469,0,0,1-.042.744,7.477,7.477,0,0,0-1.213,1.447Z" transform="translate(-45.476 -109.116)" fill="#1679e1"/>
      <path id="패스_94" data-name="패스 94" d="M83.99,122.542c2.363-2.855,5.591-3.175,9.007-.35s3.7,6.057,1.337,8.912-5.591,3.175-9.007.35S81.624,125.4,83.99,122.542Zm8.55,7.08c1.553-1.877,1.153-3.632-1.127-5.52s-4.079-1.954-5.633-.077-1.153,3.632,1.127,5.52S90.986,131.5,92.54,129.622Z" transform="translate(-61.913 -88.36)" fill="#1679e1"/>
      <path id="패스_95" data-name="패스 95" d="M111.71,87.416l-2.76-3.211a.536.536,0,0,1,.047-.821l1.049-.9a.537.537,0,0,1,.818.077l2.76,3.211,2.944-2.532a.479.479,0,0,1,.774.059l.857,1a.479.479,0,0,1-.059.774L115.2,87.6l4.005,4.657c.6.7,1.408.7,2.241-.018a12.751,12.751,0,0,0,1.242-1.183.424.424,0,0,1,.706-.056l.857,1a.557.557,0,0,1,0,.78,10.8,10.8,0,0,1-1.565,1.577c-1.829,1.574-3.709,1.509-5.153-.172l-4.248-4.942-2.461,2.117a.479.479,0,0,1-.774-.059l-.857-1a.479.479,0,0,1,.059-.774l2.464-2.117Z" transform="translate(-80.44 -61.695)" fill="#1679e1"/>
      <path id="패스_96" data-name="패스 96" d="M159.3,75.137c-3.469,2.108-6.463,1.233-8.755-2.535s-1.737-6.825,1.6-8.855c3.187-1.936,6.226-1.038,8.366,2.487a1.317,1.317,0,0,1-.424,2L153.4,72.305c1.405,1.764,2.84,1.971,4.809.774a3.06,3.06,0,0,0,1.8-2.787c-.033-.264.074-.43.353-.6l1.18-.717c.32-.193.56-.136.676.181C162.992,71.327,161.889,73.565,159.3,75.137Zm-1.328-8.179c-1.3-2.01-2.736-2.392-4.592-1.263-1.838,1.118-2.226,2.585-1.141,4.749l5.737-3.486Z" transform="translate(-108.846 -47.918)" fill="#1679e1"/>
      <path id="패스_97" data-name="패스 97" d="M201.662,54.647c-3.688,1.408-6.487-.012-8.052-4.112-1.559-4.079-.477-7.029,3.068-8.381,2.87-1.1,5.031-.537,6.519,1.761a.432.432,0,0,1-.166.673l-1.218.747c-.305.187-.5.169-.712-.08a2.773,2.773,0,0,0-3.5-.848c-2.253.86-2.751,2.389-1.672,5.218,1.112,2.911,2.458,3.664,4.936,2.719a2.848,2.848,0,0,0,2.04-3.267c-.021-.3.1-.462.477-.534l1.39-.3c.323-.077.489.047.551.4.474,2.778-.863,4.933-3.67,6.006Z" transform="translate(-139.631 -33.05)" fill="#1679e1"/>
      <path id="패스_98" data-name="패스 98" d="M236.758,22.042l-.833-4.15a.537.537,0,0,1,.442-.694l1.355-.273a.538.538,0,0,1,.676.468l.833,4.15,3.807-.765a.48.48,0,0,1,.646.43l.258,1.29a.48.48,0,0,1-.43.646l-3.807.765,1.21,6.021c.181.9.886,1.3,1.963,1.082a12.877,12.877,0,0,0,1.66-.424c.332-.133.581-.006.64.3l.258,1.29a.552.552,0,0,1-.379.679,10.932,10.932,0,0,1-2.138.608c-2.366.474-3.97-.5-4.405-2.674L237.233,24.4l-3.184.64a.48.48,0,0,1-.646-.43l-.258-1.29a.48.48,0,0,1,.43-.646l3.184-.64Z" transform="translate(-167.92 -15.671)" fill="#1679e1"/>
      <path id="패스_99" data-name="패스 99" d="M278.653,13.483a.537.537,0,0,1,.519-.637l1.379-.113a.535.535,0,0,1,.617.543l.163,1.969a.537.537,0,0,1-.519.637l-1.379.113a.535.535,0,0,1-.617-.543Zm.353,4.242a.537.537,0,0,1,.519-.637l1.376-.113a.535.535,0,0,1,.617.543l.955,11.544a.537.537,0,0,1-.519.637l-1.379.113a.535.535,0,0,1-.617-.543L279,17.726Z" transform="translate(-199.949 -12.73)" fill="#1679e1"/>
      <path id="패스_100" data-name="패스 100" d="M306.033,25.086c3.7.178,5.894,2.567,5.683,6.994s-2.624,6.593-6.327,6.415-5.894-2.567-5.683-6.994S302.331,24.908,306.033,25.086ZM305.5,36.174c2.431.116,3.6-1.254,3.738-4.213s-.886-4.435-3.317-4.551-3.6,1.254-3.738,4.213S303.072,36.058,305.5,36.174Z" transform="translate(-214.753 -21.416)" fill="#1679e1"/>
      <path id="패스_101" data-name="패스 101" d="M351.835,32.354c-1.8-.415-3.178.3-3.534,1.838l-1.717,7.417a.535.535,0,0,1-.691.448l-1.346-.311a.536.536,0,0,1-.421-.706l2.662-11.5a.535.535,0,0,1,.691-.448l1.346.311a.535.535,0,0,1,.421.706l-.172.747a5.368,5.368,0,0,1,3.99-.7c2.864.664,4.189,2.816,3.492,5.828l-1.74,7.524a.535.535,0,0,1-.691.448l-1.346-.311a.535.535,0,0,1-.421-.706l1.648-7.118c.442-1.9-.267-3.033-2.167-3.475Z" transform="translate(-245.998 -24.228)" fill="#1679e1"/>
      <path id="패스_102" data-name="패스 102" d="M413.488,60.741c-4.325-2.333-5.111-6.1-2.348-11.215,2.751-5.1,6.321-6.537,10.566-4.245,3.187,1.719,4.1,4.557,3.386,7.26-.089.3-.267.4-.637.305l-1.423-.368a.463.463,0,0,1-.394-.611,3.644,3.644,0,0,0-2.052-4.423c-2.9-1.562-5.176-.525-7.228,3.279-2.063,3.821-1.648,6.291,1.343,7.9,1.8.969,3.483.658,5.227-1.044.222-.228.439-.213.726.041l1.088.987c.267.243.3.46.065.709A6.326,6.326,0,0,1,413.488,60.741Z" transform="translate(-292.025 -34.887)" fill="#1679e1"/>
      <path id="패스_103" data-name="패스 103" d="M453.5,96.09c-3.14-2.57-3.311-5.686-.519-9.1s5.861-3.907,8.882-1.432c2.885,2.363,3.048,5.526.436,8.716a1.318,1.318,0,0,1-2.031.267l-6.06-4.96c-1.195,1.912-.913,3.332.869,4.794a3.06,3.06,0,0,0,3.226.768.569.569,0,0,1,.685.133l1.07.875c.288.237.314.483.053.7-1.788,1.456-4.263,1.159-6.608-.759Zm7.272-3.97c1.462-1.891,1.346-3.377-.335-4.752-1.663-1.361-3.178-1.242-4.859.5Z" transform="translate(-321.208 -62.877)" fill="#1679e1"/>
      <path id="패스_104" data-name="패스 104" d="M490.484,117.487c-1.2-1.4-2.736-1.642-3.937-.617l-5.784,4.951a.536.536,0,0,1-.821-.047l-.9-1.049a.535.535,0,0,1,.08-.818l8.968-7.675a.536.536,0,0,1,.821.047l.9,1.049a.535.535,0,0,1-.08.818l-.584.5a5.378,5.378,0,0,1,3.626,1.805c1.912,2.232,1.7,4.755-.649,6.765l-5.867,5.022a.536.536,0,0,1-.821-.047l-.9-1.049a.535.535,0,0,1,.08-.818l5.55-4.752C491.649,120.3,491.753,118.969,490.484,117.487Z" transform="translate(-340.825 -82.614)" fill="#1679e1"/>
      <path id="패스_105" data-name="패스 105" d="M523.548,151.492l3.626-2.188a.539.539,0,0,1,.8.181l.714,1.183a.537.537,0,0,1-.213.795l-3.626,2.188,2.007,3.323a.479.479,0,0,1-.187.753l-1.127.679a.479.479,0,0,1-.753-.187l-2.007-3.326-5.259,3.175c-.789.477-.922,1.275-.356,2.215a12.562,12.562,0,0,0,.961,1.42.421.421,0,0,1-.062.7l-1.127.679a.554.554,0,0,1-.768-.127,10.983,10.983,0,0,1-1.3-1.805c-1.248-2.066-.872-3.907,1.026-5.052l5.579-3.368-1.678-2.781a.479.479,0,0,1,.187-.753l1.127-.679a.479.479,0,0,1,.753.187l1.678,2.781Z" transform="translate(-365.635 -108.185)" fill="#1679e1"/>
      <path id="패스_106" data-name="패스 106" d="M528.659,200.523c-1.5-3.771-.136-6.579,3.964-8.206s7.02-.569,8.461,3.059c1.376,3.466-.018,6.309-3.851,7.833a1.32,1.32,0,0,1-1.906-.753l-2.89-7.278c-1.974,1.091-2.416,2.47-1.568,4.613a3.064,3.064,0,0,0,2.446,2.238c.264.012.412.142.534.451l.51,1.284c.136.347.039.575-.29.634-2.271.406-4.29-1.058-5.408-3.872Zm8.286.059c2.2-.943,2.816-2.3,2.013-4.316-.795-2-2.176-2.63-4.494-1.921l2.478,6.238Z" transform="translate(-375.424 -138.554)" fill="#1679e1"/>
      <path id="패스_107" data-name="패스 107" d="M550.815,240.417c-.356-1.539-1.31-2.265-2.57-1.974l-7.975,1.838a.537.537,0,0,1-.706-.424l-.311-1.346a.535.535,0,0,1,.448-.688l11.5-2.653a.537.537,0,0,1,.706.424l.311,1.346a.535.535,0,0,1-.451.688l-.406.095a4.39,4.39,0,0,1,1.918,2.846,5.211,5.211,0,0,1,.089,1.847.545.545,0,0,1-.632.483l-1.293-.039c-.341-.012-.5-.2-.489-.563a7.491,7.491,0,0,0-.142-1.883Z" transform="translate(-383.279 -169.21)" fill="#1679e1"/>
    </g>
    <g id="그룹_10" data-name="그룹 10" transform="translate(44.486 146.562)">
      <path id="패스_108" data-name="패스 108" d="M148.526,550c.074-.145.145-.288.208-.436a3.488,3.488,0,0,0,.255-.961,3.191,3.191,0,0,0-.1-1.328,2.309,2.309,0,0,0-.288-.62c-.056-.083-.119-.16-.181-.237a1.606,1.606,0,0,1-.127-.27,1.678,1.678,0,0,0-.658-.652,1.554,1.554,0,0,0-1.023-.157,1.862,1.862,0,0,0-.584.222,3.837,3.837,0,0,0-1.132.984,3.688,3.688,0,0,0-.448.711.156.156,0,0,0-.012.053.48.48,0,0,0-.1.2h0a.465.465,0,0,0-.056.1c-.062.157-.13.314-.184.477a2.244,2.244,0,0,0-.125.465c-.015.027-.033.05-.021.083h0a.24.24,0,0,0-.036.107c-.03.145-.059.291-.089.433a2.165,2.165,0,0,0-.056.551,2.789,2.789,0,0,0,.015.314,2.319,2.319,0,0,0,.113.531,2.117,2.117,0,0,0,.382.631.658.658,0,0,0,.19.172h0a.1.1,0,0,0,.042.056,3.051,3.051,0,0,0,.554.347,2.125,2.125,0,0,0,.889.172,2.35,2.35,0,0,0,.673-.11,1.378,1.378,0,0,0,.445-.216,2.389,2.389,0,0,0,.543-.4.673.673,0,0,0,.154-.163c.068-.027.092-.095.133-.145h0c.042-.012.059-.044.08-.077a7.074,7.074,0,0,0,.543-.836Zm-3.282-.937h0l0,0Zm1.041-.095a.036.036,0,0,0,.015.006.07.07,0,0,0-.024.006c0-.006.006-.009.009-.015Zm-.83.608a.015.015,0,0,1-.009,0A.011.011,0,0,1,145.455,549.574Z" transform="translate(-136.357 -531.253)" fill="#1679e1"/>
      <path id="패스_109" data-name="패스 109" d="M144.357,500.387c-.095.412-.175.827-.237,1.248-.068.457-.125.913-.163,1.376-.03.347-.053.694-.065,1.041-.018.528-.018,1.055.015,1.583a2.583,2.583,0,0,0,.041.454.363.363,0,0,0-.006.056c.027.225.053.454.083.679a.494.494,0,0,0,.024.095.472.472,0,0,0,.033.193h0c.027.145.047.288.077.433a.694.694,0,0,0,.053.2h0l.009.039h0a.1.1,0,0,0,.033.1h0a.056.056,0,0,0,.009.039.043.043,0,0,0,.009.042h0s-.006-.024-.009-.039h0a.092.092,0,0,1,.009.039.172.172,0,0,1,.009.042.2.2,0,0,0,.009.071c.068.216.136.436.222.646a4.653,4.653,0,0,0,.7,1.233,1.134,1.134,0,0,0,.249.27h0c0,.009,0,.021.009.027a2.562,2.562,0,0,0,.231.208.769.769,0,0,1,.122.1.624.624,0,0,0,.16.119c.145.068.273.169.424.225a1.642,1.642,0,0,0,.385.13.047.047,0,0,0,.021.012.067.067,0,0,0,.065.015h0a.027.027,0,0,0,.021.009h0a.694.694,0,0,0,.19.053,4.041,4.041,0,0,0,.907.068,1.3,1.3,0,0,0,.338-.036.574.574,0,0,0,.068.006c.154-.021.311-.039.462-.068.2-.039.406-.086.611-.136.083-.021.163-.05.243-.074a.059.059,0,0,0,.033-.006.03.03,0,0,0,.021-.012h0a.844.844,0,0,0,.125-.027c.412-.13.818-.279,1.215-.448.46-.193.91-.409,1.355-.634.385-.2.762-.406,1.138-.62a.579.579,0,0,0,.068-.05,1.8,1.8,0,0,0,.35-.2h0c.033-.018.068-.03.1-.05l.344-.2a7.076,7.076,0,0,0,.634-.436,5.713,5.713,0,0,0,.59-.513,4.455,4.455,0,0,0,.507-.575c.044-.062.089-.125.13-.187a3.731,3.731,0,0,0,.208-.323c.074-.142.136-.291.2-.439a.325.325,0,0,0,.039-.148.379.379,0,0,0,.059-.2h0c.006-.018.015-.036.021-.053a2.543,2.543,0,0,0,.068-.806,1,1,0,0,0-.044-.323h0a.18.18,0,0,0-.009-.039h0a.59.59,0,0,0-.062-.258h0a.276.276,0,0,0-.053-.172h0a1.3,1.3,0,0,0-.124-.329,2.034,2.034,0,0,0-.219-.391h0a1.394,1.394,0,0,0-.305-.412c-.009-.044-.044-.065-.077-.089h0a.129.129,0,0,0-.039-.059c-.1-.095-.2-.193-.3-.282a5.965,5.965,0,0,0-.548-.433c-.293-.2-.584-.391-.883-.578-.465-.293-.919-.614-1.376-.922a.727.727,0,0,0-.19-.1h0c-.015-.012-.033-.021-.047-.033h0l-.19-.128h0l-.142-.095h0l-.175-.125c-.492-.335-.987-.664-1.488-.981-.127-.083-.255-.166-.382-.252a.141.141,0,0,0-.092-.036c-.03-.021-.062-.039-.092-.059h0a1.9,1.9,0,0,0-.317-.187c-.107-.059-.213-.122-.323-.175-.187-.089-.377-.175-.569-.255a1.032,1.032,0,0,0-.279-.095h0l-.027-.012a.066.066,0,0,0-.065-.015h0l-.009-.006h-.012a.1.1,0,0,0-.086-.03h0a.714.714,0,0,0-.261-.074.635.635,0,0,0-.276-.053h0a.07.07,0,0,0-.068-.012h0a.018.018,0,0,0-.021-.006h0a2.181,2.181,0,0,0-.368-.042,2.544,2.544,0,0,0-.86.1,2.623,2.623,0,0,0-1.343.966,3.575,3.575,0,0,1-.249.311,2.853,2.853,0,0,0-.326.427,2.245,2.245,0,0,0-.276.685Zm6.994.05s0,.021-.006.033A.044.044,0,0,1,151.351,500.438Zm.587,1.85Zm-2.419,5.873h0Zm-.548-5.07a.1.1,0,0,1-.044.042.074.074,0,0,1-.116-.033c0-.006-.006-.015-.009-.021a1.686,1.686,0,0,0,.169.009Zm-2.392,3.347Zm2.078-4.889a.1.1,0,0,1-.059-.015A.439.439,0,0,1,148.656,501.55Zm5.067,2.3a.049.049,0,0,1,.015.006A.023.023,0,0,1,153.722,503.853Zm-7.483,2.437Zm2.846-6.048ZM146.83,502h-.006c-.012,0-.021,0-.024-.012a.133.133,0,0,1,.033.009Zm.8-2.567a.085.085,0,0,1-.024-.012C147.612,499.421,147.618,499.427,147.627,499.43Zm-2.576,2.535-.009-.009h.027Zm7.637,1.456Zm-4.758-3.792a.009.009,0,0,0,.006,0h.021a.011.011,0,0,0,0,.009C147.95,499.634,147.938,499.628,147.93,499.628Zm-2.662,7.008a.015.015,0,0,1,.009,0,.088.088,0,0,1-.024.012C145.258,506.649,145.261,506.643,145.267,506.637Zm2.813,3.107v0l-.018-.018C148.069,509.729,148.075,509.735,148.081,509.744Zm.113.107a.235.235,0,0,1-.024-.018C148.182,509.833,148.187,509.839,148.193,509.85ZM146.474,499.4Zm-1.7,1.681a.16.16,0,0,1,.036-.021c.021-.006.041,0,.044.021a.662.662,0,0,1,.012.068c-.03-.018-.071-.039-.107-.056,0-.006.009-.009.012-.012Zm5.043-.886.018,0A.037.037,0,0,0,149.815,500.2Zm-3.9-.759Zm1.044,11.271a.049.049,0,0,1,.009.018C146.972,510.722,146.966,510.716,146.963,510.71Zm3.658-10.723.036.021A.036.036,0,0,1,150.621,499.987ZM150,499.08l.006-.006h0a.015.015,0,0,0-.009,0Z" transform="translate(-136.437 -497.892)" fill="#1679e1"/>
      <path id="패스_110" data-name="패스 110" d="M135.35,535.18Z" transform="translate(-130.436 -524.125)" fill="#1679e1"/>
      <path id="패스_111" data-name="패스 111" d="M126.77,538.307a2.678,2.678,0,0,0,.27-1.038,1.643,1.643,0,0,0-.074-.575.11.11,0,0,0-.021-.08h0a1.3,1.3,0,0,0-.228-.468,1.538,1.538,0,0,0-.356-.608,1.518,1.518,0,0,0-.866-.483.987.987,0,0,0-.465.009h0a.06.06,0,0,1-.039.006.091.091,0,0,1-.039.009h0a.3.3,0,0,0-.157.036h0a.305.305,0,0,0-.136.03,5.551,5.551,0,0,0-1.3.516,5.359,5.359,0,0,0-1.046.735,6.087,6.087,0,0,0-.546.56,5.961,5.961,0,0,0-.486.631c-.059.092-.107.19-.166.282a2.867,2.867,0,0,0-.169.329c-.021.047-.062.089-.053.145h0a.871.871,0,0,0-.122.326h0a.033.033,0,0,0-.009.024.1.1,0,0,0-.027.086,2.151,2.151,0,0,0-.116.833.8.8,0,0,0,.042.29.756.756,0,0,0,.068.255.069.069,0,0,0,.027.056.045.045,0,0,0,.009.039,1.745,1.745,0,0,0,.557.792,1.954,1.954,0,0,0,.886.43,1.309,1.309,0,0,0,.48.024.157.157,0,0,0,.1-.006h0a.181.181,0,0,0,.119-.018c.042-.006.083-.006.125-.015a3.394,3.394,0,0,0,.827-.276.355.355,0,0,0,.068-.047c.012-.006.024-.009.039-.015a.03.03,0,0,0,.018-.015.1.1,0,0,1,.039-.015.036.036,0,0,0,.015-.015.209.209,0,0,1,.039-.015h0l.018-.015h0a.611.611,0,0,0,.065-.027,6.056,6.056,0,0,0,1.1-.771,1.025,1.025,0,0,0,.175-.166c.012-.015.027-.027.039-.042h0c.036-.006.05-.033.065-.059h0a.4.4,0,0,0,.136-.145.11.11,0,0,0,.065-.05c.068-.089.145-.172.219-.255a3.784,3.784,0,0,0,.332-.454h0a4.41,4.41,0,0,0,.465-.78Zm-3.027-.747v-.006h0l-.006.006Zm-1.07,1.183a.122.122,0,0,1,.021.006A.025.025,0,0,1,122.673,538.743Zm-.617,1.112h.027v0a.107.107,0,0,0-.033.015.122.122,0,0,0-.021-.033.308.308,0,0,0,.03.012Zm-1.221-.065-.018.015C120.823,539.8,120.829,539.795,120.835,539.789Zm5.286-4.151v0h0Zm-5.363,4.583h0a.082.082,0,0,1,.009.039h0C120.763,540.249,120.761,540.234,120.758,540.222Z" transform="translate(-120.074 -524.021)" fill="#1679e1"/>
      <path id="패스_112" data-name="패스 112" d="M182.78,548.11v0Z" transform="translate(-163.805 -533.222)" fill="#1679e1"/>
      <path id="패스_113" data-name="패스 113" d="M182.8,548.25h0Z" transform="translate(-163.819 -533.321)" fill="#1679e1"/>
      <path id="패스_114" data-name="패스 114" d="M169.106,541.374a1.07,1.07,0,0,0-.359-.08,1.817,1.817,0,0,0-.551.053,1.238,1.238,0,0,0-.59.326c-.089.092-.19.175-.27.273a2.085,2.085,0,0,0-.261.32h0c-.018.024-.033.047-.05.071h0c-.012.015-.021.03-.033.044h0a.155.155,0,0,0-.092.1,3.438,3.438,0,0,1-.216.362.1.1,0,0,0-.024.077h0a1.227,1.227,0,0,0-.151.273,2.717,2.717,0,0,0-.21.587c-.018.089-.039.175-.056.264a2.735,2.735,0,0,0,.009,1.2,2.808,2.808,0,0,0,.178.51.34.34,0,0,0,.074.136h0a.071.071,0,0,0,.03.056h0a.989.989,0,0,0,.225.326h0a.243.243,0,0,0,.027.047,2.009,2.009,0,0,0,.783.557,2.129,2.129,0,0,0,1.453.062,2.573,2.573,0,0,0,.809-.409,1.252,1.252,0,0,0,.335-.326h0a.054.054,0,0,0,.015-.021c.006,0,.009-.006.015-.009.059-.033.083-.095.122-.145a.516.516,0,0,1,.033-.042h0a.1.1,0,0,0,.056-.042,3.536,3.536,0,0,0,.454-.789c.021-.047.059-.089.047-.145.021-.036.05-.065.042-.113h0a.059.059,0,0,0,.012-.024h0a2.576,2.576,0,0,0,.148-.614.975.975,0,0,0,.015-.279.067.067,0,0,0,.006-.062h0a.169.169,0,0,1,0-.039h0a.169.169,0,0,0,0,.039.036.036,0,0,0,0-.039.108.108,0,0,0,0-.1h0v-.044h0a.028.028,0,0,0,.006-.021.145.145,0,0,0,0-.036.036.036,0,0,0-.006-.039.171.171,0,0,0-.006-.142.054.054,0,0,0,0-.062h0a.094.094,0,0,0-.006-.041h0a.26.26,0,0,1-.006-.042,58.186,58.186,0,0,0-.012-.083h0a.207.207,0,0,0,.009.042.042.042,0,0,0-.006-.042h0a1.466,1.466,0,0,0-.148-.548h0a.064.064,0,0,0-.03-.056.039.039,0,0,0-.012-.039.072.072,0,0,0-.03-.056.032.032,0,0,0-.012-.036.168.168,0,0,0,.012.036h0s-.009-.024-.012-.036-.009-.012-.015-.018a.1.1,0,0,1-.015-.039,1.067,1.067,0,0,0-.219-.329h0a1.476,1.476,0,0,0-.385-.394,1.524,1.524,0,0,0-.293-.172,1.552,1.552,0,0,0-.629-.169.568.568,0,0,1-.208-.044Zm-1.429,4.278h0a.078.078,0,0,1,.036.009A.158.158,0,0,1,167.677,545.652Zm1.734.145v-.009h0v.012h0Zm-1.556-2.072a.089.089,0,0,1-.015-.009Zm2.573-.545a.029.029,0,0,1,.018.006h0A.041.041,0,0,1,170.428,543.18Zm-2.025-1.2a.17.17,0,0,0-.024.024C168.38,541.985,168.388,541.979,168.4,541.976Zm2.724,1.7a.262.262,0,0,1-.006-.042h0a.174.174,0,0,0,.006.039Zm-.21-1.011h0a.092.092,0,0,1-.009-.039h0Z" transform="translate(-152.126 -528.425)" fill="#1679e1"/>
      <path id="패스_115" data-name="패스 115" d="M119.286,518.591a2.712,2.712,0,0,0-.368.62c-.018.042-.056.08-.044.13h0a.861.861,0,0,0-.086.43.4.4,0,0,0,0,.2h0a.324.324,0,0,0,.015.184,1.591,1.591,0,0,0,.246.679,2.044,2.044,0,0,0,.436.468.281.281,0,0,0,.083.053c.113.039.208.113.317.163a1.686,1.686,0,0,0,.546.154,4.264,4.264,0,0,0,1.165-.053,4.413,4.413,0,0,0,.925-.291.751.751,0,0,0,.249-.133h0a.612.612,0,0,0,.065-.027c.1-.065.208-.133.311-.2a3.233,3.233,0,0,0,.5-.415,1.653,1.653,0,0,1,.279-.24,1.248,1.248,0,0,0,.418-.477.472.472,0,0,0,.083-.208h0a1.028,1.028,0,0,0,.113-.477h0a.454.454,0,0,0,.009-.127,1.36,1.36,0,0,0-.1-.471.941.941,0,0,0-.154-.3.222.222,0,0,0-.053-.1,1.24,1.24,0,0,0-.522-.427c-.036-.024-.068-.05-.107-.071a.92.92,0,0,0-.255-.11h0l-.012-.009-.012-.006h0a.287.287,0,0,0-.05-.03,3.463,3.463,0,0,0-1.355-.222,4.488,4.488,0,0,0-.525.05,3.924,3.924,0,0,0-.958.323.8.8,0,0,0-.231.139.064.064,0,0,0-.056.033c-.036,0-.053.027-.077.05h0a.465.465,0,0,0-.2.142.1.1,0,0,0-.074.056c-.036,0-.053.03-.071.056h0a.112.112,0,0,0-.015.018.11.11,0,0,0-.071.059h0l-.033.042c-.009,0-.021,0-.027.012a1.951,1.951,0,0,0-.249.291h0a.1.1,0,0,0-.056.042Zm2.123,1.055s-.006,0-.006-.006a.027.027,0,0,0,.015,0Zm-1.681-.8Zm3.928.634h0v0h0Zm.231-1.375-.027-.018A.026.026,0,0,1,123.887,518.108Zm-.522-.546a.217.217,0,0,0-.015-.018h0A.079.079,0,0,1,123.366,517.562Z" transform="translate(-118.775 -511.527)" fill="#1679e1"/>
      <path id="패스_116" data-name="패스 116" d="M144.993,531.169l-.009-.039A.037.037,0,0,0,144.993,531.169Z" transform="translate(-137.212 -521.276)" fill="#1679e1"/>
      <path id="패스_117" data-name="패스 117" d="M182.83,548.38s0,.027.006.039A.036.036,0,0,0,182.83,548.38Z" transform="translate(-163.84 -533.412)" fill="#1679e1"/>
      <path id="패스_118" data-name="패스 118" d="M187.73,520.46l.009.039A.037.037,0,0,0,187.73,520.46Z" transform="translate(-167.287 -513.769)" fill="#1679e1"/>
    </g>
    <g id="그룹_11" data-name="그룹 11" transform="translate(169.661 86.555)">
      <path id="패스_119" data-name="패스 119" d="M594.265,325.059c-.16.006-.323.015-.483.03a3.392,3.392,0,0,0-.964.246,3.182,3.182,0,0,0-1.109.735,2.364,2.364,0,0,0-.4.551,2.852,2.852,0,0,0-.119.276c-.036.095-.122.157-.172.243a1.656,1.656,0,0,0-.249.892,1.563,1.563,0,0,0,.359.969,1.939,1.939,0,0,0,.477.4,3.832,3.832,0,0,0,1.411.51,3.608,3.608,0,0,0,.839.044.189.189,0,0,0,.053-.018.482.482,0,0,0,.225-.012h0a.476.476,0,0,0,.113,0c.169-.021.338-.039.5-.074a2.1,2.1,0,0,0,.465-.119.1.1,0,0,0,.083-.021h0a.3.3,0,0,0,.113-.021c.139-.044.282-.092.421-.133a2.281,2.281,0,0,0,.51-.219c.089-.053.181-.107.267-.166a2.125,2.125,0,0,0,.406-.359,2.1,2.1,0,0,0,.365-.643.713.713,0,0,0,.059-.249h0a.1.1,0,0,0,.03-.062,3.219,3.219,0,0,0,.033-.655,2.164,2.164,0,0,0-.282-.86,2.317,2.317,0,0,0-.424-.534,1.394,1.394,0,0,0-.406-.285,2.449,2.449,0,0,0-.614-.282.626.626,0,0,0-.219-.053.363.363,0,0,0-.193-.044h0a.153.153,0,0,0-.107-.033,6.994,6.994,0,0,0-1-.065Zm.783,3.32v0l.006.006h-.006Zm-.59-.86v-.015l.018.018h-.015Zm.934.43v0Z" transform="translate(-578.015 -320.284)" fill="#1679e1"/>
      <path id="패스_120" data-name="패스 120" d="M551.888,331.917c.406-.116.809-.252,1.2-.4q.649-.245,1.281-.528c.317-.142.629-.293.94-.451.468-.24.931-.5,1.376-.783a2.921,2.921,0,0,0,.377-.258.282.282,0,0,0,.053-.021c.184-.133.368-.267.551-.4a.776.776,0,0,0,.071-.068.52.52,0,0,0,.154-.125h0c.113-.092.228-.184.341-.279a.794.794,0,0,0,.154-.145h0l.03-.027h0a.106.106,0,0,0,.068-.077h0a.038.038,0,0,0,.033-.027.035.035,0,0,0,.03-.027h0l-.03.027h0a.084.084,0,0,1,.03-.027.143.143,0,0,1,.033-.027.39.39,0,0,0,.056-.042c.157-.166.314-.332.457-.51a4.654,4.654,0,0,0,.735-1.213,1.1,1.1,0,0,0,.113-.35h0a.117.117,0,0,0,.018-.021,2.121,2.121,0,0,0,.068-.3.925.925,0,0,1,.027-.154.558.558,0,0,0,.027-.2c-.009-.16.015-.32-.009-.48a1.548,1.548,0,0,0-.077-.4v-.024a.069.069,0,0,0-.021-.065h0v-.024h0a.707.707,0,0,0-.047-.193,4.166,4.166,0,0,0-.382-.824,1.212,1.212,0,0,0-.2-.279.242.242,0,0,0-.03-.062c-.095-.125-.184-.252-.285-.371-.133-.16-.276-.314-.415-.465-.056-.062-.122-.119-.184-.175a.1.1,0,0,0-.024-.027.076.076,0,0,0-.021-.012h0c-.027-.033-.053-.068-.083-.1q-.471-.445-.984-.845c-.394-.308-.8-.6-1.216-.875-.359-.243-.726-.468-1.1-.691a.611.611,0,0,0-.077-.036,1.592,1.592,0,0,0-.35-.2h0c-.03-.021-.059-.044-.092-.065-.116-.068-.231-.133-.347-.2a7.114,7.114,0,0,0-.691-.341,5.873,5.873,0,0,0-.735-.264,4.632,4.632,0,0,0-.75-.163c-.077-.009-.151-.018-.228-.021-.127-.009-.255-.027-.385-.024-.16,0-.32.024-.48.039a.346.346,0,0,0-.151.039.384.384,0,0,0-.2.044h0a.125.125,0,0,0-.056.009,2.589,2.589,0,0,0-.738.332.882.882,0,0,0-.258.2h0l-.03.027h0a.562.562,0,0,0-.193.181h0a.294.294,0,0,0-.125.13h0a1.381,1.381,0,0,0-.225.267,2.038,2.038,0,0,0-.234.382h0a1.362,1.362,0,0,0-.21.468c-.036.03-.033.071-.039.113h0a.1.1,0,0,0-.033.062c-.033.133-.074.264-.1.4a6.037,6.037,0,0,0-.11.688c-.027.35-.056.7-.074,1.052-.03.551-.086,1.1-.133,1.651a.739.739,0,0,0,.006.213h0a.353.353,0,0,1-.006.056h0c-.006.077-.012.151-.021.228h0c0,.056-.009.116-.012.172h0c-.006.071-.015.142-.021.213q-.08.889-.13,1.779c-.009.151-.021.3-.033.457,0,.033-.009.065.015.095,0,.036,0,.074-.006.11h0a1.907,1.907,0,0,0-.006.368c0,.122,0,.246.006.368.015.208.033.415.056.62a1.07,1.07,0,0,0,.053.291h0v.03a.067.067,0,0,0,.018.065h0v.024a.1.1,0,0,0,.021.089h0a.745.745,0,0,0,.062.264.607.607,0,0,0,.089.267h0a.07.07,0,0,0,.024.065h0a.044.044,0,0,0,0,.021h0a2.028,2.028,0,0,0,.145.341,2.585,2.585,0,0,0,.51.7,2.641,2.641,0,0,0,1.5.7,3.64,3.64,0,0,1,.394.065,2.9,2.9,0,0,0,.531.077,2.261,2.261,0,0,0,.732-.095Zm-3.371-6.131a.145.145,0,0,0,.03-.012A.038.038,0,0,1,548.517,325.786Zm1.331-1.414Zm6.306-.753v0Zm-4.159,2.95a.107.107,0,0,1,.059.018c.044.03.062.074.03.116a.062.062,0,0,0-.012.018c-.021-.05-.05-.107-.074-.151Zm4.091.457Zm-5.283.572a.109.109,0,0,1,.015.059A.44.44,0,0,1,550.8,327.6Zm-.459-5.547v0Zm5.778,5.342Zm-6.668.465Zm2.633,1.115.006.006c.009.009.006.018,0,.027a.136.136,0,0,0-.009-.033Zm-2.633.554a.075.075,0,0,1,0,.027Zm3.472,1.014s0,.009,0,.012a.059.059,0,0,0-.012-.024c.006,0,.012.009.018.012Zm-2.455-7.379Zm-.99,6.006h-.006a.138.138,0,0,1-.009-.021l.006-.006a.115.115,0,0,0,.009.03Zm7.418-1.094v-.009a.053.053,0,0,1,.021.015A.075.075,0,0,1,556.9,328.075Zm1.34-3.973v0c0,.009-.006.018-.006.024a.051.051,0,0,1,0-.021Zm.039-.148a.135.135,0,0,1,0,.03A.051.051,0,0,1,558.277,323.954Zm-8.283,6.6Zm2.3.664a.169.169,0,0,1-.036-.021c-.015-.015-.024-.036-.006-.05s.036-.03.056-.044v.119a.022.022,0,0,1-.018-.006Zm-3.234-3.97a.08.08,0,0,1-.012-.015C549.048,327.236,549.054,327.239,549.057,327.245Zm1.239,3.771h0v0Zm9.33-6.41s.006-.015.012-.018S559.629,324.6,559.626,324.607Zm-11.144,2.037V326.6C548.488,326.619,548.491,326.631,548.482,326.643Zm-.492.981h-.009v0s.006,0,.006.006Z" transform="translate(-547.749 -315.506)" fill="#1679e1"/>
      <path id="패스_121" data-name="패스 121" d="M591.85,359.1Z" transform="translate(-578.776 -344.239)" fill="#1679e1"/>
      <path id="패스_122" data-name="패스 122" d="M592.987,348.5a2.692,2.692,0,0,0-1.038.27,1.66,1.66,0,0,0-.465.347.11.11,0,0,0-.059.056h0a1.217,1.217,0,0,0-.3.427,1.539,1.539,0,0,0-.356.608,1.511,1.511,0,0,0,0,.99.993.993,0,0,0,.234.4h0a.129.129,0,0,1,.027.03.084.084,0,0,1,.027.03h0a.325.325,0,0,0,.107.122h0c.015.047.062.071.095.1a5.516,5.516,0,0,0,1.082.881,5.43,5.43,0,0,0,1.153.554,5.916,5.916,0,0,0,.756.2,6.4,6.4,0,0,0,.789.119c.11.006.219,0,.326.006a2.215,2.215,0,0,0,.371-.015c.05-.006.107.012.151-.024h0a.846.846,0,0,0,.344-.053h0a.083.083,0,0,0,.027,0,.1.1,0,0,0,.089-.021,2.178,2.178,0,0,0,.783-.305.723.723,0,0,0,.234-.178.7.7,0,0,0,.19-.184.054.054,0,0,0,.036-.05.038.038,0,0,0,.03-.027,1.747,1.747,0,0,0,.418-.872,1.98,1.98,0,0,0-.056-.984,1.357,1.357,0,0,0-.214-.43.164.164,0,0,0-.053-.086h0a.169.169,0,0,0-.074-.095c-.024-.036-.047-.071-.074-.1a3.359,3.359,0,0,0-.643-.587.352.352,0,0,0-.074-.039.127.127,0,0,1-.03-.027.034.034,0,0,0-.024-.009.14.14,0,0,1-.033-.027.025.025,0,0,0-.021-.006l-.033-.027h0a.071.071,0,0,0-.021-.009h0c-.018-.015-.036-.03-.056-.044a5.987,5.987,0,0,0-1.21-.584.888.888,0,0,0-.228-.071c-.018,0-.036-.009-.053-.012h0a.107.107,0,0,0-.083-.03h0a.371.371,0,0,0-.193-.047.106.106,0,0,0-.074-.033c-.113-.018-.222-.044-.332-.068a4.409,4.409,0,0,0-.557-.071h0A4.42,4.42,0,0,0,593,348.5Zm.821,3.009H593.8v0S593.808,351.507,593.808,351.51Zm1.556.359a.119.119,0,0,0-.006-.021A.028.028,0,0,1,595.364,351.869Zm1.269-.006a.087.087,0,0,0-.012-.024h0a.183.183,0,0,0,.03.021.2.2,0,0,0-.021.033v-.033Zm.542,1.1a.052.052,0,0,1,.021.009A.062.062,0,0,1,597.176,352.96Zm-6.2-2.588h0v0h0Zm6.617,2.446h0a.084.084,0,0,1,.03-.027h0A.259.259,0,0,1,597.591,352.818Z" transform="translate(-577.959 -336.774)" fill="#1679e1"/>
      <path id="패스_123" data-name="패스 123" d="M580,311.38Z" transform="translate(-570.439 -310.666)" fill="#1679e1"/>
      <path id="패스_124" data-name="패스 124" d="M580.113,311.3h0Z" transform="translate(-570.516 -310.61)" fill="#1679e1"/>
      <path id="패스_125" data-name="패스 125" d="M577.032,312.375a1.059,1.059,0,0,0,.107.353,1.8,1.8,0,0,0,.314.454,1.228,1.228,0,0,0,.575.356c.124.033.243.08.371.1a2.117,2.117,0,0,0,.406.071h0a.835.835,0,0,1,.086.009h0a.408.408,0,0,1,.056.006h0a.158.158,0,0,0,.133.033,3.312,3.312,0,0,1,.421.012.124.124,0,0,0,.08-.018h0a1.367,1.367,0,0,0,.311,0,2.683,2.683,0,0,0,.614-.1l.258-.08a2.616,2.616,0,0,0,1.4-1,.376.376,0,0,0,.083-.13h0a.062.062,0,0,0,.036-.053h0a1,1,0,0,0,.175-.356h0a.257.257,0,0,0,.03-.047,2.014,2.014,0,0,0,.1-.955,2.134,2.134,0,0,0-.655-1.3,2.59,2.59,0,0,0-.753-.507,1.243,1.243,0,0,0-.448-.133h0a.033.033,0,0,0-.024,0,.064.064,0,0,0-.015-.009.446.446,0,0,0-.187-.036c-.018,0-.036-.006-.053-.006h0a.122.122,0,0,0-.062-.03,3.594,3.594,0,0,0-.91-.012c-.05.006-.107-.009-.151.027-.042,0-.083-.012-.119.018h-.027a2.68,2.68,0,0,0-.608.169.91.91,0,0,0-.252.125.059.059,0,0,0-.056.027h0a.224.224,0,0,1-.033.024h0l.033-.024a.035.035,0,0,0-.033.024.109.109,0,0,0-.092.05h0a.437.437,0,0,1-.039.024h0a.025.025,0,0,0-.021.006l-.03.021a.035.035,0,0,0-.033.024.176.176,0,0,0-.122.074.062.062,0,0,0-.056.027h0l-.033.024h0a.233.233,0,0,1-.033.024,118.234,118.234,0,0,1-.065.053h0l.033-.027a.038.038,0,0,0-.033.027h0a1.48,1.48,0,0,0-.406.4h0a.059.059,0,0,0-.036.053.044.044,0,0,0-.03.027.062.062,0,0,0-.036.053.032.032,0,0,0-.027.027l.027-.027h0l-.027.027a.02.02,0,0,0-.006.021.073.073,0,0,1-.027.033,1.123,1.123,0,0,0-.181.35h0a1.374,1.374,0,0,0-.154.528,1.458,1.458,0,0,0-.009.341,1.6,1.6,0,0,0,.157.631.549.549,0,0,1,.062.2Zm4.432-.839h0a.185.185,0,0,1-.009-.033.107.107,0,0,0,.012.033Zm-.72-1.583-.009.006h0s.006-.006.009-.006Zm-1.049,2.369v0Zm-1.731-1.98a.106.106,0,0,1,0-.018h0v.018Zm-.062,2.354.033.009A.025.025,0,0,1,577.9,312.695Zm.157-3.211a.234.234,0,0,1-.033.024h0Zm-.78.676h0a.065.065,0,0,1-.03.027h0A.259.259,0,0,1,577.278,310.16Z" transform="translate(-568.188 -308.972)" fill="#1679e1"/>
      <path id="패스_126" data-name="패스 126" d="M580.409,366.723a2.789,2.789,0,0,0,.72.018c.044-.006.095.009.136-.024h0a.9.9,0,0,0,.418-.133.377.377,0,0,0,.178-.1h0a.342.342,0,0,0,.154-.1,1.547,1.547,0,0,0,.471-.545,2,2,0,0,0,.2-.608.29.29,0,0,0,.006-.1,3.553,3.553,0,0,1-.012-.356,1.739,1.739,0,0,0-.13-.551,4.319,4.319,0,0,0-.614-.99,4.161,4.161,0,0,0-.706-.664.813.813,0,0,0-.24-.154h0c-.018-.015-.036-.033-.053-.044-.11-.059-.216-.119-.326-.172a3.039,3.039,0,0,0-.608-.237,1.617,1.617,0,0,1-.347-.125,1.25,1.25,0,0,0-.62-.13.518.518,0,0,0-.222.027h0a.966.966,0,0,0-.468.136h0a.45.45,0,0,0-.116.053,1.371,1.371,0,0,0-.359.32.905.905,0,0,0-.19.282.205.205,0,0,0-.062.095,1.254,1.254,0,0,0-.119.664.933.933,0,0,0-.009.128.992.992,0,0,0,.03.279h0v.03h0a.178.178,0,0,0,0,.056,3.477,3.477,0,0,0,.468,1.293,4.314,4.314,0,0,0,.3.433,3.958,3.958,0,0,0,.747.679.763.763,0,0,0,.234.133.063.063,0,0,0,.056.033c.018.033.05.036.08.042h0a.465.465,0,0,0,.219.1.1.1,0,0,0,.086.036.089.089,0,0,0,.083.033h0a.087.087,0,0,0,.024.006.094.094,0,0,0,.086.033h0a.252.252,0,0,1,.05.009.114.114,0,0,0,.021.018,1.813,1.813,0,0,0,.374.074h0a.122.122,0,0,0,.062.03Zm-.113-2.369v.009a.041.041,0,0,1-.009-.012.022.022,0,0,1,.012,0Zm.125,1.856Zm-1.364-3.738h0v0Zm-1.313.471a.175.175,0,0,1,0,.033A.023.023,0,0,1,577.743,362.944Zm-.222.72s-.006.015-.009.024h0A.057.057,0,0,1,577.521,363.664Z" transform="translate(-568.672 -346.072)" fill="#1679e1"/>
      <path id="패스_127" data-name="패스 127" d="M583.65,352.57l-.03.027C583.635,352.6,583.644,352.585,583.65,352.57Z" transform="translate(-572.986 -339.645)" fill="#1679e1"/>
      <path id="패스_128" data-name="패스 128" d="M580.22,311.154l.033-.024A.035.035,0,0,0,580.22,311.154Z" transform="translate(-570.594 -310.49)" fill="#1679e1"/>
      <path id="패스_129" data-name="패스 129" d="M553.45,320.5l.03-.027A.032.032,0,0,0,553.45,320.5Z" transform="translate(-551.76 -317.061)" fill="#1679e1"/>
    </g>
  </g>
</svg>
