<svg width="68" height="68" viewBox="0 0 68 68" fill="none" xmlns="http://www.w3.org/2000/svg">
<path d="M18.5361 41.8118C18.252 39.2315 18.1633 36.5985 18.2343 33.9217C17.4531 32.298 16.6364 30.7094 15.7576 29.1911C14.5414 26.76 11.0616 26.681 9.73893 29.0594C6.72073 34.0358 4.21741 39.0472 2.40649 44.1113C1.11044 46.7618 3.07227 49.8424 6.04608 49.8424H19.1841C20.0363 49.8424 20.7997 49.5616 21.4123 49.114C20.3825 48.0959 19.6013 46.6214 19.0598 44.6203C18.8113 43.6988 18.6426 42.7597 18.545 41.8206L18.5361 41.8118Z" fill="#35763C"/>
<path d="M66.6672 44.6993C65.1404 36.5371 62.8679 28.5328 59.7786 20.7041C59.3259 19.3788 58.5625 18.5363 57.373 18.1852C56.8137 18.0272 56.2101 17.9658 55.6242 18.0184C54.0618 18.1501 52.9522 19.2911 52.3485 20.7655C50.7951 24.4956 49.4724 28.4626 48.3184 32.6052C50.369 34.4482 51.523 37.0461 51.523 40.1091C51.523 43.69 49.6766 47.0953 46.8892 48.9998C47.4928 49.5264 48.274 49.8424 49.2416 49.8424H63.2673C65.9482 49.8424 67.262 47.3235 66.6761 44.6993H66.6672Z" fill="#648943"/>
<path d="M30.4136 40.1093C30.4136 36.4933 32.2778 33.1231 35.1096 31.2274C35.0652 30.0688 35.0119 28.9279 34.9231 27.7869C34.6568 22.8282 31.2836 19.7563 26.8006 19.7563C22.3177 19.7563 19.4416 22.5298 18.6781 27.7869C18.4385 29.8582 18.2964 31.9032 18.2432 33.9218C19.8854 37.3183 21.3413 40.9167 22.6018 44.6994C23.3297 46.3582 22.7261 48.1399 21.4211 49.1141C22.7616 50.4393 24.5281 51.001 26.8095 51.001C29.6679 51.001 31.976 49.588 33.4052 47.3763C31.4789 45.5595 30.4225 43.0758 30.4225 40.1093H30.4136Z" fill="#A4BC49"/>
<path d="M22.5929 44.6995C21.3323 40.908 19.8854 37.3184 18.2342 33.9219C18.1632 36.5987 18.252 39.2317 18.5361 41.812C18.6426 42.7599 18.8024 43.699 19.0509 44.6118C19.6013 46.6216 20.3736 48.0873 21.4033 49.1054C22.7083 48.1312 23.3119 46.3495 22.584 44.6908L22.5929 44.6995Z" fill="#25602E"/>
<path d="M45.5931 44.1113C46.3742 40.1531 47.2708 36.3089 48.3094 32.6052C46.5074 30.9815 44.013 29.9371 40.9592 29.6738C38.7932 29.4895 36.7782 30.0951 35.1004 31.2185C35.2424 35.0626 35.1803 38.977 34.914 42.9704C34.7364 44.6204 34.2038 46.1212 33.396 47.3762C35.2069 49.0876 37.7724 50.2023 40.9592 50.5358C43.1519 50.764 45.1847 50.1584 46.8802 48.9999C45.6463 47.9204 45.2025 45.9632 45.5931 44.1113Z" fill="#68AC45"/>
<path d="M51.5051 40.1095C51.5051 37.0464 50.3511 34.4573 48.3005 32.6055C47.2708 36.3092 46.3742 40.1533 45.5841 44.1116C45.1936 45.9634 45.6285 47.9206 46.8713 49.0002C49.6587 47.0869 51.5051 43.6903 51.5051 40.1095Z" fill="#35763C"/>
<path d="M35.1007 31.2275C32.2778 33.1233 30.4048 36.4935 30.4048 40.1094C30.4048 43.0759 31.47 45.5685 33.3875 47.3765C34.1953 46.1214 34.7279 44.6206 34.9055 42.9706C35.1718 38.9773 35.2339 35.0629 35.0919 31.2188L35.1007 31.2275Z" fill="#458C39"/>
</svg>
