<svg width="15" height="15" viewBox="0 0 15 15" fill="none" xmlns="http://www.w3.org/2000/svg">
<mask id="mask0_10_222" style="mask-type:alpha" maskUnits="userSpaceOnUse" x="0" y="0" width="15" height="15">
<rect width="15" height="15" fill="#D9D9D9"/>
</mask>
<g mask="url(#mask0_10_222)">
<path d="M7.5 15C6.47171 15 5.50132 14.8029 4.58882 14.4087C3.67632 14.0145 2.88053 13.4778 2.20145 12.7986C1.52224 12.1195 0.985527 11.3237 0.591316 10.4112C0.197105 9.49868 0 8.52829 0 7.5C0 6.46355 0.197105 5.49112 0.591316 4.5827C0.985527 3.67428 1.52224 2.88053 2.20145 2.20145C2.88053 1.52224 3.67632 0.985527 4.58882 0.591316C5.50132 0.197106 6.47171 0 7.5 0C8.53645 0 9.50888 0.197106 10.4173 0.591316C11.3257 0.985527 12.1195 1.52224 12.7986 2.20145C13.4778 2.88053 14.0145 3.67428 14.4087 4.5827C14.8029 5.49112 15 6.46355 15 7.5C15 8.52829 14.8029 9.49868 14.4087 10.4112C14.0145 11.3237 13.4778 12.1195 12.7986 12.7986C12.1195 13.4778 11.3257 14.0145 10.4173 14.4087C9.50888 14.8029 8.53645 15 7.5 15ZM7.5 13.799C7.90289 13.2647 8.24197 12.7257 8.51724 12.1822C8.7925 11.6386 9.01671 11.0445 9.18987 10.3997H5.81013C5.99342 11.0647 6.2202 11.669 6.49046 12.2126C6.76059 12.7561 7.09711 13.2849 7.5 13.799ZM5.97119 13.5819C5.66855 13.1477 5.39678 12.6541 5.15586 12.1011C4.91493 11.5479 4.7277 10.9808 4.59414 10.3997H1.91605C2.33303 11.2196 2.89224 11.9084 3.59368 12.4662C4.29513 13.0238 5.08763 13.3957 5.97119 13.5819ZM9.02882 13.5819C9.91237 13.3957 10.7049 13.0238 11.4063 12.4662C12.1078 11.9084 12.667 11.2196 13.0839 10.3997H10.4059C10.2469 10.9858 10.047 11.5554 9.80605 12.1086C9.56526 12.6617 9.30618 13.1528 9.02882 13.5819ZM1.41947 9.21553H4.35434C4.30474 8.92211 4.26875 8.63441 4.24638 8.35243C4.22414 8.07059 4.21303 7.78645 4.21303 7.5C4.21303 7.21355 4.22414 6.92941 4.24638 6.64757C4.26875 6.36559 4.30474 6.0779 4.35434 5.78447H1.41947C1.34355 6.05263 1.28539 6.33145 1.245 6.62092C1.20447 6.9104 1.18421 7.20342 1.18421 7.5C1.18421 7.79658 1.20447 8.08961 1.245 8.37908C1.28539 8.66855 1.34355 8.94737 1.41947 9.21553ZM5.53836 9.21553H9.46165C9.51112 8.92211 9.54704 8.63697 9.56941 8.36013C9.59164 8.08329 9.60276 7.79658 9.60276 7.5C9.60276 7.20342 9.59164 6.91671 9.56941 6.63987C9.54704 6.36303 9.51112 6.0779 9.46165 5.78447H5.53836C5.48888 6.0779 5.45296 6.36303 5.43059 6.63987C5.40836 6.91671 5.39724 7.20342 5.39724 7.5C5.39724 7.79658 5.40836 8.08329 5.43059 8.36013C5.45296 8.63697 5.48888 8.92211 5.53836 9.21553ZM10.6457 9.21553H13.5805C13.6564 8.94737 13.7146 8.66855 13.755 8.37908C13.7955 8.08961 13.8158 7.79658 13.8158 7.5C13.8158 7.20342 13.7955 6.9104 13.755 6.62092C13.7146 6.33145 13.6564 6.05263 13.5805 5.78447H10.6457C10.6953 6.0779 10.7312 6.36559 10.7536 6.64757C10.7759 6.92941 10.787 7.21355 10.787 7.5C10.787 7.78645 10.7759 8.07059 10.7536 8.35243C10.7312 8.63441 10.6953 8.92211 10.6457 9.21553ZM10.4059 4.60026H13.0839C12.662 3.77026 12.1066 3.08145 11.4178 2.53382C10.7289 1.98632 9.93263 1.61184 9.02882 1.4104C9.33145 1.86987 9.60066 2.37243 9.83645 2.91809C10.0724 3.46362 10.2622 4.02434 10.4059 4.60026ZM5.81013 4.60026H9.18987C9.00658 3.94026 8.77605 3.33217 8.49829 2.77599C8.2204 2.2198 7.88763 1.6948 7.5 1.20099C7.11237 1.6948 6.77961 2.2198 6.50171 2.77599C6.22395 3.33217 5.99342 3.94026 5.81013 4.60026ZM1.91605 4.60026H4.59414C4.73783 4.02434 4.92763 3.46362 5.16355 2.91809C5.39934 2.37243 5.66855 1.86987 5.97119 1.4104C5.06224 1.61184 4.26467 1.98763 3.57849 2.53776C2.89217 3.08776 2.33803 3.77526 1.91605 4.60026Z" fill="white"/>
</g>
</svg>
