<svg width="140" height="33" viewBox="0 0 140 33" fill="none" xmlns="http://www.w3.org/2000/svg">
<g clip-path="url(#clip0_4_87)">
<path d="M16.5379 23.8108C16.2539 21.2305 16.1651 18.5976 16.2361 15.9207C15.4549 14.297 14.6382 12.7085 13.7594 11.1901C12.5432 8.75899 9.06344 8.68 7.74076 11.0585C4.72256 16.0348 2.21923 21.0462 0.408314 26.1103C-0.887736 28.7609 1.07409 31.8414 4.0479 31.8414H17.1859C18.0381 31.8414 18.8016 31.5606 19.4141 31.113C18.3843 30.0949 17.6032 28.6204 17.0617 26.6194C16.8131 25.6978 16.6444 24.7587 16.5468 23.8196L16.5379 23.8108Z" fill="#35763C"/>
<path d="M64.6693 26.6983C63.1425 18.5361 60.8699 10.5318 57.7807 2.70311C57.328 1.37785 56.5646 0.535293 55.3751 0.184229C54.8158 0.02625 54.2122 -0.0351861 53.6263 0.0174734C52.0639 0.149122 50.9543 1.29008 50.3506 2.76455C48.7972 6.4946 47.4745 10.4616 46.3205 14.6042C48.3711 16.4473 49.5251 19.0451 49.5251 22.1082C49.5251 25.689 47.6786 29.0943 44.8913 30.9989C45.4949 31.5255 46.2761 31.8414 47.2437 31.8414H61.2694C63.9503 31.8414 65.2641 29.3225 64.6782 26.6983H64.6693Z" fill="#648943"/>
<path d="M28.4154 22.1083C28.4154 18.4923 30.2796 15.1221 33.1114 13.2264C33.067 12.0679 33.0138 10.9269 32.925 9.78596C32.6587 4.82718 29.2854 1.75537 24.8025 1.75537C20.3196 1.75537 17.4434 4.52878 16.68 9.78596C16.4403 11.8572 16.2983 13.9022 16.245 15.9208C17.8873 19.3173 19.3431 22.9157 20.6036 26.6985C21.3316 28.3572 20.7279 30.1389 19.423 31.1131C20.7634 32.4384 22.53 33 24.8114 33C27.6698 33 29.9778 31.587 31.407 29.3753C29.4807 27.5586 28.4243 25.0748 28.4243 22.1083H28.4154Z" fill="#A4BC49"/>
<path d="M20.5948 26.6986C19.3342 22.9071 17.8873 19.3174 16.2361 15.9209C16.1651 18.5978 16.2539 21.2307 16.5379 23.8111C16.6445 24.7589 16.8043 25.698 17.0528 26.6108C17.6032 28.6206 18.3755 30.0863 19.4052 31.1044C20.7102 30.1302 21.3138 28.3486 20.5859 26.6898L20.5948 26.6986Z" fill="#25602E"/>
<path d="M43.5952 26.1103C44.3764 22.1521 45.273 18.3079 46.3116 14.6042C44.5095 12.9805 42.0151 11.9361 38.9614 11.6728C36.7954 11.4885 34.7803 12.0941 33.1025 13.2175C33.2446 17.0617 33.1824 20.976 32.9161 24.9694C32.7386 26.6194 32.2059 28.1202 31.3981 29.3752C33.2091 31.0867 35.7745 32.2013 38.9614 32.5348C41.154 32.763 43.1869 32.1574 44.8824 30.9989C43.6485 29.9194 43.2046 27.9622 43.5952 26.1103Z" fill="#68AC45"/>
<path d="M49.5073 22.1085C49.5073 19.0455 48.3533 16.4564 46.3027 14.6045C45.273 18.3082 44.3764 22.1524 43.5863 26.1106C43.1957 27.9625 43.6307 29.9197 44.8735 30.9992C47.6609 29.0859 49.5073 25.6893 49.5073 22.1085Z" fill="#35763C"/>
<path d="M33.1025 13.2265C30.2796 15.1223 28.4066 18.4925 28.4066 22.1085C28.4066 25.075 29.4718 27.5675 31.3893 29.3755C32.1971 28.1204 32.7297 26.6196 32.9072 24.9696C33.1735 20.9763 33.2357 17.0619 33.0936 13.2178L33.1025 13.2265Z" fill="#458C39"/>
<path d="M76.4137 11.7168C75.6325 12.8753 74.1056 14.0163 72.4989 14.6131V12.2698C74.0612 11.436 75.1087 10.058 75.1087 7.22321V4.95885H77.6032V7.153C77.6032 10.0054 78.6684 11.0586 80.1953 11.8924V14.2182C78.6862 13.7354 77.2304 12.8139 76.4137 11.7344V11.7168ZM74.0435 18.5187C74.0435 17.3953 74.5672 16.6229 75.3839 16.07C76.6711 15.2011 78.7217 14.9115 80.8788 14.9115C83.0359 14.9115 85.0866 15.2099 86.3737 16.07C87.1904 16.6229 87.7142 17.3953 87.7142 18.5187C87.7142 19.6421 87.1904 20.432 86.3737 20.9849C85.0866 21.8538 83.0182 22.1434 80.8788 22.1434C78.7395 22.1434 76.6622 21.845 75.3839 20.9849C74.5672 20.432 74.0435 19.6421 74.0435 18.5187ZM76.6001 18.5187C76.6001 18.9049 76.7865 19.1857 77.1593 19.4051C77.8873 19.844 79.2632 20.0107 80.8877 20.0107C82.5122 20.0107 83.8704 19.844 84.6161 19.4051C84.9711 19.1857 85.1753 18.9049 85.1753 18.5187C85.1753 18.1325 84.9711 17.878 84.6161 17.6498C83.8704 17.211 82.4945 17.0442 80.8877 17.0442C79.281 17.0442 77.8873 17.211 77.1593 17.6498C76.7865 17.8692 76.6001 18.1501 76.6001 18.5187ZM84.8735 4.8623H87.3147V14.4815H84.8735V10.4267H83.3644V14.1831H80.941V4.95007H83.3644V8.21496H84.8735V4.8623Z" fill="white"/>
<path d="M90.1731 5.06417H98.5797V6.37188H101.509V4.8623H104.066V14.7184H101.509V12.2698H98.5797V13.6126H90.1731V5.06417ZM90.972 18.4397C90.972 17.2198 91.6023 16.3596 92.561 15.7892C93.9015 14.9817 95.881 14.736 97.7008 14.736C99.5206 14.736 101.518 14.9729 102.841 15.7892C103.808 16.3596 104.447 17.2285 104.447 18.4397C104.447 19.6509 103.817 20.5373 102.841 21.1078C101.518 21.8977 99.5384 22.1434 97.7008 22.1434C95.8633 22.1434 93.9015 21.9065 92.561 21.1078C91.6112 20.5373 90.972 19.6509 90.972 18.4397ZM92.6675 7.21443V11.4535H96.0941V7.21443H92.6675ZM93.5197 18.4397C93.5197 18.861 93.7417 19.1594 94.15 19.3963C94.9489 19.8352 96.3693 19.9844 97.692 19.9844C99.0146 19.9844 100.453 19.8352 101.252 19.3963C101.642 19.1594 101.882 18.861 101.882 18.4397C101.882 18.0184 101.642 17.7376 101.252 17.5006C100.453 17.0354 99.0324 16.9126 97.692 16.9126C96.3515 16.9126 94.9489 17.0442 94.15 17.5006C93.7417 17.7376 93.5197 18.036 93.5197 18.4397ZM98.5708 8.50459V10.1458H101.5V8.50459H98.5708Z" fill="white"/>
<path d="M118.447 21.7748V20.0195C117.887 20.5724 116.618 20.8445 115.02 20.8445H106.764V18.6503H115.508C116.884 18.6503 117.914 18.4309 118.455 17.9482V4.8623H121.012V21.7836H118.455L118.447 21.7748ZM107.315 10.295C107.315 8.38172 107.838 6.90725 108.957 5.96816C109.72 5.32746 110.839 4.95885 112.028 4.95885C113.218 4.95885 114.336 5.32746 115.1 5.96816C116.218 6.90725 116.76 8.38172 116.76 10.295C116.76 12.2083 116.218 13.6828 115.1 14.6482C114.336 15.2977 113.218 15.64 112.028 15.64C110.839 15.64 109.72 15.2889 108.957 14.6482C107.838 13.6916 107.315 12.2171 107.315 10.295ZM109.854 10.295C109.854 11.4535 110.075 12.4365 110.635 12.9631C110.972 13.2966 111.478 13.4458 112.028 13.4458C112.579 13.4458 113.094 13.2966 113.431 12.9631C113.99 12.4277 114.212 11.4535 114.212 10.295C114.212 9.13651 113.99 8.17108 113.431 7.64449C113.094 7.31098 112.597 7.14422 112.028 7.14422C111.46 7.14422 110.963 7.31098 110.635 7.64449C110.075 8.17986 109.854 9.13651 109.854 10.295Z" fill="white"/>
<path d="M132.499 14.4816V15.8068H137.87V17.922H135.579V18.9576C135.579 19.2297 135.544 19.5808 135.428 19.8265H138.154V21.968H124.341V19.8265H126.951V17.9308H124.643V15.8156H129.996V14.4904H123.569V12.3313H138.961V14.4904H132.517L132.499 14.4816ZM131.238 8.82067C129.862 10.2074 127.19 11.3483 124.021 11.6204V9.44381C127.279 9.00498 129.951 7.73238 129.951 5.33637V4.9502H132.508V5.33637C132.508 7.73238 135.189 9.00498 138.455 9.44381V11.6204C135.286 11.3396 132.623 10.1986 131.247 8.82067H131.238ZM133.058 17.922H129.463V19.8178H132.987C133.04 19.5632 133.058 19.2648 133.058 19.0103V17.922Z" fill="white"/>
<path d="M71.8154 24.8027H76.0408V25.8998H73.1203V27.7429H75.7301V28.8312H73.1203V31.745H71.8154V24.8027Z" fill="white"/>
<path d="M81.2783 30.8935C80.8344 31.4991 80.1509 31.8589 79.13 31.8589C78.1092 31.8589 77.4168 31.4991 76.9729 30.8935C76.4581 30.1826 76.3427 29.2347 76.3427 28.2605C76.3427 27.2863 76.4581 26.356 76.9729 25.6451C77.4168 25.0395 78.1003 24.6709 79.13 24.6709C80.1598 24.6709 80.8344 25.0395 81.2783 25.6451C81.7932 26.356 81.9086 27.2951 81.9086 28.2605C81.9086 29.226 81.7932 30.1826 81.2783 30.8935ZM80.2308 26.3033C80 25.9698 79.636 25.7767 79.13 25.7767C78.6241 25.7767 78.2512 25.9698 78.0204 26.3033C77.763 26.6807 77.6387 27.2161 77.6387 28.2605C77.6387 29.3049 77.763 29.8491 78.0204 30.2353C78.2512 30.5688 78.6152 30.7619 79.13 30.7619C79.6449 30.7619 80 30.5688 80.2308 30.2353C80.4971 29.8491 80.6125 29.3225 80.6125 28.2605C80.6125 27.1986 80.4971 26.6807 80.2308 26.3033Z" fill="white"/>
<path d="M86.1873 30.2267C86.1518 29.507 85.8233 29.2174 85.0422 29.2174H83.8349V31.7362H82.53V24.7939H85.344C86.8176 24.7939 87.5987 25.5751 87.5987 26.9179C87.5987 27.8306 87.1904 28.4275 86.3737 28.6644C87.1105 28.7785 87.4212 29.2261 87.4745 30.1389L87.5366 31.1043C87.5544 31.3676 87.5987 31.5783 87.6609 31.7362H86.3471C86.2849 31.587 86.2494 31.3676 86.2406 31.1219L86.1873 30.2267ZM85.1309 28.1203C85.85 28.1203 86.2938 27.8219 86.2938 27.0056C86.2938 26.1894 85.85 25.891 85.1309 25.891H83.8349V28.1203H85.1309Z" fill="white"/>
<path d="M88.2379 24.8027H92.5166V25.8998H89.5428V27.6464H92.1527V28.7347H89.5428V30.6479H92.561V31.745H88.2379V24.8027Z" fill="white"/>
<path d="M95.4638 31.8589C93.9015 31.8589 92.9782 30.9988 92.9782 29.7701V29.656H94.2743V29.8052C94.2743 30.3845 94.727 30.7794 95.4638 30.7794C96.2006 30.7794 96.6533 30.3845 96.6533 29.8052C96.6533 29.2962 96.3249 28.9451 95.668 28.8135L94.8158 28.6379C93.6795 28.4097 92.9782 27.7866 92.9782 26.6544C92.9782 25.5222 93.7772 24.6709 95.3307 24.6709C96.8841 24.6709 97.692 25.5837 97.692 26.6456V26.7422H96.387V26.6456C96.387 26.1278 96.0142 25.7592 95.3307 25.7592C94.6471 25.7592 94.2743 26.1278 94.2743 26.6456C94.2743 27.1635 94.585 27.418 95.2596 27.5584L96.103 27.7339C97.2747 27.9709 97.9494 28.6467 97.9494 29.7613C97.9494 30.99 97.0351 31.8589 95.4638 31.8589Z" fill="white"/>
<path d="M97.8606 24.8027H102.965V25.8998H101.065V31.745H99.7603V25.8998H97.8606V24.8027Z" fill="white"/>
<path d="M105.557 24.8027H109.783V25.8998H106.862V27.7429H109.472V28.8312H106.862V31.745H105.557V24.8027Z" fill="white"/>
<path d="M115.02 30.8935C114.576 31.4991 113.893 31.8589 112.872 31.8589C111.851 31.8589 111.158 31.4991 110.715 30.8935C110.2 30.1826 110.084 29.2347 110.084 28.2605C110.084 27.2863 110.2 26.356 110.715 25.6451C111.158 25.0395 111.842 24.6709 112.872 24.6709C113.901 24.6709 114.576 25.0395 115.02 25.6451C115.535 26.356 115.65 27.2951 115.65 28.2605C115.65 29.226 115.535 30.1826 115.02 30.8935ZM113.972 26.3033C113.742 25.9698 113.378 25.7767 112.872 25.7767C112.366 25.7767 111.993 25.9698 111.762 26.3033C111.505 26.6807 111.38 27.2161 111.38 28.2605C111.38 29.3049 111.505 29.8491 111.762 30.2353C111.993 30.5688 112.357 30.7619 112.872 30.7619C113.387 30.7619 113.742 30.5688 113.972 30.2353C114.239 29.8491 114.354 29.3225 114.354 28.2605C114.354 27.1986 114.239 26.6807 113.972 26.3033Z" fill="white"/>
<path d="M119.929 30.2267C119.893 29.507 119.565 29.2174 118.784 29.2174H117.577V31.7362H116.272V24.7939H119.086C120.559 24.7939 121.34 25.5751 121.34 26.9179C121.34 27.8306 120.932 28.4275 120.115 28.6644C120.852 28.7785 121.163 29.2261 121.216 30.1389L121.278 31.1043C121.296 31.3676 121.34 31.5783 121.403 31.7362H120.089C120.027 31.587 119.991 31.3676 119.982 31.1219L119.929 30.2267ZM118.873 28.1203C119.592 28.1203 120.036 27.8219 120.036 27.0056C120.036 26.1894 119.592 25.891 118.873 25.891H117.577V28.1203H118.873Z" fill="white"/>
<path d="M124.234 24.8027H125.539V30.6479H128.557V31.745H124.234V24.8027Z" fill="white"/>
<path d="M130.209 31.7362H128.904V24.7939H130.209V31.7362Z" fill="white"/>
<path d="M130.99 24.8027H135.215V25.8998H132.295V27.7429H134.905V28.8312H132.295V31.745H130.99V24.8027Z" fill="white"/>
<path d="M135.677 24.8027H139.956V25.8998H136.982V27.6464H139.592V28.7347H136.982V30.6479H140V31.745H135.677V24.8027Z" fill="white"/>
</g>
<defs>
<clipPath id="clip0_4_87">
<rect width="140" height="33" fill="white"/>
</clipPath>
</defs>
</svg>
