<svg width="15" height="15" viewBox="0 0 15 15" fill="none" xmlns="http://www.w3.org/2000/svg">
<mask id="mask0_10_240" style="mask-type:alpha" maskUnits="userSpaceOnUse" x="0" y="0" width="15" height="15">
<rect width="15" height="15" fill="#D9D9D9"/>
</mask>
<g mask="url(#mask0_10_240)">
<path d="M6.45469 12.9052C4.65223 12.9052 3.12579 12.2802 1.87537 11.0304C0.625124 9.78038 0 8.25444 0 6.45258C0 4.65071 0.625124 3.12477 1.87537 1.87476C3.12579 0.62492 4.65223 0 6.45469 0C8.25714 0 9.78358 0.62492 11.034 1.87476C12.2843 3.12477 12.9094 4.65071 12.9094 6.45258C12.9094 7.20614 12.7829 7.92585 12.5299 8.6117C12.2768 9.29756 11.9391 9.89407 11.5169 10.4013L14.7756 13.6589C14.9218 13.8049 14.9966 13.9885 14.9999 14.2097C15.0032 14.4309 14.9285 14.6179 14.7756 14.7708C14.6227 14.9236 14.4373 15 14.2193 15C14.0016 15 13.8162 14.9236 13.6634 14.7708L10.4047 11.5131C9.8769 11.9487 9.26999 12.2896 8.58391 12.5358C7.89783 12.7821 7.18809 12.9052 6.45469 12.9052ZM6.45469 11.3227C7.81471 11.3227 8.96662 10.8508 9.91042 9.90718C10.8544 8.96369 11.3264 7.81215 11.3264 6.45258C11.3264 5.093 10.8544 3.94147 9.91042 2.99798C8.96662 2.05431 7.81471 1.58248 6.45469 1.58248C5.09467 1.58248 3.94276 2.05431 2.99896 2.99798C2.05498 3.94147 1.583 5.093 1.583 6.45258C1.583 7.81215 2.05498 8.96369 2.99896 9.90718C3.94276 10.8508 5.09467 11.3227 6.45469 11.3227Z" fill="white"/>
</g>
</svg>
