<?xml version="1.0" encoding="utf-8"?>
<!-- Generator: Adobe Illustrator 25.4.1, SVG Export Plug-In . SVG Version: 6.00 Build 0)  -->
<svg version="1.1" id="레이어_1" xmlns="http://www.w3.org/2000/svg" xmlns:xlink="http://www.w3.org/1999/xlink" x="0px"
	 y="0px" viewBox="0 0 283.5 196.7" style="enable-background:new 0 0 283.5 196.7;" xml:space="preserve">
<style type="text/css">
	.st0{fill:#E80A4D;}
</style>
<g>
	<g>
		<g>
			<path d="M63.1,174.5c4.4-2.2,18.9-8.3,18.9-15.6c0-7.4-12.1-9.7-19.7-10.6c-7.6-1-14.9-1.2-20.5-0.9c-5.6,0.3-8.4,1.6-8.4,3.2
				c0,1.5,2.1,2,2.8,2s1.9-0.3,2.8-0.8c0.9-0.5,1.2-1.5,3.6-1.8c11-1.4,21.5,0.9,21.5,0.9c13.2,2.7,12.7,7,12.8,8.2
				c0,1.2-0.6,4-8.5,9.7c-6.2,4.4-13.6,8-17.2,9.6c0.1-1,0.1-1.9,0.2-2.6c0.5-4.7,2.3-15.6,2.6-18.8c0.3-3.3-1.7-3.7-1.7-3.7
				c-2.5-0.2-2.7,3.9-2.7,3.9s-0.3,3.5-1,12.5c-0.2,3.1-0.4,6.7-0.5,10.2c-0.8,0.4-1.3,0.8-1.2,1.5c0.1,0.6,0.7,0.6,1.1,0.5
				c-0.1,5.6-0.1,10.3-0.1,11.1c0,1.2,0.3,4.1,1.3,4.1c1.1,0,1.3-1.6,1.3-3.6c0-1.5,0.2-7.8,0.4-12.9
				C54.4,178.6,60.1,176,63.1,174.5z"/>
			<path d="M105.3,165.7c-1-0.4-2.1,0.9-4.2,4.4c-2.1,3.5-7.8,15.5-10.5,15.5c-2.7,0-0.1-7.5-2.1-7.7c-2.1-0.2-7.4,9.2-9.6,9.2
				c-2.2,0,0-9.2-1.7-9.5c-1.7-0.2-7.6,8.8-9.3,8.6c-1.3-0.2-0.7-4.4-0.7-7c0,0,0.1-2.7-2.7-2.7c-2.8,0-6.1,2.1-8.4,8.1
				c-2.3,5.9,2.3,9.3,6.1,3.1c0,0,2.7-4.4,2.7-3.4c0,1.1,0.3,4.8,2.3,4.8s4.2-2.6,5.1-3.7c1-1.1,3.3-4.3,3.2-2.7
				c-0.1,1.6-1.1,8.7,2.7,8.7c2.5,0,5.4-4.8,6-5.6c0.6-0.9,3.2-5.5,3.2-3.4c0,2.1-0.8,7.1,2.5,7.1s7.2-8.7,8.6-11
				c1.4-2.2,3.6-6.8,4-6.7c0.4,0.1-1.3,8.7-1.7,11.3c-0.4,2.6-1.7,11.1,0.8,10.5c2.2-0.5,1-4.3,1-5.6c0-1.1,0.8-7.6,1.4-10.8
				C104.2,174.1,106.3,166.1,105.3,165.7z M64.6,179.6c0,0-4.3,7-5.5,7s-1-2.3,1-4.8c2-2.4,3.7-2.7,4.3-2.6
				C64.9,179.3,64.6,179.6,64.6,179.6z"/>
			<path d="M137.5,169.3c-2.9-0.1-5.4-0.1-7.5-0.1c6.1-3.2,19.2-8.9,19.2-14.1c0-4.9-9.9-6.7-15.7-7.4c-5.8-0.7-11.2-0.3-15.5-0.1
				c-4.3,0.2-6,1.4-6,2.5c0,1.1,1.6,1.3,2.1,1.3s1.5-0.2,2.2-0.6s1.2-1.3,3-1.5c4.3-0.5,8.4-0.9,13.2-0.4c7.5,0.7,11.5,4,11.5,6.1
				c0,1.8-1.9,4.8-7.9,8.7c-4.2,2.7-8.1,4.7-10.4,5.7c-0.3,0-0.6,0-0.8,0.1c0.8-5.5,2-13.1,2.3-15.9c0.3-3.4-1.4-3.7-1.4-3.7
				c-2.3-0.3-2.5,4-2.5,4s-0.6,3.7-1.1,13c0,0.9-0.1,1.9-0.2,2.9l0,0c0,0-2.5,0.4-3.6,0.8s-1.6,0.9-1.6,1.6c0,0.7,0.7,1.3,1.9,1.3
				c0.3,0,1.5-0.1,3.2-0.3c-0.4,8.4-0.9,17.4-0.9,18.4c0,1,0,2.5,0.5,3.2l0,0c0,0,0.2,0.7,1.8,0.3c1.6-0.4,7.9-2.8,14.5-6
				c6.6-3.2,15.5-7.8,15.5-12.8C153.3,171.6,148.1,169.7,137.5,169.3z M135.4,187.9c-6,3-10.6,4.3-11.3,4.5
				c-0.9,0.2-0.9-1.1-0.9-1.1c0.1-3.6,0.8-13.7,1.3-18.2c4.2-0.4,9.8-0.8,13.3-0.8c5.9,0,11.5,1.1,11.5,4.5
				C149.2,180.2,141.4,184.9,135.4,187.9z"/>
			<path d="M255.5,163.9c-1.2,0-3,0.9-5.5,1.2c-2.5,0.2-17.1,0.8-17.1,0.8s1.9-3.2,2.8-5.6s2.3-8-0.1-8c-2.4,0-3.2,9.3-5.3,13.6
				l-13.5-0.1c0,0,2.8-6,2.8-7.6c-0.1-1.6-0.8-1.5-1.1-1.5c-0.3,0-1.6,0.1-3.4,3s-3,5.9-3,5.9s-7.9-0.3-8.4-0.4
				c-0.5-0.1-1.9,0-2.2,1s1.5,1.3,3.4,1.4c1.9,0.1,6,0.3,6,0.3s-2.1,6-2.4,7.4c0,0-2.9,4.2-5.7,7.1c-2.7,2.9-6.9,5.8-8.2,5.8
				c-1.3,0-1.5-1.6-1.5-1.6s1.7-0.7,3.5-2c1.8-1.4,3.6-3,3.6-5.6c0-2.6-2-3.1-2.8-3.1c-0.9,0-3,0.5-5.1,2.9s-2.3,6.5-2.3,6.5
				s-2.7,0.6-3.1,0.7c0,0,0.2-1-0.8-1.9c-1-0.9-3.2-2.3-3.2-3.6c0-1.3,1.5-2.9,2.1-3.6c0.6-0.8,1.2-1.7,1.2-2.4
				c0-0.6-0.2-1.2-1.2-1.2s-6.4,5.8-7.4,6.7c-1,0.9-4.9,4.1-4.9,4.1s-4.6-2.5-4.6-4.5c0-1.9,2.8-3.9,4.4-4.5
				c1.6-0.6,4.9-1.6,4.9-2.7s-1-1.3-1.6-1.3s-5.1,0.8-8.5,4.2c-3.4,3.4-5.1,9-5.1,9s-0.6,1.2-0.5,0.4c0.1-0.9,0.3-3.8,0.3-4.2
				c0.1-0.6,0.9-3.3-0.2-3.6c0,0-2-0.7-4.4,0.3c-2.4,1-6.3,6-6.3,9.8c0,3.8,2.8,3.5,2.9,3.5c0.2,0,1.9,0,3.7-3.8
				c0.7-1.4,0.6-1.6,1-1.6s0.3,0.4,0.4,1.2c0.1,0.8,0.4,4.3,2,4.3c1.6,0,1.9-3.6,2.5-5.5c0.6-1.9,1.5-4.1,1.9-4.1s1.2,1.6,2.5,2.6
				s2.7,2.1,2.7,2.1s-6.3,3.2-6.3,4.8s5.2,1.1,7.7-0.3c2.5-1.4,2.9-2.8,2.8-4c-0.1-0.9,1.1-1.5,2.1-2.4c1-0.9,2.9-2.7,3.1-2.7
				c0.2,0,0.1,0.8,0.5,1.6c0.4,0.8,2.4,2.4,3,2.9c0.7,0.5,0.8,0.6,0.8,0.8c0,0.2-0.3,0.4-0.6,0.4s-6.6,0.8-6.6,2.6
				c0,1.8,5.5,1.7,5.9,1.7c0.4,0,3.8-0.5,3.8-3l3.3-0.7c0,0-0.3,3.8,3.6,3.8s6.7-3.2,8.2-4.9c1.5-1.7,4.5-5.5,5.3-5.9
				c0,0-0.2,2-0.2,3.2s0.1,7.4,4.4,7.4s8.3-6.1,10.5-8.9c2.1-2.8,3.6-4.8,4.6-6.4c1-1.6,2.4-3.7,2.8-3.7c0.3,0,0.3,0.2,0.2,1
				c-0.1,0.8-2.3,14.8-2.5,16.2c-0.2,1.4,0.2,2,1.2,2c0.9,0,1.3-0.1,1.4-1.7c0.1-1.6,2.9-21.2,2.9-21.2s7.1-0.1,11.9-0.2
				c4.8-0.1,10.8-0.1,11.7-0.5c0.8-0.3,1.4-0.8,1.4-2S256.7,163.9,255.5,163.9z M195.5,179.3c1-1.1,2-0.7,2-0.7c1,0.7,0.1,2-0.3,2.5
				c-0.4,0.5-2.9,3-3.5,2.5C193.1,183.2,194.5,180.4,195.5,179.3z M159,179.5c0,0-3.6,8.1-4.7,8.1c-1.1,0-0.6-2.8,0.5-5
				c1.1-2.2,2.7-3.6,3.7-3.7C159.7,178.7,159,179.5,159,179.5z M212.1,188.5c-3.7-0.9-2.3-10.3-1.7-11.8c0.6-2,5.3-8.6,5.3-8.6h13.8
				C224.1,178,215,189.3,212.1,188.5z"/>
		</g>
	</g>
	<g>
		<g>
			<ellipse transform="matrix(0.7071 -0.7071 0.7071 0.7071 -36.1584 18.7102)" class="st0" cx="4.5" cy="53" rx="4.5" ry="4.5"/>
			<ellipse transform="matrix(0.7071 -0.7071 0.7071 0.7071 0.8862 48.7733)" class="st0" cx="59.3" cy="23.3" rx="4.5" ry="4.5"/>
			<path class="st0" d="M218.6,70.3c-13.9-5.6-6.7-28.6-3.7-34.2c0,0-20.1,23.5-40.4,23.5c-20.4,0-29.8-27.5-32.8-39.7
				c-3,12.2-12.4,39.7-32.8,39.7c-20.4,0-40.4-23.5-40.4-23.5c3,5.6,10.2,28.6-3.7,34.2c-13.7,5.6-46.5-6.8-46.5-6.8
				c34.4,29.1,35.6,57.1,35.6,57.1c46.1-6.5,87.7-6.3,87.7-6.3s41.6-0.2,87.7,6.3c0,0,1.2-28,35.6-57.1
				C265,63.5,232.2,75.9,218.6,70.3z"/>
			<ellipse transform="matrix(0.7071 -0.7071 0.7071 0.7071 44.2268 212.7775)" class="st0" cx="279" cy="53" rx="4.5" ry="4.5"/>
			
				<ellipse transform="matrix(0.7071 -0.7071 0.7071 0.7071 49.1635 165.325)" class="st0" cx="224.1" cy="23.3" rx="4.5" ry="4.5"/>
			
				<ellipse transform="matrix(0.7071 -0.7071 0.7071 0.7071 38.3262 101.5395)" class="st0" cx="141.7" cy="4.5" rx="4.5" ry="4.5"/>
		</g>
	</g>
</g>
</svg>
